<?xml version="1.0" standalone="no"?>
<!DOCTYPE svg PUBLIC "-//W3C//DTD SVG 1.1//EN" "http://www.w3.org/Graphics/SVG/1.1/DTD/svg11.dtd" >
<svg>
<metadata>
Created by FontForge 20110222 at Tue Sep 24 00:01:04 2013
 By Orthosie Webhosting
Copyright (c) FontLab 4.6 by Alexandra Gophmann (aka Fee) (rusification original font LT Hogart Scr), 2005. All rights reserved.
</metadata>
<defs>
<font id="Hogarthscript" horiz-adv-x="500" >
  <font-face 
    font-family="Hogarth script"
    font-weight="500"
    font-stretch="normal"
    units-per-em="1000"
    panose-1="3 0 6 5 7 0 0 9 0 2"
    ascent="800"
    descent="-200"
    x-height="306"
    cap-height="679"
    bbox="-254 -322 1749.26 786"
    underline-thickness="50"
    underline-position="-75"
    unicode-range="U+0020-2122"
  />
<missing-glyph horiz-adv-x="194" 
 />
    <glyph glyph-name=".notdef" horiz-adv-x="194" 
 />
    <glyph glyph-name=".null" horiz-adv-x="0" 
 />
    <glyph glyph-name="nonmarkingreturn" horiz-adv-x="194" 
 />
    <glyph glyph-name="space" unicode=" " horiz-adv-x="194" 
 />
    <glyph glyph-name="space" unicode="&#xa0;" horiz-adv-x="194" 
 />
    <glyph glyph-name="ampersand" unicode="&#x26;" 
d="M288 393q0 -15 0.5 -30.5t5.5 -30.5q26 10 57 21t57.5 27.5t44 40.5t17.5 59q0 26 -16.5 44t-44.5 18q-29 0 -51 -14.5t-38 -36t-24 -48t-8 -50.5zM98 96q0 -38 21.5 -64t60.5 -26q58 0 106.5 30t83.5 72q-20 53 -44 102t-40 105q-36 -14 -70 -34t-60 -47t-42 -61
t-16 -77zM410 -24q0 -54 -22 -106t-61 -92.5t-93 -65t-117 -24.5q-28 0 -56.5 8.5t-51 25t-37 41t-14.5 55.5q-1 37 15.5 61.5t37.5 38.5t41 20t26 6t6 -5t-12 -5.5t-38 -13.5q-7 -4 -18 -11t-21 -17.5t-17.5 -26t-7.5 -35.5q0 -28 13 -48.5t32 -33.5t41 -19.5t40 -6.5
q54 0 106.5 23t94.5 62t67.5 90t25.5 106q0 19 -4.5 47t-11.5 47q-17 -21 -37.5 -39.5t-45 -32.5t-52.5 -22.5t-59 -8.5q-28 0 -53 8.5t-43.5 24t-29 37t-10.5 48.5q0 50 22.5 85t57.5 60t77 42t82 30q-7 25 -7 54q0 28 8 58.5t24.5 55.5t41 41t57.5 16q35 0 55 -20.5
t20 -55.5q0 -34 -19 -59.5t-47 -44.5t-60 -32t-58 -23q3 -17 12.5 -42.5t22 -53.5t25.5 -55.5t22 -47.5q16 20 34 42t34.5 44t31 42t25.5 36q13 19 32.5 43t43 45t49 35.5t51.5 14.5q16 0 26.5 -8.5t10.5 -25.5t-10 -26.5t-27 -9.5q-10 0 -16 5.5t-10 12.5t-8.5 12.5
t-11.5 5.5t-19 -7t-27 -19.5t-31 -29.5t-30 -36q-35 -49 -72.5 -96.5t-70.5 -89.5q25 -63 25 -134z" />
    <glyph glyph-name="quoteright" unicode="&#x2019;" horiz-adv-x="222" 
d="M314 480q0 -20 -19 -47t-43 -51t-46.5 -41t-28.5 -17q-5 0 -5 5q0 3 3 5.5t14 10.5q29 21 46.5 41.5t18.5 40.5q1 49 10 65t29 16q11 0 16 -8.5t5 -19.5z" />
    <glyph glyph-name="asterisk" unicode="*" horiz-adv-x="389" 
d="M200 486q-7 0 -11.5 6.5t-4.5 14.5q0 13 29.5 21.5t100.5 28.5q-36 24 -57.5 37.5t-32.5 22t-14.5 13t-3.5 10.5q0 8 4.5 14t12.5 6q7 0 13 -3.5t16 -13.5t26 -28t44 -46l6 102q1 15 5.5 21t14.5 6q11 0 16.5 -5.5t5.5 -12.5q0 -4 -2 -10t-6.5 -18t-11 -32t-14.5 -51
q15 5 33 14.5t35 18.5t31 15.5t20 6.5q7 0 12 -7t5 -11q0 -11 -5.5 -16t-20.5 -9t-41 -9.5t-68 -15.5q20 -13 40.5 -25.5t37 -23t27 -19t10.5 -12.5q0 -10 -6 -17t-17 -7q-4 0 -9.5 4.5t-16 15.5t-27 28.5t-43.5 43.5q-2 -50 -4 -77.5t-5 -40.5t-7 -15.5t-10 -2.5
q-17 0 -17 18q0 9 3.5 25t8.5 33t10 33.5t7 26.5q-8 -4 -25.5 -13.5t-36.5 -19.5t-35 -17.5t-22 -7.5z" />
    <glyph glyph-name="uni00AD" unicode="&#xad;" horiz-adv-x="333" 
d="M289 120h-221l12 38h221z" />
    <glyph glyph-name="question" unicode="?" horiz-adv-x="389" 
d="M113 62q29 0 29 -25q0 -20 -9 -31.5t-30 -11.5q-12 0 -18.5 5.5t-6.5 22.5t8 28.5t27 11.5zM343 490q39 0 62 -26t23 -65q0 -37 -14.5 -62t-37 -43.5t-48.5 -33t-50 -29.5q-36 -23 -59.5 -47t-38 -44t-22.5 -33t-12 -13t-4 6q0 3 9.5 18t25.5 35.5t36.5 44t41.5 42.5
q37 33 62 59.5t41 50t23 43.5t7 40q0 23 -15.5 34t-36.5 11q-18 0 -35.5 -6.5t-31.5 -17t-22.5 -24.5t-8.5 -30q13 -5 21.5 -11t8.5 -22q0 -11 -8 -19t-21 -8q-16 0 -23.5 10.5t-7.5 26.5q0 22 12.5 42.5t32 36t43.5 25t47 9.5z" />
    <glyph glyph-name="at" unicode="@" horiz-adv-x="800" 
d="M636 420q0 32 -14.5 49t-52.5 17q-29 0 -57.5 -19t-51 -49t-36 -66.5t-13.5 -72.5q0 -51 19.5 -70t52.5 -19q18 0 42 15t47 44.5t41 72t23 98.5zM661 512h44l-66 -257q-2 -9 -3.5 -15t-1.5 -12q0 -18 16.5 -34.5t39.5 -16.5q40 0 69.5 21t49 55t29 75t9.5 82
q0 43 -20.5 90t-59.5 86.5t-96.5 65.5t-132.5 26q-69 0 -128 -24t-101.5 -68.5t-66.5 -107.5t-24 -142q0 -65 22.5 -122.5t65 -100.5t103.5 -68t139 -25q34 0 61.5 4t51.5 10.5t45.5 15.5t43.5 18l14 -17q-50 -21 -102.5 -39t-112.5 -18q-100 0 -172 33.5t-119 83.5
t-69.5 109.5t-22.5 110.5q0 82 30 150t81 116t118.5 74.5t142.5 26.5q71 0 132 -22.5t106 -63t71 -95.5t26 -119q0 -39 -12.5 -82t-36.5 -78.5t-59 -59t-80 -23.5q-26 0 -43.5 9.5t-28 21.5t-15 24t-4.5 17h-2q-5 -7 -15.5 -19t-26 -23.5t-35 -20t-42.5 -8.5
q-45 0 -71.5 31.5t-26.5 94.5q0 17 5.5 41t16.5 50.5t27.5 53t38.5 47t50.5 33.5t62.5 13q31 0 47.5 -14.5t26.5 -33.5z" />
    <glyph glyph-name="bracketleft" unicode="[" 
d="M450 698h245l-12 -24h-187l-422 -846h189l-12 -24h-247z" />
    <glyph glyph-name="backslash" unicode="\" horiz-adv-x="278" 
d="M143 698l223 -704h-31l-223 704h31z" />
    <glyph glyph-name="bracketright" unicode="]" 
d="M158 -196h-245l12 24h187l422 846h-189l12 24h247z" />
    <glyph glyph-name="asciicircum" unicode="^" horiz-adv-x="400" 
d="M166 265l101 201h25l102 -201h-31l-83 165l-84 -165h-30z" />
    <glyph glyph-name="underscore" unicode="_" 
d="M0 -125v50h500v-50h-500z" />
    <glyph glyph-name="quoteleft" unicode="&#x2018;" horiz-adv-x="222" 
d="M132 352q0 20 19 47t43 51t46.5 41t28.5 17q5 0 5 -5q0 -3 -3 -5.5t-14 -10.5q-29 -21 -46.5 -41.5t-18.5 -40.5q-1 -25 -3.5 -40.5t-7 -24.5t-11.5 -12.5t-17 -3.5q-11 0 -16 8.5t-5 19.5z" />
    <glyph glyph-name="braceleft" unicode="{" 
d="M178 -60q-12 -24 -20.5 -45.5t-8.5 -37.5q0 -13 13 -23t35 -10l-6 -24q-43 0 -69.5 9.5t-26.5 41.5q0 16 6 39.5t22 55.5l92 184q9 18 17.5 39t8.5 33q0 31 -42 47q27 7 47 17t35.5 24.5t28.5 33.5t25 44l92 185q23 47 47.5 75.5t50.5 44t55 20.5t61 5l-13 -24
q-50 -4 -82 -33.5t-58 -82.5l-88 -175q-14 -28 -27.5 -49.5t-30.5 -38t-38.5 -27.5t-50.5 -18l-1 -2q23 -7 33 -19t10 -29q0 -16 -7 -35.5t-22 -49.5z" />
    <glyph glyph-name="bar" unicode="|" horiz-adv-x="222" 
d="M148 750h30v-1000h-30v1000z" />
    <glyph glyph-name="braceright" unicode="}" 
d="M428 558q12 24 20.5 45.5t8.5 37.5q0 13 -13 23t-35 10l6 24q43 0 69.5 -9.5t26.5 -41.5q0 -16 -6 -39.5t-22 -55.5l-92 -184q-9 -18 -17.5 -39t-8.5 -33q0 -31 42 -47q-27 -7 -47 -17t-35.5 -24.5t-28.5 -33.5t-25 -44l-92 -185q-23 -47 -47.5 -75.5t-50.5 -44
t-55 -20.5t-61 -5l13 24q50 4 82 33.5t58 82.5l88 175q14 28 27.5 49.5t30.5 38t38.5 27.5t50.5 18l1 2q-23 7 -33 19t-10 29q0 16 7 35.5t22 49.5z" />
    <glyph glyph-name="asciitilde" unicode="~" horiz-adv-x="400" 
d="M340 154q-13 -17 -28 -32t-41 -15q-15 0 -28.5 5t-27.5 13t-29 14t-34 6q-18 0 -29 -13t-17 -28l-20 20q9 17 25 32t44 15q14 0 29.5 -5t31.5 -12q15 -7 30 -13.5t26 -6.5q17 0 27.5 12.5t20.5 27.5z" />
    <glyph glyph-name="section" unicode="&#xa7;" 
d="M198 296q0 -24 9 -45t23.5 -43t31.5 -47.5t33 -58.5q26 0 49 6t40.5 18.5t28 31.5t10.5 45q0 28 -11 55t-26.5 52.5t-32.5 49.5t-28 46q-24 -2 -46.5 -9t-40.5 -20.5t-29 -33.5t-11 -47zM318 -2q0 -30 -11.5 -58t-32.5 -49t-51.5 -34t-67.5 -13q-31 0 -56.5 10
t-43.5 27.5t-28 40t-10 46.5q0 35 23 60.5t59 25.5q34 0 55.5 -16.5t21.5 -45.5q0 -15 -9.5 -25t-24.5 -10q-30 0 -30 31q0 13 4.5 17t4.5 14q0 3 -6.5 9t-21.5 6q-26 0 -43 -16.5t-17 -46.5q0 -53 32.5 -82t85.5 -29q28 0 52.5 9.5t42.5 27.5t28 43t10 56q0 35 -20.5 68
t-44.5 67t-44.5 70.5t-20.5 78.5q0 33 14 59.5t37.5 44.5t53 28t60.5 10q-5 16 -8.5 34t-3.5 36q0 34 11 63.5t31 52t48 35.5t63 13q24 0 46.5 -8t39.5 -23t27.5 -35.5t10.5 -45.5q0 -32 -18 -56t-52 -24q-28 0 -46 13.5t-18 33.5q0 14 8 23.5t24 9.5q17 0 24.5 -8t7.5 -22
q0 -7 -2.5 -11.5t-2.5 -8.5q-1 -6 3.5 -8t9.5 -2q24 0 35 19.5t11 40.5q0 45 -31.5 70.5t-77.5 25.5q-26 0 -47.5 -9t-37.5 -25t-24.5 -37.5t-8.5 -46.5q0 -45 19.5 -80t43.5 -68t43.5 -68.5t19.5 -83.5q0 -35 -14 -60.5t-37.5 -42t-53 -25t-60.5 -8.5q6 -22 11 -43.5
t5 -44.5z" />
    <glyph glyph-name="currency" unicode="&#xa4;" horiz-adv-x="389" 
d="M375 233q0 27 -10 52t-28 44t-42.5 30.5t-52.5 11.5q-29 0 -53.5 -11.5t-42.5 -30.5t-28 -44t-10 -52t10 -52t28 -44t42.5 -30.5t53.5 -11.5q28 0 52.5 11.5t42.5 30.5t28 44t10 52zM380 397l25 -25l-36 -37q36 -42 36 -102t-36 -102l36 -37l-25 -25l-36 37
q-21 -17 -47 -27t-55 -10t-55.5 10t-47.5 27l-36 -37l-25 25l36 37q-17 20 -26.5 46.5t-9.5 55.5t9.5 55.5t26.5 46.5l-36 37l25 25l36 -37q21 17 47.5 27t55.5 10t55 -10t47 -27z" />
    <glyph glyph-name="quotedblleft" unicode="&#x201c;" horiz-adv-x="389" 
d="M311 352q0 20 19 47t43 51t46.5 41t28.5 17q5 0 5 -5q0 -3 -3 -5.5t-14 -10.5q-29 -21 -46.5 -41.5t-18.5 -40.5q-1 -25 -3.5 -40.5t-7 -24.5t-11.5 -12.5t-17 -3.5q-11 0 -16 8.5t-5 19.5zM163 352q0 20 19 47t43 51t46.5 41t28.5 17q5 0 5 -5q0 -3 -3 -5.5t-14 -10.5
q-29 -21 -46.5 -41.5t-18.5 -40.5q-1 -25 -3.5 -40.5t-7 -24.5t-11.5 -12.5t-17 -3.5q-11 0 -16 8.5t-5 19.5z" />
    <glyph glyph-name="guilsinglleft" unicode="&#x2039;" horiz-adv-x="278" 
d="M77 145q18 12 39 29t53 43q15 12 23.5 19.5t13.5 12t7.5 6t4.5 1.5q5 0 5 -4q0 -5 -10 -17.5t-24.5 -29t-30.5 -34.5t-28 -32q8 -17 16 -35t14.5 -33t10.5 -26.5t4 -15.5q0 -7 -5 -7q-3 0 -5.5 2.5t-7 9.5t-13.5 19t-25 31q-12 14 -21.5 26t-20.5 26v9z" />
    <glyph glyph-name="guilsinglright" unicode="&#x203a;" horiz-adv-x="278" 
d="M245 133q-18 -12 -39 -29t-53 -43q-15 -12 -23.5 -19.5t-13.5 -12t-7.5 -6t-4.5 -1.5q-5 0 -5 4t10 17t24.5 29.5t30.5 34.5t28 32q-8 17 -16 35t-14.5 33t-10.5 26t-4 16q0 7 5 7q3 0 5.5 -2.5t7 -9.5t13.5 -19t25 -31q12 -14 21.5 -26t20.5 -26v-9z" />
    <glyph glyph-name="endash" unicode="&#x2013;" 
d="M512 120h-500l12 38h500z" />
    <glyph glyph-name="dagger" unicode="&#x2020;" 
d="M83 -156l147 287q19 36 29.5 62.5t16 45t7 31t1.5 20.5q31 27 52.5 66t43.5 82h-46q-18 0 -32 -4.5t-26 -10.5t-24 -10.5t-26 -4.5q-11 0 -22.5 9.5t-11.5 25.5q0 17 10 29t28 12q9 0 19 -4.5t22 -10.5t27.5 -10.5t36.5 -4.5h53q8 16 16 29t14 27.5t10 32t4 43.5t11.5 41
t32.5 15q17 0 26.5 -9.5t9.5 -32.5q0 -11 -6.5 -16.5t-16.5 -12.5t-22.5 -19t-25.5 -36l-33 -62h32q27 0 46.5 4t33.5 9t23.5 9t16.5 4q15 0 26.5 -10t11.5 -26q0 -13 -9 -24.5t-24 -11.5q-11 0 -20.5 4.5t-23.5 10.5t-37 10.5t-61 4.5h-22q-14 -29 -30.5 -65t-16.5 -77
q0 -2 -4 -4t-11.5 -9.5t-18.5 -22t-24 -40.5l-195 -376h-18z" />
    <glyph glyph-name="daggerdbl" unicode="&#x2021;" 
d="M214 22q-12 -23 -19.5 -39.5t-12 -30.5t-6.5 -28t-2 -30q0 -30 -14.5 -41t-28.5 -11t-23.5 9.5t-9.5 26.5q0 12 7 20.5t18 18.5t24.5 25t26.5 40l20 40h-45q-15 0 -27.5 -4.5t-24.5 -9.5t-24.5 -9.5t-26.5 -4.5q-20 0 -29.5 11t-9.5 22q0 21 11 30t28 9q13 0 23 -4.5
t23 -9.5t32.5 -9.5t51.5 -4.5h26q19 37 31 63t19.5 46.5t11 38.5t6.5 40q18 11 37.5 40t37.5 63t33.5 66.5t25.5 50.5h-45q-15 0 -27.5 -4.5t-24.5 -9.5t-24.5 -9.5t-26.5 -4.5q-20 0 -29.5 11t-9.5 22q0 21 11 30t28 9q13 0 23 -4.5t23 -9.5t32.5 -9.5t51.5 -4.5h26
q12 24 19 40.5t11 30.5t6 27.5t4 30.5q2 20 11 35.5t32 15.5q15 0 24 -11.5t9 -25.5t-7.5 -24t-18.5 -20.5t-23.5 -22.5t-21.5 -30l-25 -46h28q29 0 50 4t36 9t25 9t17 4q16 0 28 -9.5t12 -25.5t-7.5 -25.5t-24.5 -9.5q-10 0 -22 4.5t-27 9.5t-35 9.5t-46 4.5h-42
q-31 -59 -48 -93.5t-25 -56.5t-9.5 -36.5t-1.5 -32.5q-21 -22 -36 -42t-28 -41.5t-25.5 -47t-28.5 -58.5h28q29 0 50 4t36 9t25 9t17 4q16 0 28 -9.5t12 -25.5t-7.5 -25.5t-24.5 -9.5q-10 0 -22 4.5t-27 9.5t-35 9.5t-46 4.5h-42z" />
    <glyph glyph-name="periodcentered" unicode="&#xb7;" horiz-adv-x="222" 
d="M115 106q-13 0 -21 10.5t-8 22.5t8 22.5t21 10.5t21 -10.5t8 -22.5t-8 -22.5t-21 -10.5z" />
    <glyph glyph-name="paragraph" unicode="&#xb6;" horiz-adv-x="600" 
d="M782 620q-29 -2 -47 -4.5t-29.5 -7t-18 -13t-12.5 -21.5l-353 -732h-40l371 770h-79l-371 -770h-40l188 389q-68 0 -101.5 30.5t-33.5 83.5q0 62 28.5 116t75 94.5t107 63.5t125.5 23h240z" />
    <glyph glyph-name="bullet" unicode="&#x2022;" 
d="M180 346q0 36 13.5 67.5t37 55t55 37t67.5 13.5t67.5 -13.5t55 -37t37 -55t13.5 -67.5t-13.5 -67.5t-37 -55t-55 -37t-67.5 -13.5t-67.5 13.5t-55 37t-37 55t-13.5 67.5z" />
    <glyph glyph-name="quotesinglbase" unicode="&#x201a;" horiz-adv-x="222" 
d="M140 44q0 -20 -19 -47t-43 -51t-46.5 -41t-28.5 -17q-5 0 -5 5q0 3 3 5.5t14 10.5q29 21 46.5 41.5t18.5 40.5q1 49 10 65t29 16q11 0 16 -8.5t5 -19.5z" />
    <glyph glyph-name="quotedblbase" unicode="&#x201e;" horiz-adv-x="389" 
d="M128 44q0 -20 -19 -47t-43 -51t-46.5 -41t-28.5 -17q-5 0 -5 5q0 3 3 5.5t14 10.5q29 21 46.5 41.5t18.5 40.5q1 49 10 65t29 16q11 0 16 -8.5t5 -19.5zM276 44q0 -20 -19 -47t-43 -51t-46.5 -41t-28.5 -17q-5 0 -5 5q0 3 3 5.5t14 10.5q29 21 46.5 41.5t18.5 40.5
q1 49 10 65t29 16q11 0 16 -8.5t5 -19.5z" />
    <glyph glyph-name="quotedblright" unicode="&#x201d;" horiz-adv-x="872" 
d="M700 482q0 -20 -19 -47t-43 -51t-46.5 -41t-28.5 -17q-5 0 -5 5q0 3 3 5.5t14 10.5q29 21 46.5 41.5t18.5 40.5q1 49 10 65t29 16q11 0 16 -8.5t5 -19.5zM848 482q0 -20 -19 -47t-43 -51t-46.5 -41t-28.5 -17q-5 0 -5 5q0 3 3 5.5t14 10.5q29 21 46.5 41.5t18.5 40.5
q1 49 10 65t29 16q11 0 16 -8.5t5 -19.5z" />
    <glyph glyph-name="guillemotright" unicode="&#xbb;" horiz-adv-x="424" 
d="M261 184q0 -52 -61 -99q-53 -41 -108 -52l-4 12q35 8 74 35q48 31 48 60q0 8 -6.5 16t-6.5 21q0 40 34 40q30 0 30 -33zM401 190q0 -52 -61 -99q-53 -41 -108 -52l-4 12q35 8 74 35q48 31 48 60q0 8 -6.5 16t-6.5 21q0 40 34 40q30 0 30 -33z" />
    <glyph glyph-name="grave" unicode="`" horiz-adv-x="222" 
d="M101 492q15 0 21.5 -9.5t10.5 -24.5t9.5 -34t18.5 -37q7 -11 17 -20t18 -16t14 -11.5t6 -7.5q0 -4 -5 -4q-8 0 -29.5 15.5t-44.5 37.5t-41 46.5t-18 42.5q0 7 6 14.5t17 7.5z" />
    <glyph glyph-name="emdash" unicode="&#x2014;" horiz-adv-x="1000" 
d="M1012 120h-1000l12 38h1000z" />
    <glyph glyph-name="registered" unicode="&#xae;" horiz-adv-x="800" 
d="M434 346h58q38 0 60.5 25t22.5 71q0 22 -7.5 37t-20 24.5t-28 14t-31.5 4.5h-54v-176zM333 538h173q22 0 44 -5.5t39 -16.5t27.5 -28t10.5 -41q0 -42 -24.5 -70t-59.5 -39l59 -81q23 -29 46 -54t38 -33v-8h-49q-11 0 -22.5 11t-27.5 32t-37.5 52.5t-51.5 72.5h-64v-100
q0 -19 0.5 -28.5t5 -14t15.5 -6t31 -3.5v-16h-153v16q20 2 30.5 3.5t15 6t5 14t0.5 28.5v241q0 19 -0.5 29t-5 15t-15 6.5t-30.5 3.5v13zM496 24q62 0 118 26t98 70.5t67 102.5t25 122q0 65 -24.5 123.5t-66.5 103t-98 70.5t-119 26q-62 0 -118 -26.5t-98 -70.5t-67 -103
t-25 -123t25 -122t67 -102.5t98 -70.5t118 -26zM152 345q0 73 27 137t73.5 112t109.5 76t134 28q72 0 134.5 -27.5t109 -75.5t73.5 -112.5t27 -137.5q0 -72 -27 -136t-73.5 -111.5t-109 -75.5t-134.5 -28q-71 0 -134 28t-109.5 75.5t-73.5 111.5t-27 136z" />
    <glyph glyph-name="plusminus" unicode="&#xb1;" horiz-adv-x="400" 
d="M74 30h278v-30h-278v30zM198 278h30v-100h124v-30h-124v-100h-30v100h-124v30h124v100z" />
    <glyph glyph-name="copyright" unicode="&#xa9;" horiz-adv-x="800" 
d="M667 257l-16 -69q0 -9 -7 -12.5t-19 -7.5q-16 -5 -43.5 -10.5t-64.5 -5.5q-42 0 -81 10.5t-68.5 34.5t-47.5 62.5t-18 94.5q0 32 13.5 67t41.5 64t69 48t97 19q40 0 63 -6.5t43 -13.5q23 -7 23 -21v-71h-16q-1 19 -7 36.5t-19.5 30.5t-36 21t-55.5 8q-40 0 -70 -13.5
t-50 -37t-30 -56t-10 -71.5q-1 -85 40.5 -137.5t128.5 -52.5q28 0 48.5 7t35.5 19.5t25 28.5t17 34h14zM496 24q62 0 118 26t98 70.5t67 102.5t25 122q0 65 -24.5 123.5t-66.5 103t-98 70.5t-119 26q-62 0 -118 -26.5t-98 -70.5t-67 -103t-25 -123t25 -122t67 -102.5
t98 -70.5t118 -26zM152 345q0 73 27 137t73.5 112t109.5 76t134 28q72 0 134.5 -27.5t109 -75.5t73.5 -112.5t27 -137.5q0 -72 -27 -136t-73.5 -111.5t-109 -75.5t-134.5 -28q-71 0 -134 28t-109.5 75.5t-73.5 111.5t-27 136z" />
    <glyph glyph-name="logicalnot" unicode="&#xac;" horiz-adv-x="400" 
d="M322 178h-248v30h278v-138h-30v108z" />
    <glyph glyph-name="trademark" unicode="&#x2122;" horiz-adv-x="990" 
d="M399 373q0 -20 0.5 -30.5t5 -15.5t14.5 -6.5t29 -4.5v-16h-142v16q19 3 29 4.5t14.5 6.5t5 15.5t0.5 30.5v303h-62q-30 0 -44.5 -21t-22.5 -49h-12v86h326v-86h-12q-8 28 -22 49t-45 21h-62v-303zM676 602h-2v-224q0 -30 9.5 -44t41.5 -18v-16h-122v16q32 4 40.5 18
t8.5 44v251q-6 21 -24.5 34t-39.5 13v16h94l164 -328l163 328h83v-16q-31 -2 -44 -16.5t-13 -40.5v-246q0 -20 0.5 -30.5t5 -15.5t14.5 -6.5t29 -4.5v-16h-141v16q19 3 29 4.5t14 6.5t4.5 15.5t0.5 30.5v232h-2l-154 -309h-9z" />
    <glyph glyph-name="degree" unicode="&#xb0;" horiz-adv-x="300" 
d="M182 394q0 -25 17 -43.5t42 -18.5t42 18.5t17 43.5t-17 43.5t-42 18.5t-42 -18.5t-17 -43.5zM162 394q0 33 23 55.5t56 22.5t56 -22.5t23 -55.5t-23 -55.5t-56 -22.5t-56 22.5t-23 55.5z" />
    <glyph glyph-name="brokenbar" unicode="&#xa6;" horiz-adv-x="222" 
d="M148 675h30v-350h-30v350zM148 175h30v-350h-30v350z" />
    <glyph glyph-name="nonbreakingspace" horiz-adv-x="194" 
 />
    <glyph glyph-name="Euro" unicode="&#x20ac;" horiz-adv-x="389" 
d="M192 262q-6 -12 -10.5 -24t-9.5 -24h132q6 0 6 -8t-6 -8h-138q-25 -73 -25 -123q0 -27 12.5 -47t41.5 -20q26 0 48 10t40.5 25.5t33.5 34.5t27 37q1 2 2.5 4t3.5 2q6 0 6 -5q0 -3 -3 -7q-16 -23 -33 -44t-36.5 -36.5t-42.5 -24.5t-50 -9q-24 0 -41 9t-28 24.5t-16.5 35.5
t-5.5 41t4 44.5t12 48.5h-35q-6 0 -6 8t6 8h40q5 12 9.5 24t10.5 24h-47q-6 0 -6 8t6 8h55q20 38 46 73t56 62t63 43t67 16q19 0 32.5 -6t22 -15t12.5 -20.5t4 -22.5q0 -17 -9.5 -29.5t-24.5 -12.5q-29 0 -29 27q0 9 4 14t9 9t9 8.5t4 13.5q0 12 -11.5 17t-19.5 5
q-26 0 -51.5 -15t-49 -40t-44.5 -58t-39 -69h141q6 0 6 -8t-6 -8h-149z" />
    <glyph glyph-name="afii10017" unicode="&#x410;" horiz-adv-x="877" 
d="M995 184l-4 -5q-9 -10 -18 -19.5t-17 -20.5q-26 -29 -47 -47.5t-41.5 -29.5t-42.5 -15.5t-49 -4.5l-18 -26q-10 -15 -18 -15q-9 0 -20.5 12.5t-11.5 22.5q0 6 4 13q-43 8 -80.5 25.5t-72.5 47.5q-94 -65 -178.5 -99.5t-152.5 -34.5q-32 0 -58.5 8t-46 22.5t-30.5 34.5
t-11 44q0 25 12.5 42t30.5 17q13 0 21 -8t8 -20q0 -22 -25 -38l-8 -4q-8 -5 -10 -8t-2 -8q0 -14 9.5 -27t26 -23t38.5 -16t46 -6q25 0 49 4t50 12t55.5 21.5t64.5 33.5q37 20 59 34t42 29q-43 44 -62 85.5t-19 92.5q0 29 9 54t25 43.5t37.5 29t47.5 10.5q54 0 96 -39
t68 -114q49 43 91.5 82t86.5 82.5t94 94.5t113 117l9 10q5 5 11 9.5t8 4.5q7 0 15 -12.5t8 -23.5q0 -6 -1 -11.5t-6 -14.5t-14.5 -24t-26.5 -41q-13 -20 -36 -53.5t-51.5 -75.5t-62 -91t-68.5 -99.5t-70 -100.5t-67 -95h10q20 0 37 4.5t34.5 15t36.5 28t43 43.5
q19 21 26.5 29.5t16.5 17.5zM1108 624q-44 -47 -85 -89t-83.5 -83.5t-87.5 -83.5t-96 -88q7 -29 9.5 -49.5t2.5 -43.5q0 -17 -1.5 -30t-4.5 -29l16 21l63 90q20 26 39.5 53t40.5 54q53 70 97.5 129.5t76.5 103.5t50 70t18 29q0 2 -2 2q-1 0 -4 -3l-6 -7l-6 -6t-6 -7z
M737 282q-23 71 -64.5 111.5t-93.5 40.5q-19 0 -35.5 -8t-29 -21.5t-19.5 -31.5t-7 -39q0 -49 21.5 -97t61.5 -90q20 14 44 32.5t47 37.5t43 36t32 29zM738 92q9 26 12.5 45.5t3.5 43.5q0 41 -13 87q-14 -14 -35 -31.5t-43.5 -35.5t-44.5 -34.5t-39 -28.5q35 -32 72 -53
t67 -25z" />
    <glyph glyph-name="afii10018" unicode="&#x411;" horiz-adv-x="910" 
d="M1079 597q-37 -13 -67.5 -31.5t-60 -48.5t-61 -74t-69.5 -107q-28 -45 -52 -79.5t-48 -61.5t-50 -49.5t-58 -44.5q-78 -54 -162 -81.5t-171 -27.5q-85 0 -131.5 29t-46.5 83q0 23 10.5 37t27.5 14q12 0 19.5 -7.5t7.5 -20.5q0 -20 -25 -38q-8 -5 -11 -9.5t-3 -9.5
q0 -11 10.5 -23.5t27.5 -22.5q38 -22 111 -22q150 0 278 101q21 17 37.5 32t35 36t42.5 53.5t62 83.5q77 112 164.5 187.5t179.5 109.5zM1392 665q-20 -14 -46.5 -25.5t-57 -20t-63.5 -13t-65 -4.5q-14 0 -27 0.5t-31 2.5t-44.5 5.5t-67.5 9.5q-49 7 -86 11.5t-67 7.5
t-54.5 4t-48.5 1q-92 0 -163 -20.5t-130 -63.5q-50 -36 -77.5 -78.5t-27.5 -80.5q0 -45 35 -72.5t92 -27.5t112 21t105 62q32 26 46.5 49.5t14.5 49.5t-23 43t-59 17q-60 0 -126.5 -29.5t-117.5 -77.5l-6 8q49 54 111.5 82.5t130.5 28.5q47 0 74 -20.5t27 -55.5t-24.5 -70
t-64 -62.5t-89 -44.5t-99.5 -17q-33 0 -60 8.5t-47 24.5t-31 37t-11 47q0 53 44.5 107.5t121.5 96.5q133 72 327 72q27 0 50 -1t48 -3.5t55.5 -6.5t72.5 -11l73.5 -10.5t55.5 -7.5t42.5 -4t34.5 -1q38 0 69.5 9.5t66.5 32.5zM935 325q59 -41 59 -102q0 -57 -37.5 -108.5
t-104.5 -87.5q-62 -33 -105 -33q-26 0 -40.5 12t-14.5 33q0 32 19 66.5t50.5 64.5t71.5 51.5t82 29.5v-9q-41 -9 -79.5 -31t-68.5 -50.5t-48 -60.5t-18 -61q0 -16 9.5 -25t26.5 -9q49 0 123 83q95 107 95 181q0 37 -28 49q-26 -5 -36.5 -7t-18.5 -2q-11 0 -22.5 5.5
t-11.5 10.5t11 10.5t22 5.5q8 0 17 -1.5t47 -14.5z" />
    <glyph glyph-name="afii10019" unicode="&#x412;" horiz-adv-x="927" 
d="M1125 616q-61 -3 -104 -31q25 -31 35 -55t10 -53q0 -113 -153 -155q56 -38 56 -99q0 -57 -37.5 -108.5t-104.5 -87.5q-62 -33 -105 -33q-26 0 -40.5 12t-14.5 33q0 32 19 66.5t50.5 64.5t71.5 51.5t82 29.5v-9q-41 -9 -79.5 -31t-68.5 -50.5t-48 -60.5t-18 -61
q0 -16 9.5 -25t26.5 -9q49 0 123 83q95 107 95 181q0 37 -28 49q-26 -5 -36.5 -7t-18.5 -2q-11 0 -22.5 5.5t-11.5 10.5t11 10.5t22 5.5q8 0 17 -1.5t37 -8.5q26 14 49 36t40 48t26.5 54t9.5 54q0 29 -16 54q-35 -25 -78 -75t-88 -120q-39 -58 -71 -101t-61 -76t-57.5 -58
t-61.5 -47q-75 -50 -160.5 -78.5t-162.5 -28.5q-79 0 -122.5 28t-43.5 79q0 23 11.5 38.5t28.5 15.5q12 0 19.5 -7t7.5 -19q0 -20 -21 -35l-9 -6q-12 -8 -12 -20q0 -14 10.5 -25.5t28.5 -20.5t42.5 -14t52.5 -5q71 0 142.5 27t131.5 76q35 29 75.5 73.5t87.5 104.5
q48 64 86.5 110t73 80.5t69 61.5t75.5 53q-43 41 -95 59.5t-126 18.5q-85 0 -166.5 -23.5t-145 -62t-102.5 -88t-39 -100.5q0 -45 34 -73.5t89 -28.5q50 0 101.5 16t93 41.5t67.5 57.5t26 63q0 29 -25.5 48t-65.5 19q-20 0 -42 -3.5t-45 -10t-45 -15.5t-41 -20t-35.5 -24
t-36.5 -32l-6 5q20 25 47.5 46t59.5 35t66.5 22t69.5 8q48 0 78.5 -22.5t30.5 -58.5t-24.5 -70t-65 -61t-91.5 -43.5t-103 -16.5q-66 0 -107 32.5t-41 86.5q0 47 28 94t79 88q65 51 149.5 77.5t183.5 26.5q88 0 148.5 -20.5t106.5 -65.5q30 17 55 23.5t57 8.5v-9z" />
    <glyph glyph-name="afii10020" unicode="&#x413;" horiz-adv-x="720" 
d="M1079 597q-37 -13 -67.5 -31.5t-60 -48.5t-61 -74t-69.5 -107q-28 -45 -52 -79.5t-48 -61.5t-50 -49.5t-58 -44.5q-78 -54 -162 -81.5t-171 -27.5q-85 0 -131.5 29t-46.5 83q0 23 10.5 37t27.5 14q12 0 19.5 -7.5t7.5 -20.5q0 -20 -25 -38q-8 -5 -11 -9.5t-3 -9.5
q0 -11 10.5 -23.5t27.5 -22.5q38 -22 111 -22q150 0 278 101q21 17 37.5 32t35 36t42.5 53.5t62 83.5q77 112 164.5 187.5t179.5 109.5zM1392 665q-20 -14 -46.5 -25.5t-57 -20t-63.5 -13t-65 -4.5q-14 0 -27 0.5t-31 2.5t-44.5 5.5t-67.5 9.5q-49 7 -86 11.5t-67 7.5
t-54.5 4t-48.5 1q-92 0 -163 -20.5t-130 -63.5q-50 -36 -77.5 -78.5t-27.5 -80.5q0 -45 35 -72.5t92 -27.5t112 21t105 62q32 26 46.5 49.5t14.5 49.5t-23 43t-59 17q-60 0 -126.5 -29.5t-117.5 -77.5l-6 8q49 54 111.5 82.5t130.5 28.5q47 0 74 -20.5t27 -55.5t-24.5 -70
t-64 -62.5t-89 -44.5t-99.5 -17q-33 0 -60 8.5t-47 24.5t-31 37t-11 47q0 53 44.5 107.5t121.5 96.5q133 72 327 72q27 0 50 -1t48 -3.5t55.5 -6.5t72.5 -11l73.5 -10.5t55.5 -7.5t42.5 -4t34.5 -1q38 0 69.5 9.5t66.5 32.5z" />
    <glyph glyph-name="afii10021" unicode="&#x414;" horiz-adv-x="843" 
d="M1079 583q-33 -8 -61 -22t-60 -38q11 -33 15 -54t4 -48q0 -85 -35 -161.5t-94 -134.5t-137 -92t-164 -34q-23 0 -60 2.5t-103 8.5q-55 -8 -91 -11t-65 -3q-56 0 -91 11t-35 28q0 12 19 19t51 7q17 0 40.5 -2t50 -6t53 -9t49.5 -11l10 -2q13 -4 22 -4q14 0 35 7t44.5 18
t46.5 26t42 31q10 9 23 22.5t27 30t28 35.5t27 37l21 29q33 48 62 85t58.5 67.5t62 57.5t71.5 55q-30 64 -93 101t-141 37q-77 0 -152.5 -26.5t-135.5 -69.5t-97 -97.5t-37 -109.5q0 -23 10 -42t28 -32.5t42.5 -21.5t53.5 -8q92 0 182 69q47 35 73.5 74.5t26.5 73.5
q0 29 -25 48.5t-60 19.5q-42 0 -90 -17.5t-89 -46.5q-28 -20 -44 -38.5t-31 -49.5l-8 2q14 38 37.5 64.5t64.5 52.5q35 22 75.5 34t77.5 12q21 0 40 -7t33.5 -19t22.5 -28.5t8 -35.5q0 -40 -25.5 -79.5t-66 -71t-91.5 -51.5t-102 -20q-34 0 -63.5 10.5t-51 28.5t-33.5 42.5
t-12 53.5q0 59 38 119.5t102 105.5q56 39 121.5 59.5t136.5 20.5q101 0 174 -39t109 -112q71 49 125 60zM769 268q-57 -97 -140.5 -156t-204.5 -89q27 -4 46 -7t34 -4.5t27 -2t25 -0.5q40 0 82.5 11.5t83 32t77.5 50t67 65.5q22 28 41 60.5t32.5 66.5t21 67.5t7.5 62.5
q0 24 -4.5 46t-13.5 45q-9 -7 -25.5 -25.5t-36 -44t-40 -55.5t-38.5 -60zM348 15q-30 6 -61 12t-59.5 10.5t-51.5 7t-35 2.5q-28 0 -28 -11q0 -13 31.5 -21t78.5 -8q27 0 57 1.5t68 6.5z" />
    <glyph glyph-name="afii10022" unicode="&#x415;" horiz-adv-x="686" 
d="M749 682q-30 11 -55.5 15t-60.5 4q-99 0 -166 -38q-41 -23 -65 -56.5t-24 -68.5q0 -45 41.5 -70.5t116.5 -25.5q13 0 22 0.5t19.5 1.5t25.5 3.5t39 7.5q-2 8 -2 12.5v11.5q0 100 114 161q16 9 35.5 16.5t39 13t37.5 8.5t33 3q35 0 35 -30q0 -22 -21.5 -52t-57.5 -59
q-35 -27 -81 -49.5t-100 -37.5q-4 -12 -5 -17t-1 -18q23 0 40 -9t17 -21q0 -10 -16 -10q-28 0 -49 30q-62 -2 -113 -21t-105 -60q-63 -49 -100.5 -112t-37.5 -122q0 -44 32 -71.5t82 -27.5q63 0 130 33.5t122 91.5q68 74 68 130q0 29 -21 47.5t-54 18.5q-47 0 -100.5 -28.5
t-95.5 -74.5q-28 -32 -41.5 -62.5t-15.5 -71.5h-8q-1 8 -1 13.5v9.5q0 40 23 80t59.5 72t82 52.5t90.5 20.5q41 0 67 -21.5t26 -54.5q0 -48 -28.5 -95t-74.5 -85t-103 -61.5t-115 -23.5q-38 0 -69.5 11.5t-54 32.5t-35 50t-12.5 65q0 57 30 106t83.5 85.5t126 58.5t157.5 24
q-4 9 -5.5 13t-4.5 14q-35 -7 -61.5 -10t-56.5 -3q-84 0 -125 34q-43 34 -43 80q0 36 20 67t55 53t83.5 34.5t105.5 12.5q72 0 129 -22zM677 465q46 13 90.5 35.5t80 49t57 54t21.5 50.5q0 18 -19 18q-14 0 -34.5 -8.5t-43.5 -23.5t-47 -35.5t-46 -44.5q-23 -26 -36.5 -47
t-22.5 -48z" />
    <glyph glyph-name="afii10024" unicode="&#x416;" horiz-adv-x="1257" 
d="M977 358l29 25q64 54 107.5 89t78 57t65 35t51.5 26l8 -4q-13 -8 -23.5 -17t-21 -21.5t-23.5 -31t-31 -47.5l-85 -131q-147 -239 -264 -287q49 15 107.5 58t148.5 122l229 196q51 52 111 101q172 139 232 135q57 -4 53 -56q-2 -22 -20.5 -39t-40.5 -15q-29 2 -27 28
q2 22 34.5 25.5t33.5 18.5q2 23 -30 26q-57 4 -178 -116q-45 -46 -132 -149l-89 -115q-91 -117 -132 -175.5t-41 -69.5q0 -8 6.5 -12.5t17.5 -4.5q37 0 93 48l23 23q8 8 18 19t24 26l58 65l7 -6l-58 -66q-57 -64 -94.5 -91t-69.5 -27q-41 0 -41 41q0 25 13.5 60.5t37.5 76.5
t57 86t88 110q1 2 3 4l-172 -149q-62 -54 -105.5 -89t-78 -57t-58.5 -30t-45 -12l-17 5q17 8 31 17t30 26t38 47t57 80l77 113q35 49 63.5 85t52.5 64t46 49.5t45 38.5q-45 -20 -103.5 -63t-148.5 -122l-70 -64q-89 -104 -137.5 -151t-108.5 -81q-75 -46 -155.5 -67
t-160.5 -17q-82 3 -128.5 35t-45.5 84q2 24 14 39.5t29 14.5q13 0 21 -8t7 -21q-1 -11 -7 -19t-23 -18q-13 -7 -14 -18q0 -16 10.5 -30t31 -24.5t48 -17t59.5 -8.5q98 -4 183 34t176 123q80 79 116 121t89 130.5t37.5 155.5t-73.5 76q-62 8 -129.5 -11t-123 -57.5t-94 -91
t-45.5 -109.5q-8 -52 17 -88t72 -42q43 -5 90.5 9.5t86.5 42.5t66 65.5t33 76.5q3 30 -15 51.5t-51 25.5q-25 3 -55.5 -3.5t-61.5 -21t-61.5 -37t-53.5 -48.5l-6 6q21 28 49.5 51t61.5 39t67.5 23t64.5 4q36 -5 57 -32.5t16 -64.5q-6 -44 -32.5 -84t-66 -68.5t-87 -43.5
t-94.5 -8q-57 7 -86.5 49.5t-21.5 105.5q7 63 44.5 117.5t92.5 92.5t143.5 59.5t149 -0.5t78.5 -95q21 -80 -48 -205z" />
    <glyph glyph-name="afii10025" unicode="&#x417;" horiz-adv-x="704" 
d="M690 320q35 -34 29 -100t-61 -119q-57 -54 -132 -80q-81 -26 -162 -26q-42 0 -83 10q-42 10 -73 37q-36 31 -36 68q0 69 62 69q31 0 31 -31q0 -28 -30 -28t-30 28q0 1 0.5 4t1.5 5h-1q-23 -8 -23 -45q0 -34 38 -63q33 -24 72 -34q31 -7 60 -7q82 0 161 45q72 41 123 109
q44 60 44 101q0 28 -12 49q-37 -11 -60 -11q-65 0 -65 32q0 21 42 21q51 0 97 -29q51 20 169 125q-20 -4 -32 -5.5t-26 -0.5q-31 1 -54 19.5t-22 41.5q0 4 0.5 7t2 8.5t5 14.5t10.5 24q11 26 11 35q1 20 -22 34.5t-59 15.5q-40 2 -82.5 -7t-82.5 -25.5t-76.5 -40t-64 -51
t-44 -56.5t-18.5 -57q-1 -31 18 -50.5t53 -21.5q41 -1 84.5 13.5t80.5 39.5t64 58t35 69l7 -1v-6q-1 -34 -25.5 -68t-62.5 -60t-84.5 -41.5t-91.5 -13.5t-68 25t-21 63q1 28 13.5 56t34 54t51 48.5t65.5 38.5q50 22 107.5 34.5t102.5 10.5q29 -2 54 -10t43.5 -20.5t29 -28.5
t9.5 -34q-1 -11 -5 -23.5t-13 -32.5q-5 -11 -7 -17t-2 -11q0 -10 7.5 -17.5t18.5 -8.5q14 0 35.5 4.5t35.5 9.5q4 3 8 5.5t9.5 6.5t14 11.5t23.5 19.5l36 31q6 5 10 8.5t11.5 9t20.5 15.5t37 28q22 17 33 23.5t19 6.5q8 -1 13.5 -6.5t4.5 -13.5q-1 -31 -85 -87
q-15 -10 -25 -16t-21.5 -11.5t-28 -12.5t-43.5 -17q-9 -3 -17.5 -6.5t-17.5 -11t-14 -10.5q-15 -13 -56 -48.5t-109 -70.5zM665 320q-12 8 -38 17q-24 8 -42 8q-27 0 -27 -13q0 -21 52 -21q30 0 55 9z" />
    <glyph glyph-name="afii10026" unicode="&#x418;" horiz-adv-x="880" 
d="M998 184l-14 -16q-33 -36 -51.5 -56.5t-29.5 -32.5t-18.5 -18.5t-17.5 -15.5q-29 -23 -56 -37t-45 -14q-28 0 -28 40q0 22 3.5 42.5t13 42t25.5 47.5t41 60q-49 -50 -96.5 -92t-89.5 -72t-76 -47t-55 -17q-37 0 -37 57q0 61 43 122q7 11 14 19.5t24 28t50.5 55.5
t95.5 102q35 37 58.5 65.5t38 51.5t21 41.5t6.5 36.5q0 45 -41 73t-105 28q-72 0 -142 -23.5t-125.5 -62t-90 -87t-34.5 -97.5q0 -45 31.5 -73t82.5 -28q48 0 96.5 17.5t87.5 45.5t63.5 62.5t24.5 68.5q0 26 -22.5 42t-58.5 16q-28 0 -60 -9t-63.5 -24.5t-61 -37.5
t-52.5 -47l-6 5q18 26 46 48.5t61.5 39.5t69.5 26.5t69 9.5q41 0 66.5 -21t25.5 -53q0 -38 -23.5 -74.5t-62.5 -65t-88 -46t-100 -17.5q-63 0 -100.5 33t-37.5 87t33 104t87.5 88.5t125 62t146.5 23.5q87 0 133 -38.5t46 -111.5q0 -25 -7 -50t-22.5 -52.5t-41 -59
t-61.5 -70.5l-109 -118q-19 -20 -39 -44.5t-39 -49.5q-19 -27 -26 -41.5t-7 -28.5q0 -19 17 -19q13 0 34 9t48 25.5t58.5 39t63.5 49.5q121 103 245 266l192 254q10 14 13 16.5t8 2.5q9 0 16 -10t7 -24q0 -10 -4 -18.5t-16 -23.5l-242 -322q-33 -44 -54.5 -72t-35 -46.5
t-22 -29.5t-15.5 -21q-23 -34 -35.5 -56t-12.5 -32q0 -12 15 -12q12 0 33 10t44 27q10 8 22 19t28 27t36 37.5t46 51.5l14 15z" />
    <glyph glyph-name="afii10027" unicode="&#x419;" horiz-adv-x="880" 
d="M998 184l-14 -16q-33 -36 -51.5 -56.5t-29.5 -32.5t-18.5 -18.5t-17.5 -15.5q-29 -23 -56 -37t-45 -14q-28 0 -28 40q0 22 3.5 42.5t13 42t25.5 47.5t41 60q-49 -50 -96.5 -92t-89.5 -72t-76 -47t-55 -17q-37 0 -37 57q0 61 43 122q7 11 14 19.5t24 28t50.5 55.5
t95.5 102q35 37 58.5 65.5t38 51.5t21 41.5t6.5 36.5q0 45 -41 73t-105 28q-72 0 -142 -23.5t-125.5 -62t-90 -87t-34.5 -97.5q0 -45 31.5 -73t82.5 -28q48 0 96.5 17.5t87.5 45.5t63.5 62.5t24.5 68.5q0 26 -22.5 42t-58.5 16q-28 0 -60 -9t-63.5 -24.5t-61 -37.5
t-52.5 -47l-6 5q18 26 46 48.5t61.5 39.5t69.5 26.5t69 9.5q41 0 66.5 -21t25.5 -53q0 -38 -23.5 -74.5t-62.5 -65t-88 -46t-100 -17.5q-63 0 -100.5 33t-37.5 87t33 104t87.5 88.5t125 62t146.5 23.5q87 0 133 -38.5t46 -111.5q0 -25 -7 -50t-22.5 -52.5t-41 -59
t-61.5 -70.5l-109 -118q-19 -20 -39 -44.5t-39 -49.5q-19 -27 -26 -41.5t-7 -28.5q0 -19 17 -19q13 0 34 9t48 25.5t58.5 39t63.5 49.5q121 103 245 266l192 254q10 14 13 16.5t8 2.5q9 0 16 -10t7 -24q0 -10 -4 -18.5t-16 -23.5l-242 -322q-33 -44 -54.5 -72t-35 -46.5
t-22 -29.5t-15.5 -21q-23 -34 -35.5 -56t-12.5 -32q0 -12 15 -12q12 0 33 10t44 27q10 8 22 19t28 27t36 37.5t46 51.5l14 15zM1078 716q0 -32 -34 -51q-29 -17 -66 -17q-39 0 -66 18q-30 19 -30 54q0 20 15 36t36 16q31 2 34 -36q-2 -40 -51 -26q12 -29 33.5 -36.5
t36.5 -7.5q78 0 78 52q0 14 -9 25t-22 11h-4h-4q-5 0 -5 3q0 7 18 7q17 0 29 -17q11 -15 11 -31z" />
    <glyph glyph-name="afii10028" unicode="&#x41a;" horiz-adv-x="914" 
d="M1032 184l-14 -16q-34 -38 -53.5 -59.5t-32 -34t-21.5 -20t-22 -17.5q-47 -37 -74 -37q-18 0 -28.5 17.5t-10.5 47.5q0 28 8.5 48t31.5 49l13 16l26 33q17 22 27.5 36.5t16 25t7.5 19t2 18.5q0 16 -10 32q-11 -2 -17 -2.5t-11 -0.5q-13 0 -22.5 6.5t-9.5 15.5q0 11 20 11
q11 0 19 -3t22 -14l3 -2q14 3 25.5 9t25.5 18.5t31.5 33t43.5 52.5l25 31q66 85 144.5 132t152.5 47q43 0 72 -15t29 -38q0 -8 -7 -15t-16 -7q-21 0 -24 26l-1 10q-2 12 -17 20t-36 8q-96 0 -212 -132l-29 -34q-30 -35 -55.5 -60.5t-49 -44t-46.5 -30.5t-49 -21
q14 -23 20.5 -42.5t6.5 -39.5q0 -12 -2 -23t-7.5 -22.5t-14.5 -25t-23 -31.5l-41 -53q-15 -19 -24.5 -32t-15 -22.5t-7.5 -16.5t-2 -13q0 -13 15 -13q16 0 41 15t52 41q14 13 40.5 41t62.5 69l14 15zM1092 669q-31 -23 -57.5 -46.5t-53.5 -54t-57 -70.5t-69 -95l-55 -78
q-55 -80 -113.5 -140.5t-116.5 -97.5q-36 -23 -75.5 -41.5t-79.5 -31.5t-79.5 -20t-75.5 -7q-70 0 -113 31.5t-43 82.5q0 23 12 37.5t29 14.5q13 0 20.5 -8t7.5 -21q0 -23 -19 -33l-9 -4q-16 -9 -16 -20q0 -14 10.5 -26.5t28.5 -22t41.5 -15.5t49.5 -6q66 0 134 25t126 71
q36 28 77.5 71.5t79.5 94.5l57 77q25 34 48.5 62t52.5 58t68 65.5t95 85.5q-37 -26 -60.5 -41t-39 -23t-26.5 -10.5t-23 -2.5q-26 0 -46 16.5t-20 37.5q0 7 1.5 14t8.5 25q2 8 2 11q0 14 -18.5 24t-47.5 10q-139 0 -249 -95q-36 -32 -53 -59t-17 -56q0 -32 25 -54t63 -22
q33 0 67.5 13.5t63.5 35.5t49 50t25 57l8 -2q-2 -28 -13 -51t-34 -46q-31 -30 -74 -49t-82 -19q-48 0 -78.5 24.5t-30.5 63.5q0 33 17.5 67t52.5 66q94 87 238 87q30 0 55 -5.5t43 -15t28.5 -23t10.5 -28.5q0 -8 -7 -30q-4 -11 -4.5 -13.5t-0.5 -6.5q0 -6 8.5 -11.5
t16.5 -5.5q10 0 18 2t24.5 11.5t45.5 28.5t80 54q17 11 31 20.5t31 20.5z" />
    <glyph glyph-name="afii10029" unicode="&#x41b;" horiz-adv-x="877" 
d="M1124 681q5 -44 -15 -100t-65 -124l-175 -259q-108 -154 -108 -178q0 -5 3.5 -8.5t8.5 -3.5q18 0 50 21t65 54q8 8 14 14.5t14.5 15.5t21.5 23.5t34 38.5l14 15l7 -6l-13 -16q-30 -34 -47 -52.5t-27.5 -29.5t-17.5 -17.5t-17 -15.5q-30 -26 -55 -40t-42 -14t-29.5 15
t-12.5 37q0 15 5 32t16 39t28.5 49.5t42.5 62.5q286 346 288 433q-14 2 -24 -10l-15 -18q-11 -14 -37 -43t-56 -62.5t-59 -66t-48 -52.5q-50 -54 -104 -105.5t-106 -96.5t-99.5 -81.5t-85.5 -58.5q-66 -40 -126.5 -61t-109.5 -21q-57 0 -94 28.5t-37 73.5q0 23 12.5 38.5
t31.5 15.5q12 0 20.5 -8t8.5 -19q0 -10 -5.5 -20t-15.5 -16l-12 -8q-10 -7 -10 -17q0 -24 29 -40.5t73 -16.5q127 0 313.5 140t440.5 426l86 96q11 13 16 17t9 4q9 0 16 -4z" />
    <glyph glyph-name="afii10030" unicode="&#x41c;" horiz-adv-x="980" 
d="M1098 184l-13 -16q-30 -34 -47 -52.5t-27.5 -29.5t-17.5 -17.5t-17 -15.5q-30 -26 -55 -40t-42 -14t-29.5 15t-12.5 37q0 15 5 32t16 39t28.5 49.5t42.5 62.5l270 377q7 9 13.5 19t11.5 18l4 7q4 5 4 11q0 4 -5 4q-1 0 -2 -0.5t-4 -4.5t-9.5 -12t-17.5 -23l-6 -8
q-52 -70 -111 -146t-116 -145.5t-107 -128t-84 -92.5q-23 -24 -45 -44.5t-40 -35t-30.5 -23t-18.5 -8.5q-11 0 -19.5 11.5t-8.5 25.5q0 39 69 128l292 368q48 60 72.5 95t24.5 43q0 5 -5 5q-2 0 -5 -3t-13 -15l-15 -18q-11 -14 -37 -43t-56 -62.5t-59 -66t-48 -52.5
q-50 -54 -104 -105.5t-106 -96.5t-99.5 -81.5t-85.5 -58.5q-66 -40 -126.5 -61t-109.5 -21q-57 0 -94 28.5t-37 73.5q0 23 12.5 38.5t31.5 15.5q12 0 20.5 -8t8.5 -19q0 -10 -5.5 -20t-15.5 -16l-12 -8q-10 -7 -10 -17q0 -24 29 -40.5t73 -16.5q127 0 313.5 140t440.5 426
l86 96q11 13 16 17t9 4q9 0 18 -13.5t9 -27.5q0 -19 -11 -41t-40 -63q-32 -44 -49.5 -69t-30.5 -42.5t-25 -32.5t-31 -40l-233 -293q-20 -25 -27.5 -36t-7.5 -14t3 -3q8 0 39.5 27t73.5 70q29 30 72.5 79t92.5 108t99.5 121.5t94.5 119.5l41 55l42 55q17 23 23.5 29.5
t12.5 6.5q8 0 18 -14t10 -26q0 -14 -7 -30.5t-28 -52.5q-15 -24 -32.5 -51t-31.5 -47l-184 -262q-108 -154 -108 -178q0 -5 3.5 -8.5t8.5 -3.5q18 0 50 21t65 54q8 8 14 14.5t14.5 15.5t21.5 23.5t34 38.5l14 15z" />
    <glyph glyph-name="afii10031" unicode="&#x41d;" horiz-adv-x="877" 
d="M995 184l-58 -66q-57 -64 -94.5 -91t-69.5 -27q-41 0 -41 41q0 25 13.5 60.5t37.5 76.5t57 86t72 88q-21 -4 -35 -6.5t-34 -4.5q-11 -2 -21.5 -3t-21.5 -3l-20 -3l-36 -49q-90 -126 -197.5 -195.5t-246.5 -91.5q-5 -23 -7 -41.5t-2 -38.5q0 -41 11.5 -76.5t31.5 -61.5
t47 -41t59 -15q30 0 61 17l6 -9q-20 -10 -36 -14t-34 -4q-32 0 -61 15.5t-50.5 42t-34 62t-12.5 74.5q0 21 2.5 41.5t7.5 47.5q-13 -1 -22 -1h-19q-81 0 -127 29t-46 80q0 23 11 37.5t29 14.5q11 0 19 -7t8 -18q0 -21 -26 -40l-7 -5q-10 -7 -10 -15q0 -12 12 -24t31 -21
t43.5 -14.5t50.5 -5.5q11 0 22.5 0.5t32.5 2.5q25 71 61 124.5t86 92.5t117 65t154 43l32 40q28 33 52 60t48.5 52t53 50.5t64.5 56.5q7 7 11 10q-38 -26 -61.5 -41.5t-39.5 -23.5t-27.5 -10.5t-25.5 -2.5q-25 0 -42 15t-17 37q0 13 6 27l4 10q5 12 5 14q0 15 -22 26t-51 11
q-59 0 -118.5 -20t-110.5 -58q-93 -69 -93 -132q0 -32 22.5 -52.5t57.5 -20.5t70 12t65 32t52 46.5t31 55.5l6 -2v-3q0 -30 -27 -64t-70 -58q-56 -31 -117 -31q-47 0 -74.5 24.5t-27.5 65.5q0 54 52 109q50 53 116 79.5t145 26.5q30 0 56.5 -5.5t45.5 -14.5t30 -22t11 -28
q0 -10 -8 -31l-5 -12q-3 -8 -3 -14q0 -12 15 -12q11 0 22.5 3t25.5 10t32.5 19t44.5 30q24 18 41 29.5t29.5 19.5t22.5 13t21 10l5 -7q-32 -23 -61 -49t-60.5 -63t-68.5 -87t-85 -119q39 5 61 8t34.5 5t20 3.5l17.5 3.5q40 46 66 75t44.5 48.5t33.5 34.5t35 34q62 58 101 83
t70 25t31 -34q0 -33 -30.5 -75.5t-85.5 -84.5q-19 -15 -38.5 -27.5t-41.5 -24t-48.5 -23t-59.5 -23.5l-78 -101q-91 -117 -132 -175.5t-41 -69.5q0 -8 6.5 -12.5t17.5 -4.5q37 0 93 48l10.5 10.5l13 13t17.5 18.5t24 26l58 65zM1011 388q62 23 110 53t93 73q38 35 58.5 67
t20.5 53q0 8 -5.5 13.5t-13.5 5.5q-26 0 -79.5 -51t-133.5 -151zM699 320q-147 -28 -247 -106.5t-148 -203.5q48 10 89 27t80.5 45t79.5 67.5t84 94.5z" />
    <glyph glyph-name="afii10032" unicode="&#x41e;" horiz-adv-x="746" 
d="M977 561q13 18 18.5 31.5t5.5 27.5q0 38 -32.5 58t-93.5 20q-63 0 -131 -23t-135.5 -65t-131.5 -102.5t-119 -135.5t-83.5 -139t-28.5 -115q0 -56 37 -88.5t100 -32.5q158 0 346 179q45 43 81.5 87t61.5 86.5t38.5 82t13.5 72.5q0 42 -26 67.5t-69 25.5q-36 0 -76.5 -13
t-80 -35t-75.5 -50.5t-63.5 -60t-44 -63.5t-16.5 -61q0 -32 22.5 -52.5t57.5 -20.5q48 0 101.5 34t94.5 89q10 13 17 25t14 25.5t13.5 30t14.5 39.5l6 -5q-4 -44 -29.5 -88t-64 -79.5t-83.5 -58t-88 -22.5q-20 0 -36.5 7t-29.5 19.5t-20 29.5t-7 36q0 52 31.5 103t82.5 91.5
t115.5 65.5t130.5 25q57 0 88 -29t31 -80q0 -39 -15.5 -85.5t-44 -94.5t-68 -95t-87.5 -88q-84 -72 -169 -110t-163 -38q-73 0 -115 33q-29 23 -46.5 62t-17.5 84q0 62 28.5 126t77 124t114 112.5t139.5 92t153.5 62.5t155.5 23q63 0 98.5 -22.5t35.5 -64.5q0 -31 -25 -66z
" />
    <glyph glyph-name="afii10033" unicode="&#x41f;" horiz-adv-x="969" 
d="M1079 597q-37 -13 -67.5 -31.5t-60 -48.5t-61 -74t-69.5 -107q-28 -45 -52 -79.5t-48 -61.5t-50 -49.5t-58 -44.5q-78 -54 -162 -81.5t-171 -27.5q-85 0 -131.5 29t-46.5 83q0 23 10.5 37t27.5 14q12 0 19.5 -7.5t7.5 -20.5q0 -20 -25 -38q-8 -5 -11 -9.5t-3 -9.5
q0 -11 10.5 -23.5t27.5 -22.5q38 -22 111 -22q150 0 278 101q21 17 37.5 32t35 36t42.5 53.5t62 83.5q77 112 164.5 187.5t179.5 109.5zM1392 665q-20 -14 -46.5 -25.5t-57 -20t-63.5 -13t-65 -4.5q-14 0 -27 0.5t-31 2.5t-44.5 5.5t-67.5 9.5q-49 7 -86 11.5t-67 7.5
t-54.5 4t-48.5 1q-92 0 -163 -20.5t-130 -63.5q-50 -36 -77.5 -78.5t-27.5 -80.5q0 -45 35 -72.5t92 -27.5t112 21t105 62q32 26 46.5 49.5t14.5 49.5t-23 43t-59 17q-60 0 -126.5 -29.5t-117.5 -77.5l-6 8q49 54 111.5 82.5t130.5 28.5q47 0 74 -20.5t27 -55.5t-24.5 -70
t-64 -62.5t-89 -44.5t-99.5 -17q-33 0 -60 8.5t-47 24.5t-31 37t-11 47q0 53 44.5 107.5t121.5 96.5q133 72 327 72q27 0 50 -1t48 -3.5t55.5 -6.5t72.5 -11l73.5 -10.5t55.5 -7.5t42.5 -4t34.5 -1q38 0 69.5 9.5t66.5 32.5zM1149 460l-184 -262q-108 -154 -108 -178
q0 -5 3.5 -8.5t8.5 -3.5q18 0 50 21t65 54q8 8 14 14.5t14.5 15.5t21.5 23.5t34 38.5l14 15l7 -6l-13 -16q-30 -34 -47 -52.5t-27.5 -29.5t-17.5 -17.5t-17 -15.5q-30 -26 -55 -40t-42 -14t-29.5 15t-12.5 37q0 15 5 32t16 39t28.5 49.5t42.5 62.5l167 234l67 92
q10 14 13 16.5t8 2.5q9 0 16 -10t7 -24q0 -10 -4 -18.5t-16 -23.5z" />
    <glyph glyph-name="afii10034" unicode="&#x420;" horiz-adv-x="777" 
d="M1154 623q-26 -1 -52.5 -10t-57.5 -26q17 -29 25 -51.5t8 -45.5q0 -33 -17.5 -63t-46.5 -53.5t-68 -37t-81 -13.5q-22 0 -40 6l-29 -44q-45 -67 -92 -114.5t-104 -84.5q-73 -48 -152 -72t-159 -24q-81 0 -129 30t-48 81q0 23 11.5 38.5t28.5 15.5q13 0 21 -7.5t8 -20.5
q0 -11 -6 -18.5t-23 -18.5q-12 -7 -12 -19q0 -15 11.5 -28t32 -22.5t48 -15t59.5 -5.5q98 0 180.5 41t158.5 129q20 23 57 71.5t91 122.5q-8 17 -8 32q0 35 23 69t58 52l3 -9q-34 -20 -54.5 -50.5t-20.5 -61.5q0 -7 1.5 -11.5t4.5 -10.5q30 37 55 64.5t52 51.5t59 47t75 51
q-60 74 -206 74q-92 0 -177 -23t-151 -60.5t-105.5 -87t-39.5 -101.5q0 -47 37 -75t98 -28q48 0 95 16.5t84.5 42.5t60.5 59.5t23 67.5q0 31 -23.5 49t-62.5 18q-43 0 -93 -18t-92 -47q-13 -10 -23.5 -20t-28.5 -30l-6 4q16 26 42.5 48t59 38.5t69 26t71.5 9.5
q45 0 71.5 -22t26.5 -57q0 -38 -23 -74t-61.5 -63.5t-88 -44.5t-101.5 -17q-66 0 -106 33.5t-40 88.5q0 47 27.5 93t79.5 84q67 51 159 77.5t197 26.5q166 0 238 -81q26 16 57 26.5t63 13.5zM829 337q11 -4 18 -4q33 0 67 19t62 49t45.5 67t17.5 73q0 18 -8 37
q-27 -20 -50 -42t-46 -49.5t-48.5 -64t-57.5 -85.5z" />
    <glyph glyph-name="afii10035" unicode="&#x421;" horiz-adv-x="821" 
d="M781 687q-37 7 -65.5 10t-54.5 3q-70 0 -131 -16t-100 -45t-60 -63t-21 -71q0 -60 49.5 -95t144.5 -42q96 121 246 216q36 22 72 40.5t68.5 32t60.5 20.5t49 7q32 0 50.5 -15t18.5 -42q0 -43 -41.5 -87t-110 -81.5t-157 -64t-182.5 -35.5q-63 -77 -98.5 -148t-35.5 -118
q0 -39 24 -62.5t64 -23.5q51 0 106 23.5t100.5 60t74.5 81t29 85.5q0 31 -19 48.5t-51 17.5q-19 0 -41.5 -6.5t-45 -18t-43.5 -27t-39 -34.5q-30 -33 -47.5 -69t-20.5 -71h-8v16q0 39 22 78.5t57 72t78.5 52.5t85.5 20q38 0 61.5 -22t23.5 -57q0 -30 -13.5 -61.5
t-36.5 -60.5t-54 -54.5t-66.5 -44.5t-73.5 -30t-75 -11q-58 0 -89 37.5t-31 106.5q0 27 4 52.5t13.5 51.5t25 54t37.5 61q-209 21 -209 157q0 43 23.5 79t65.5 62t100 40.5t127 14.5q38 0 69.5 -3.5t71.5 -12.5zM625 370q129 13 258 71q106 49 160.5 96.5t54.5 92.5
q0 20 -15.5 32t-38.5 12q-45 0 -105 -28.5t-125 -82.5q-23 -19 -44.5 -38.5t-43.5 -42t-46.5 -49.5t-54.5 -63z" />
    <glyph glyph-name="afii10036" unicode="&#x422;" horiz-adv-x="1094" 
d="M1079 597q-37 -13 -67.5 -31.5t-60 -48.5t-61 -74t-69.5 -107q-28 -45 -52 -79.5t-48 -61.5t-50 -49.5t-58 -44.5q-78 -54 -162 -81.5t-171 -27.5q-85 0 -131.5 29t-46.5 83q0 23 10.5 37t27.5 14q12 0 19.5 -7.5t7.5 -20.5q0 -20 -25 -38q-8 -5 -11 -9.5t-3 -9.5
q0 -11 10.5 -23.5t27.5 -22.5q38 -22 111 -22q150 0 278 101q21 17 37.5 32t35 36t42.5 53.5t62 83.5q77 112 164.5 187.5t179.5 109.5zM862 680q27 0 50 -1t48 -3.5t55.5 -6.5t72.5 -11l73.5 -10.5t55.5 -7.5t42.5 -4t34.5 -1q38 0 69.5 9.5t66.5 32.5l5 -10
q-20 -14 -46.5 -25.5t-57 -20t-63.5 -13t-65 -4.5q-14 0 -27 0.5t-31 2.5t-44.5 5.5t-60.5 10.5q-56 6 -93 10.5t-67 7.5t-54.5 4t-48.5 1q-135 -2 -206 -22.5t-130 -63.5q-50 -36 -77.5 -78.5t-27.5 -80.5q0 -45 35 -72.5t92 -27.5t112 21t105 62q32 26 46.5 49.5
t14.5 49.5t-23 43t-59 17q-60 0 -126.5 -29.5t-117.5 -77.5l-6 8q49 54 111.5 82.5t130.5 28.5q47 0 74 -20.5t27 -55.5t-24.5 -70t-64 -62.5t-89 -44.5t-99.5 -17q-33 0 -60 8.5t-47 24.5t-31 37t-11 47q0 53 44.5 107.5t121.5 96.5q133 72 370 74zM1266 460l-184 -262
q-108 -154 -108 -178q0 -5 3.5 -8.5t8.5 -3.5q18 0 50 21t65 54q8 8 14 14.5t14.5 15.5t21.5 23.5t34 38.5l14 15l7 -6l-13 -16q-30 -34 -47 -52.5t-27.5 -29.5t-17.5 -17.5t-17 -15.5q-30 -26 -55 -40t-42 -14t-29.5 15t-12.5 37q0 15 5 32t16 39t28.5 49.5t42.5 62.5
l167 234l67 92q10 14 13 16.5t8 2.5q9 0 16 -10t7 -24q0 -10 -4 -18.5t-16 -23.5zM1160 562q-1 -3 -5 -8q-56 -63 -84 -104q-32 -47 -65 -104q-138 -236 -304 -347q-4 -3 -6 -3q-6 0 -6 7q0 2 3 5q45 37 90 94q31 38 70 99q32 51 64 103q76 118 177 214q49 48 60 48
q2 0 5 -2z" />
    <glyph glyph-name="afii10037" unicode="&#x423;" horiz-adv-x="897" 
d="M1015 183l-13 -15q-27 -30 -44.5 -49.5t-30 -31.5t-22 -18.5t-19.5 -12.5q-16 -8 -41 -16t-73 -22q-25 -33 -46.5 -60.5t-43 -51.5t-43.5 -46t-47 -46q-74 -68 -134 -98t-120 -30q-35 0 -57 17t-22 43q0 45 48.5 90.5t137.5 84.5q17 8 29.5 13t25.5 10t29 11t40 13.5
t58 18t83 26.5q8 11 15 21.5t15 21.5l29 46l30 44q36 55 75 111q6 9 10 14.5t6.5 10t5 8.5t7.5 11q-186 -196 -285 -196q-29 0 -45.5 20t-16.5 56q0 22 4.5 44.5t12.5 37.5q6 12 11 20t14 19t24.5 27.5t41.5 45.5l30 34q18 19 28.5 30.5t17.5 19.5t11.5 13.5t9.5 12.5
q21 28 30.5 49.5t9.5 43.5q0 18 -10 34t-27 27.5t-40.5 18t-50.5 6.5q-70 0 -139.5 -23t-125.5 -60t-91 -83.5t-35 -92.5q0 -40 30 -65.5t76 -25.5q43 0 89.5 16t84 41t62 55t24.5 59q0 25 -21 40.5t-55 15.5q-28 0 -57 -6.5t-56 -17.5t-51.5 -27t-42.5 -35l-7 6
q35 43 92 68.5t118 25.5q38 0 64.5 -19t26.5 -47q0 -38 -25.5 -74.5t-74.5 -66.5q-38 -23 -80.5 -35.5t-80.5 -12.5q-27 0 -50.5 8t-41 22.5t-27 34t-9.5 42.5q0 51 33.5 99t88 85.5t125.5 60.5t146 23q77 0 117 -33.5t40 -98.5q0 -67 -42 -124q-7 -10 -18 -23t-37 -40
l-42 -46q-33 -36 -54 -60t-32.5 -41.5t-16 -30.5t-4.5 -26q0 -17 12 -27.5t30 -10.5q40 0 102 39.5t134 108.5q47 46 96 106t98 132l60 86l32 46q16 24 20 29.5t9 5.5q6 0 14 -13.5t8 -23.5q0 -6 -3 -14t-13 -24t-29 -42.5t-50 -69.5q-5 -8 -11 -16t-11 -16l-12 -16
l-92 -134q-14 -21 -23 -33t-17 -24l-18 -27t-27 -40q-18 -27 -30 -44.5t-22.5 -32.5t-21.5 -30t-27 -36l39 13q22 7 37.5 12.5t27 11.5t20.5 13.5t19 17.5q6 7 11 12t12 12.5t17.5 19t28.5 31.5l14 16zM704 1q-72 -23 -126.5 -42.5t-97 -39t-75.5 -39.5t-63 -43t-50 -49.5
t-20 -43.5q0 -20 18.5 -33.5t47.5 -13.5q41 0 86.5 24t103.5 75q20 18 33.5 30.5t28 29t35 42.5t55.5 71q4 5 10 13t14 19z" />
    <glyph glyph-name="afii10038" unicode="&#x424;" horiz-adv-x="906" 
d="M619 548q-30 17 -30 38.5t13.5 42t35.5 37.5t49 28q65 28 132 20q47 -6 70 -27q13 -12 19 -25t5 -26q-1 -6 -10 -26q-3 -7 -3.5 -10t-1.5 -5q0 -6 4 -11t11 -6t15.5 1.5t20.5 8t29 16.5t41 26q15 10 25.5 17.5t20 12.5t18.5 9q2 1 3 0l1 1l-1 -1q-1 -2 -12 -11
q-10 -7 -17 -12q-20 -16 -38 -32q-29 -26 -59.5 -63t-69.5 -91l-4 -5q28 23 48 35q60 36 103 36q33 0 57 -30q20 -27 20 -64q0 -56 -36 -112q-40 -60 -112 -112q-81 -59 -142 -59q-79 0 -79 78q0 10 4 31q-27 -35 -51 -63q-45 -52 -90 -87q-75 -60 -160.5 -90.5
t-173.5 -30.5q-79 0 -125 31.5t-46 86.5q0 20 12 34.5t29 14.5q12 0 19.5 -7.5t7.5 -20.5q0 -22 -19 -31l-8 -5q-17 -10 -17 -20t11 -24t27 -24q38 -25 106 -25q103 0 197 60q74 48 152 140q-9 -6 -17 -11q-61 -36 -104 -36q-12 0 -24 7q-54 22 -54 89q0 90 104 186
q96 91 188 95q24 0 45 -12q25 -14 31 -37q2 -12 2 -31q0 -15 -15 -56q21 24 42 47q40 43 83 85q34 32 74 68q-19 -10 -33 -15q-20 -7 -36 -5q-21 2 -33 16t-10 32q1 4 2.5 9.5t5.5 15.5q7 12 8 22q1 12 -11 22t-31 12q-25 3 -53 0t-56 -11.5t-54 -21.5t-46 -29
q-52 -51 -9 -80q27 -6 49 0.5t42.5 18.5t35.5 28t22 34l4 -1v-2q0 -18 -18.5 -39t-48.5 -35q-59 -22 -86 -14zM777 445q0 63 -46 63q-19 0 -42 -13q-31 -18 -56 -39q-50 -38 -107 -112q-65 -88 -65 -137q0 -19 14.5 -31.5t32.5 -12.5q15 0 40 9q43 18 70 37q18 14 36 30
l9 12q41 54 78 99q6 8 13 15q23 44 23 80zM1074 468q0 18 -13 31.5t-31 13.5q-17 0 -41 -10q-47 -18 -72 -36q-31 -24 -60 -53q-27 -40 -61 -91q-14 -20 -27 -37q-11 -30 -11 -56q0 -62 47 -62q17 0 42 14q70 44 117 94q37 42 68 91q42 64 42 101z" />
    <glyph glyph-name="afii10039" unicode="&#x425;" horiz-adv-x="798" 
d="M916 184l-14 -16q-29 -33 -48 -54t-32.5 -35t-25 -23.5t-25.5 -20.5q-51 -39 -86 -39q-24 0 -37 21.5t-13 61.5q0 26 5 49t21 64q-77 -84 -152 -131t-163 -66q-1 -7 -1 -12.5v-9.5q0 -31 8 -57.5t22.5 -45.5t34.5 -30t43 -11t46 13l4 -8q-22 -14 -49 -14
q-26 0 -48.5 11.5t-38.5 31.5t-25 48t-9 61v8.5t1 13.5q-21 -3 -38.5 -4.5t-35.5 -1.5q-76 0 -119 29.5t-43 82.5q0 20 11.5 34.5t28.5 14.5q11 0 18 -8.5t7 -20.5q0 -11 -4.5 -18t-21.5 -21q-5 -4 -8 -10.5t-3 -11.5q0 -26 39 -43.5t99 -17.5q37 0 70 6q34 244 398 302
l44 58q29 38 48.5 66t31 50.5t16.5 40.5t5 35q0 50 -35.5 78.5t-96.5 28.5q-78 0 -158 -31t-145 -85q-79 -67 -79 -132q0 -38 29.5 -62.5t77.5 -24.5q51 0 104.5 19.5t98.5 53.5q52 41 52 87q0 25 -23.5 41.5t-58.5 16.5q-50 0 -103.5 -23t-98.5 -64l-6 5q18 21 42.5 39
t51.5 30.5t56 19.5t57 7q42 0 68.5 -21t26.5 -53t-22.5 -63t-58.5 -55t-82 -39t-93 -15q-28 0 -51.5 7.5t-41 20.5t-27.5 31t-10 39q0 50 32.5 97.5t86.5 84t123 59t142 22.5q81 0 126 -38.5t45 -109.5q0 -31 -10 -65q21 24 40 44t39 37.5t41.5 33.5t47.5 32q55 35 96 50.5
t81 15.5q32 0 50.5 -12.5t18.5 -32.5q0 -11 -8.5 -19t-19.5 -8q-12 0 -20 8t-8 19q0 5 2 13q1 3 1 7q0 5 -7.5 9t-19.5 4q-45 0 -99.5 -27t-114.5 -80q-23 -20 -42.5 -40t-41 -45.5t-48.5 -60.5t-64 -86q40 11 67 22t43.5 23.5t24 29t9.5 38.5q2 13 11 13q4 0 7.5 -6
t3.5 -14q0 -22 -15.5 -42.5t-43.5 -35.5q-17 -9 -47.5 -19.5t-68.5 -20.5q-70 -84 -110 -155.5t-40 -115.5q0 -35 24 -35q35 0 97 51q11 9 18.5 16t18.5 18.5t28.5 30.5t47.5 53l14 15zM723 295q-164 -29 -260 -102.5t-116 -185.5q95 24 185.5 93.5t190.5 194.5z" />
    <glyph glyph-name="afii10040" unicode="&#x426;" horiz-adv-x="880" 
d="M423 505q-17 -10 -34.5 -24.5t-40.5 -39.5l-6 5q15 22 44 49q30 24 63 39l14 6q2 1 3 2q2 0 3 1q5 2 9 4q20 8 41 13q36 10 69 10q41 0 66.5 -21t25.5 -53q0 -38 -23.5 -74.5t-62.5 -65t-88 -46t-100 -17.5q-63 0 -100.5 33t-37.5 87t33 104t87.5 88.5t125 62t146.5 23.5
q87 0 133 -38.5t46 -111.5q0 -25 -7 -50t-22.5 -52.5t-41 -59t-61.5 -70.5l-109 -118q-19 -20 -39 -44.5t-39 -49.5q-19 -27 -26 -41.5t-7 -28.5q0 -19 17 -19q13 0 34 9t48 25.5t58.5 39t63.5 49.5q121 103 245 266l192 254q10 14 13 16.5t8 2.5q9 0 16 -10t7 -24
q0 -10 -4 -18.5t-16 -23.5l-242 -322q-33 -44 -54.5 -72t-35 -46.5t-22 -29.5t-15.5 -21q-23 -34 -35.5 -56t-12.5 -32q0 -12 15 -12q12 0 33 10t44 27q10 8 22 19t28 27t36 37.5t46 51.5l14 15l8 -6l-14 -16q-33 -36 -51.5 -56.5t-29.5 -32.5t-19 -19l-5 -5
q-10 -14 -12 -28q1 2 1 -20q0 -33 -8 -51q-14 -31 -42 -51.5t-59 -20.5q-8 0 -22.5 -2t-21.5 -2q-6 0 -7 5l3 4l-2 3l2 1q27 0 50 13q70 42 91 95q3 15 12 41q-28 -21 -53 -34q-27 -14 -45 -14q-28 0 -28 40q0 22 3.5 42.5t13 42t25.5 47.5q15 25 39 58q-48 -49 -95 -90
q-47 -42 -89 -72t-76 -47t-55 -17q-37 0 -37 57q0 61 43 122q7 11 14 19.5t24 28t50.5 55.5t95.5 102q35 37 58.5 65.5t38 51.5t21 41.5t6.5 36.5q0 45 -41 73t-105 28q-72 0 -142 -23.5t-125.5 -62t-90 -87t-34.5 -97.5q0 -45 31.5 -73t82.5 -28q48 0 96.5 17.5t87.5 45.5
t63.5 62.5t24.5 68.5q0 26 -22.5 42t-58.5 16q-28 0 -60 -9q-23 -7 -46 -17z" />
    <glyph glyph-name="afii10041" unicode="&#x427;" horiz-adv-x="503" 
d="M772 657q12 13 17 13q9 0 16 -10t7 -24q0 -10 -4 -18.5t-16 -23.5l-242 -322q-33 -44 -54.5 -72t-35 -46.5t-22 -29.5t-15.5 -21q-23 -34 -35.5 -56t-12.5 -32q0 -12 15 -12q12 0 33 10t44 27q10 8 22 19t28 27t36 37.5t46 51.5l14 15l8 -6l-14 -16q-33 -36 -51.5 -56.5
t-29.5 -32.5t-18.5 -18.5t-17.5 -15.5q-29 -23 -56 -37t-45 -14q-28 0 -28 40q0 22 15.5 59.5t40 74.5t159.5 229l169 215q-125 -86 -153 -104t-45.5 -26t-30 -9.5t-24.5 0.5q-25 4 -35.5 28t-2.5 55q4 17 15 37l6 12q9 15 9 17q6 22 -11 40.5t-44 23.5q-57 9 -119.5 -8.5
t-125.5 -62.5q-109 -79 -131 -166q-11 -44 3.5 -77t47.5 -38q33 -7 69.5 4.5t71 33t65.5 55.5t50 74l5 -4l-1 -4q-11 -42 -48 -84.5t-87 -69.5q-64 -33 -122 -22q-43 7 -60.5 45t-2.5 95q18 78 86 142q65 67 136.5 92.5t146.5 13.5q28 -5 51.5 -17.5t38 -28.5t20 -35
t1.5 -41q-4 -13 -18 -41l-9 -17q-5 -10 -8 -19q-4 -16 10 -19q12 -2 22.5 1t26.5 10.5t37.5 21.5t52.5 33q90 59 134 104z" />
    <glyph glyph-name="afii10042" unicode="&#x428;" horiz-adv-x="1145" 
d="M354 438l-8 10q50 60 103 86l2 1l8 4q2 0 4 1q7 4 15 7q20 8 41 13q36 10 69 10q41 0 66.5 -21t25.5 -53q0 -38 -23.5 -74.5t-62.5 -65t-88 -46t-100 -17.5q-63 0 -100.5 33t-37.5 87t33 104t87.5 88.5t125 62t146.5 23.5q87 0 133 -38.5t46 -111.5q0 -25 -7 -50
t-22.5 -52.5t-41 -59t-61.5 -70.5l-109 -118q-19 -20 -39 -44.5t-39 -49.5q-19 -27 -26 -41.5t-7 -28.5q0 -19 17 -19q13 0 34 9t48 25.5t58.5 39t63.5 49.5q121 103 245 266l196 254q10 14 13 16.5t8 2.5q9 0 16 -10t7 -24q0 -10 -4 -18.5t-16 -23.5l-242 -311
q-92 -112 -112 -136.5t-39 -49.5q-19 -27 -26 -41.5t-7 -28.5q0 -19 17 -19q13 0 34 9t48 25.5t58.5 39t63.5 49.5q121 103 245 266l196 254q10 14 13 16.5t8 2.5q9 0 16 -10t7 -24q0 -10 -4 -18.5t-16 -23.5l-242 -322q-33 -44 -54.5 -72t-35 -46.5t-22 -29.5t-15.5 -21
q-23 -34 -35.5 -56t-12.5 -32q0 -12 15 -12q12 0 33 10t44 27q10 8 22 19t28 27t36 37.5t46 51.5l14 15l8 -6l-14 -16q-33 -36 -51.5 -56.5t-29.5 -32.5t-18.5 -18.5t-17.5 -15.5q-29 -23 -56 -37t-45 -14q-28 0 -28 40q0 22 3.5 42.5t13 42t25.5 49t37 58.5
q-49 -50 -96.5 -92t-89.5 -72t-76 -47t-55 -17q-37 0 -37 57q0 61 43 122q-20 -20 -56.5 -52.5t-78.5 -62.5t-76 -47t-55 -17q-37 0 -37 57q0 61 43 122q7 11 14 19.5t24 28t50.5 55.5t95.5 102q35 37 58.5 65.5t38 51.5t21 41.5t6.5 36.5q0 45 -41 73t-105 28
q-72 0 -142 -23.5t-125.5 -62t-90 -87t-34.5 -97.5q0 -45 31.5 -73t82.5 -28q48 0 96.5 17.5t87.5 45.5t63.5 62.5t24.5 68.5q0 26 -22.5 42t-58.5 16q-28 0 -60 -9q-23 -7 -46 -17q-85 -35 -125 -95z" />
    <glyph glyph-name="afii10043" unicode="&#x429;" horiz-adv-x="1145" 
d="M354 438l-8 10q50 60 103 86l2 1l8 4q2 0 4 1q7 4 15 7q20 8 41 13q36 10 69 10q41 0 66.5 -21t25.5 -53q0 -38 -23.5 -74.5t-62.5 -65t-88 -46t-100 -17.5q-63 0 -100.5 33t-37.5 87t33 104t87.5 88.5t125 62t146.5 23.5q87 0 133 -38.5t46 -111.5q0 -25 -7 -50
t-22.5 -52.5t-41 -59t-61.5 -70.5l-109 -118q-19 -20 -39 -44.5t-39 -49.5q-19 -27 -26 -41.5t-7 -28.5q0 -19 17 -19q13 0 34 9t48 25.5t58.5 39t63.5 49.5q121 103 245 266l196 254q10 14 13 16.5t8 2.5q9 0 16 -10t7 -24q0 -10 -4 -18.5t-16 -23.5l-242 -311
q-92 -112 -112 -136.5t-39 -49.5q-19 -27 -26 -41.5t-7 -28.5q0 -19 17 -19q13 0 34 9t48 25.5t58.5 39t63.5 49.5q121 103 245 266l196 254q10 14 13 16.5t8 2.5q9 0 16 -10t7 -24q0 -10 -4 -18.5t-16 -23.5l-242 -322q-33 -44 -54.5 -72t-35 -46.5t-22 -29.5t-15.5 -21
q-23 -34 -35.5 -56t-12.5 -32q0 -12 15 -12q12 0 33 10t44 27q10 8 22 19t28 27t36 37.5t46 51.5l14 15l8 -6l-14 -16q-33 -36 -51.5 -56.5t-29.5 -32.5t-18.5 -18.5t-17.5 -15.5q-29 -23 -56 -37t-45 -14q-28 0 -28 40q0 22 3.5 42.5t13 42t25.5 49t37 58.5
q-49 -50 -96.5 -92t-89.5 -72t-76 -47t-55 -17q-37 0 -37 57q0 61 43 122q-20 -20 -56.5 -52.5t-78.5 -62.5t-76 -47t-55 -17q-37 0 -37 57q0 61 43 122q7 11 14 19.5t24 28t50.5 55.5t95.5 102q35 37 58.5 65.5t38 51.5t21 41.5t6.5 36.5q0 45 -41 73t-105 28
q-72 0 -142 -23.5t-125.5 -62t-90 -87t-34.5 -97.5q0 -45 31.5 -73t82.5 -28q48 0 96.5 17.5t87.5 45.5t63.5 62.5t24.5 68.5q0 26 -22.5 42t-58.5 16q-28 0 -60 -9q-23 -7 -46 -17q-85 -35 -125 -95zM1123 42l13 12q-8 -14 -10 -26q1 2 1 -20q0 -33 -8 -51
q-14 -31 -42 -51.5t-59 -20.5q-8 0 -22.5 -2t-21.5 -2q-6 0 -7 5l3 4l-2 3l2 1q27 0 50 13q70 42 91 95q3 15 12 40z" />
    <glyph glyph-name="afii10044" unicode="&#x42a;" horiz-adv-x="845" 
d="M723 245q24 37 55 70q78 83 160 77q38 -3 53 -32t7 -67q-23 -110 -127 -208q-105 -87 -219 -88q-55 5 -84 42.5t-22 89.5t62 133t173.5 183.5t149.5 137.5q31 34 60 72q-51 -42 -54.5 -44.5t-6.5 -4.5l-36 -26q-33 -24 -58 -35t-46 -11q-29 0 -47 13.5t-18 34.5
q0 6 1.5 12t5.5 17q6 15 6 26q0 14 -17.5 23.5t-42.5 9.5q-33 0 -69.5 -7.5t-72 -21t-67.5 -32t-56 -39.5q-66 -60 -66 -118q0 -29 22 -47.5t58 -18.5q27 0 56 8t56 22.5t50 34.5t40 44q7 8 11 18.5t8 24.5l8 -1q-3 -67 -86 -121q-32 -22 -67.5 -33.5t-67.5 -11.5
q-43 0 -71 23.5t-28 58.5q0 26 10.5 53t29.5 51.5t46 46.5t60 38q80 40 171 40q61 0 95 -20q19 -11 29.5 -25t10.5 -28q0 -8 -8 -31l-4 -12q-1 -3 -1 -6q0 -6 7 -11t16 -5t20 3.5t25.5 11.5t35 22.5t49.5 35.5q18 13 31 22.5t24.5 16.5t18.5 9h10q5 2 3 -5
q-52 -79 -146.5 -166.5t-147.5 -153.5t-104 -149q-26 -45 -34 -88q-4 -33 10 -65.5t79 -31.5t135 74q65 60 111.5 134t53.5 107q11 51 -39 59q-71 2 -147 -73q-25 -30 -40 -57q-23 -37 0 -51l4 -2q20 -13 12 -25q-4 -7 -13 -8.5t-18 2.5q-18 7 -21 26.5t13 52.5z" />
    <glyph glyph-name="afii10045" unicode="&#x42b;" horiz-adv-x="889" 
d="M690 649q1 -54 -88 -131.5t-160.5 -162t-122.5 -167.5q-26 -45 -34 -88q-4 -33 10 -65.5t79 -31.5t135 74q65 60 111.5 134t53.5 107q11 51 -39 59q-71 2 -147 -73q-25 -30 -40 -57q-23 -37 0 -51l4 -2q20 -13 12 -25q-4 -7 -13 -8.5t-18 2.5q-18 7 -21 26.5t13 52.5
q24 37 55 70q78 83 160 77q38 -3 53 -32t7 -67q-23 -110 -127 -208q-105 -87 -219 -88q-55 5 -84 42.5t-22 89.5t62 133t173.5 183.5t149.5 137.5q11 13 25 29q14 24 14 50q0 22 -19 34q-15 10 -39 10q-56 0 -129 -57q-75 -59 -75 -116q0 -38 32 -38q27 0 76 43q42 37 61 67
q11 16 11 34q0 11 -2 17q-1 1 -3.5 4t-2.5 4q0 4 4 4q12 0 12 -33q0 -47 -40 -90q-36 -37 -85 -55q-14 -5 -24 -5q-20 0 -33.5 14.5t-13.5 33.5q0 4 1 10q7 35 29 63q31 41 81 72q56 35 101 35q38 0 58 -22q15 -15 18 -39zM1039 529l-218 -296q-128 -174 -135 -204
q-1 -6 0.5 -11t5.5 -5q14 -1 45.5 21t67.5 58q8 9 14.5 15.5t15.5 17t24 27t38 42.5l15 16l5 -7l-16 -19q-32 -37 -51.5 -57.5t-30.5 -32.5t-17.5 -19t-19.5 -18q-30 -28 -54 -41.5t-38 -12.5q-12 2 -18.5 21.5t-0.5 45.5q5 18 13.5 38.5t23 45t35.5 56t52 71.5l196 264
l80 104q13 15 15 18t6 2q7 0 10.5 -13t-1.5 -29q-2 -13 -7.5 -23t-18.5 -27z" />
    <glyph glyph-name="afii10046" unicode="&#x42c;" horiz-adv-x="774" 
d="M740 652q1 -54 -86.5 -142.5t-160.5 -162t-124 -156.5q-26 -45 -34 -88q-4 -33 10 -65.5t79 -31.5t135 74q65 60 111.5 134t53.5 107q11 51 -39 59q-71 2 -147 -73q-25 -30 -40 -57q-23 -37 0 -51l4 -2q20 -13 12 -25q-4 -7 -13 -8.5t-18 2.5q-18 7 -21 26.5t13 52.5
q24 37 55 70q78 83 160 77q38 -3 53 -32t7 -67q-23 -110 -127 -208q-105 -87 -219 -88q-55 5 -84 42.5t-22 89.5t62 133t173.5 183.5t149.5 137.5q11 13 25 29q14 24 14 50q0 22 -19 34q-15 10 -39 10q-56 0 -129 -57q-75 -59 -75 -116q0 -38 32 -38q27 0 76 43q42 37 61 67
q11 16 11 34q0 11 -2 17q-1 1 -3.5 4t-2.5 4q0 4 4 4q12 0 12 -33q0 -47 -40 -90q-36 -37 -85 -55q-14 -5 -24 -5q-20 0 -33.5 14.5t-13.5 33.5q0 4 1 10q7 35 29 63q31 41 81 72q56 35 101 35q38 0 58 -22q15 -15 18 -39z" />
    <glyph glyph-name="afii10047" unicode="&#x42d;" horiz-adv-x="821" 
d="M329 3q144 0 257 75q111 71 200 165q102 107 150 211q32 73 32 124q0 79 -46 107q-35 23 -82 23q-76 0 -158 -51q-79 -53 -115 -122q-20 -42 -20 -89q0 -32 20.5 -56t52.5 -24q25 0 59 17q51 22 97 76q45 51 66 107q5 15 5 31q0 12 -8 32t-8 18q0 6 6 6q3 0 5 -3
q19 -31 19 -73q0 -80 -76 -152t-157 -72q-41 0 -66.5 24t-25.5 66q0 55 23 98q33 69 117 123q86 57 159 57q80 0 128 -44q46 -45 46 -124q0 -130 -105 -264q-96 -125 -240 -210q-156 -94 -301 -92q-91 4 -137.5 33t-46.5 83q0 23 10.5 37t27.5 14q12 0 19.5 -7.5t7.5 -20.5
q0 -20 -25 -38q-8 -5 -11 -9.5t-3 -9.5q0 -11 10.5 -23.5t27.5 -22.5q38 -22 86 -20zM851 320q0 -1 -12 -10q-52 -38 -111 -33q-6 1 -15 2t-13 1q-38 4 -60 2q-9 -1 -20 -6q-19 -6 -20 -7q-3 1 -3 4q0 1 2 2q49 39 125 31q3 0 11 -1q6 -1 10 -1q41 -4 65 0q11 3 21 9
q12 8 18 10q1 0 2 -2v-1z" />
    <glyph glyph-name="afii10048" unicode="&#x42e;" horiz-adv-x="1386" 
d="M699 320q-147 -28 -247 -106.5t-148 -203.5q48 10 89 27t80.5 45t79.5 67.5t84 94.5zM1620 561q13 18 18.5 31.5t5.5 27.5q0 38 -32.5 58t-93.5 20q-63 0 -131 -23t-135.5 -65t-131.5 -102.5t-119 -135.5t-83.5 -139t-28.5 -115q0 -56 37 -88.5t100 -32.5q158 0 346 179
q45 43 81.5 87t61.5 86.5t38.5 82t13.5 72.5q0 42 -26 67.5t-69 25.5q-36 0 -76.5 -13t-80 -35t-75.5 -50.5t-63.5 -60t-44 -63.5t-16.5 -61q0 -32 22.5 -52.5t57.5 -20.5q48 0 101.5 34t94.5 89q10 13 17 25t14 25.5t13.5 30t14.5 39.5l6 -5q-4 -44 -29.5 -88t-64 -79.5
t-83.5 -58t-88 -22.5q-20 0 -36.5 7t-29.5 19.5t-20 29.5t-7 36q0 52 31.5 103t82.5 91.5t115.5 65.5t130.5 25q57 0 88 -29t31 -80q0 -39 -15.5 -85.5t-44 -94.5t-68 -95t-87.5 -88q-84 -72 -169 -110t-163 -38q-73 0 -115 33q-29 23 -46.5 62t-17.5 84q0 62 26.5 126
t77 124t116 112.5t139.5 92t153.5 62.5t155.5 23q63 0 98.5 -22.5t35.5 -64.5q0 -31 -25 -66zM922 364l1 -15q-32 -1 -46 -3.5t-34 -4.5q-11 -2 -21.5 -3t-21.5 -3l-20 -3l-36 -49q-90 -126 -197.5 -195.5t-246.5 -91.5q-5 -23 -7 -41.5t-2 -38.5q0 -41 11.5 -76.5
t31.5 -61.5t47 -41t59 -15q30 0 61 17l6 -9q-20 -10 -36 -14t-34 -4q-32 0 -61 15.5t-50.5 42t-34 62t-12.5 74.5q0 21 2.5 41.5t7.5 47.5q-13 -1 -22 -1h-19q-81 0 -127 29t-46 80q0 23 11 37.5t29 14.5q11 0 19 -7t8 -18q0 -21 -26 -40l-7 -5q-10 -7 -10 -15q0 -12 12 -24
t31 -21t43.5 -14.5t50.5 -5.5q11 0 22.5 0.5t32.5 2.5q25 71 61 124.5t86 92.5t117 65t154 43l32 40q28 33 52 60t48.5 52t53 50.5t64.5 56.5q7 7 11 10q-38 -26 -61.5 -41.5t-39.5 -23.5t-27.5 -10.5t-25.5 -2.5q-25 0 -42 15t-17 37q0 13 6 27l4 10q5 12 5 14q0 15 -22 26
t-51 11q-59 0 -118.5 -20t-110.5 -58q-93 -69 -93 -132q0 -32 22.5 -52.5t57.5 -20.5t70 12t65 32t52 46.5t31 55.5l6 -2v-3q0 -30 -27 -64t-70 -58q-56 -31 -117 -31q-47 0 -74.5 24.5t-27.5 65.5q0 54 52 109q50 53 116 79.5t145 26.5q30 0 56.5 -5.5t45.5 -14.5t30 -22
t11 -28q0 -10 -8 -31l-5 -12q-3 -8 -3 -14q0 -12 15 -12q11 0 22.5 3t25.5 10t32.5 19t44.5 30q24 18 41 29.5t29.5 19.5t22.5 13t21 10l5 -7q-32 -23 -61 -49t-60.5 -63t-68.5 -87t-85 -119q39 5 61 8t34.5 5t20 3.5z" />
    <glyph glyph-name="afii10049" unicode="&#x42f;" horiz-adv-x="886" 
d="M940 377q25 29 36.5 33.5t14 -3.5t-2 -23.5t-10.5 -25.5l-114 -158q-98 -134 -94 -186q0 -5 3.5 -8.5t8.5 -3.5q18 0 50 21t65 54q8 8 14 14.5t14.5 15.5t21.5 23.5t34 38.5l14 15l7 -6l-13 -16q-30 -34 -47 -52.5t-27.5 -29.5t-17.5 -17.5t-17 -15.5q-30 -26 -55 -40
t-42 -14t-29.5 15t-12.5 37q0 15 5 32t16 39t28.5 49.5t42.5 62.5l34 47q-7 -5 -10 -10q-32 -28 -67 -41q-98 -58 -159 -89t-116.5 -54.5t-97.5 -36.5q-74 -25 -137.5 -32t-111.5 4q-55 13 -85 49t-20 80q6 23 21.5 35t33.5 8q12 -3 18.5 -12.5t4.5 -20.5
q-3 -10 -10.5 -18.5t-18.5 -11.5l-13 -5q-12 -5 -14 -15q-5 -23 19.5 -45.5t67.5 -32.5q124 -28 315 57q134 59 272 136h-6q-35 0 -57.5 28.5t-22.5 72.5q0 21 4 39.5t17 49.5q-31 1 -50 5t-41 12q-42 16 -67 49t-25 72q0 21 8 42t23 39.5t36 33.5t46 25q68 27 163 27
q35 0 63.5 -3.5t58.5 -10.5l-4 -9q-34 7 -60.5 10t-51.5 3q-56 0 -104 -12.5t-83 -34.5t-55.5 -51.5t-20.5 -64.5q0 -53 46 -86t123 -37q23 42 71 89t110 90q63 44 126.5 68.5t111.5 24.5q30 0 47 -13t17 -36t-18.5 -48.5t-50 -50.5t-73.5 -47.5t-89 -41t-97 -30t-97 -13.5
q-55 -79 -55 -132q0 -21 14.5 -35.5t35.5 -14.5q17 0 38 8q23 13 46 27q28 20 61 54zM763 420q67 7 139.5 30t132.5 58q63 36 100 72.5t37 62.5q0 18 -13.5 28t-35.5 10q-48 0 -111.5 -35t-132.5 -98q-15 -14 -27.5 -25.5t-25 -25.5t-27.5 -32t-36 -45z" />
    <glyph glyph-name="afii10065" unicode="&#x430;" horiz-adv-x="315" 
d="M433 184l-14 -16q-34 -38 -53.5 -59.5t-32 -34t-21 -20t-20.5 -17.5q-25 -21 -42 -30t-31 -9q-26 0 -26 30t29 78q-50 -55 -81 -81t-48 -26q-30 0 -30 64q0 26 3 46t11.5 37.5t22.5 34t36 35.5q24 22 49.5 40.5t49.5 32t44 21t34 7.5q11 0 19 -8t8 -19q0 -6 -1 -11.5
t-4 -16.5l18 24q14 17 20 22.5t11 5.5q7 0 12.5 -8.5t5.5 -18.5q0 -17 -22 -45l-82 -106q-33 -42 -50.5 -65t-25.5 -34t-9.5 -14.5t-1.5 -6.5q0 -8 11 -8q9 0 23.5 8t37.5 27q12 9 20 16t20 19.5t32.5 34.5t56.5 62l13 15zM313 307q-15 0 -53 -33.5t-87 -90.5
q-19 -22 -36 -45.5t-30 -45t-20.5 -38.5t-7.5 -27q0 -8 4 -13t10 -5q14 0 53.5 36t90.5 94q50 56 72.5 92t22.5 59q0 17 -19 17z" />
    <glyph glyph-name="afii10066" unicode="&#x431;" horiz-adv-x="273" 
d="M318 182q-12 -19 -27.5 -38.5t-31.5 -36.5q8 -5 12 -5q8 0 17.5 4t22.5 14.5t31 27t42 42.5l7 -6q-37 -42 -69 -66.5t-52 -24.5q-10 0 -17 6q-13 -14 -22 -23l-15 -15q-6 -6 -11 -10.5t-10 -8.5q-23 -20 -44.5 -33t-31.5 -13q-22 0 -37.5 24.5t-15.5 58.5q0 24 5 44
t16 39t28.5 37.5t42.5 38.5q20 16 43 30t46 24.5t44 16.5t36 6q29 0 29 -25q0 -5 -0.5 -9t-2.5 -16q12 29 32 74q44 102 93 180q10 20 38 49q38 26 83 26q14 0 40.5 -6.5t39.5 -6.5q38 0 63.5 31t26.5 31q9 0 9 -11q0 -4 -18 -29q-25 -39 -37 -51q-26 -28 -51 -33
q-10 -2 -33 -2q-8 0 -21.5 2t-20.5 2q-69 0 -95 -17q-38 -22 -98 -166q-50 -121 -82 -150zM346 277v7q0 21 -15 21q-18 0 -47.5 -19.5t-68.5 -56.5q-27 -26 -44.5 -48t-33.5 -50q-13 -23 -21 -37t-12 -24t-5.5 -17t-1.5 -16q0 -13 7 -22.5t16 -9.5q6 0 26 12.5t39 28.5
q14 11 26 24t34 39q6 8 27 32.5t40 53.5v2l4 5q11 17 18.5 33t7.5 27z" />
    <glyph glyph-name="afii10067" unicode="&#x432;" horiz-adv-x="258" 
d="M376 184l-14 -16q-33 -37 -50.5 -57t-27 -29t-13.5 -10.5t-8 -1.5q-21 0 -23 34q-20 -21 -42 -40.5t-43.5 -34.5t-39.5 -23.5t-30 -8.5q-30 0 -30 45q0 35 10 66.5t32 62.5q9 13 24.5 33.5t34 43t37.5 45t34 39.5l45 50q43 48 83 87t73 67t57.5 43.5t38.5 15.5
q9 0 16.5 -7t7.5 -16q0 -12 -13 -36.5t-31 -45.5q-16 -20 -33 -37t-37.5 -34.5t-46.5 -37t-59 -42.5l-53 -37q-6 -4 -11 -8t-11 -11.5t-15 -18.5t-22 -28l-63 -82q-83 -107 -83 -136q0 -12 14 -12q10 0 27 8.5t37.5 23t43.5 35t46 44.5q1 26 5.5 46t15.5 42q40 81 67 81
q7 0 11.5 -6t4.5 -14q0 -47 -94 -153q2 -32 15 -32q11 0 63 62q14 14 29 32l14 15zM282 319q58 45 105.5 85.5t81 73.5t51.5 57t18 36q0 6 -4.5 10.5t-9.5 4.5q-15 0 -55 -37q-11 -11 -19.5 -20t-19 -21t-24.5 -29.5t-36 -45.5z" />
    <glyph glyph-name="afii10068" unicode="&#x433;" horiz-adv-x="231" 
d="M169 93q-43 -46 -53 -80q0 -8 9 -8q22 0 60.5 28.5t80.5 75.5q29 31 56 62l14 15l7 -6l-14 -16q-37 -41 -57.5 -64t-32.5 -35t-19.5 -18.5t-18.5 -14.5q-25 -17 -45.5 -27t-33.5 -10q-23 0 -23 38q0 29 24.5 74.5t80 91.5t70 69t14.5 30q0 9 -10 9q-9 0 -51.5 -32
t-136.5 -123l-9 10q106 98 146 126.5t60 28.5q21 0 21 -40q0 -43 -42 -91z" />
    <glyph glyph-name="afii10069" unicode="&#x434;" horiz-adv-x="327" 
d="M445 184l-14 -16q-41 -46 -65.5 -72t-46 -42.5t-45.5 -28t-64 -26.5l-68 -94q-34 -46 -69 -85.5t-67.5 -68t-60.5 -45t-46 -16.5q-12 0 -20 8.5t-8 21.5q0 33 32 74.5t102 98.5q40 34 73.5 57t71.5 44l42 58q5 6 8.5 11t8.5 13l6 7l1 2q-45 -41 -80.5 -63.5t-54.5 -22.5
q-27 0 -27 55q0 52 24 93.5t79 85.5q22 17 45.5 32t45 26t40.5 17t32 6q25 0 25 -25q0 -10 -2.5 -19t-7.5 -23l44 63q5 5 10 5q8 0 15 -10t7 -21t-10 -25l-183 -245q34 14 56.5 25t43 27t44.5 41t62 68l13 15zM319 304q-22 0 -60.5 -33t-89.5 -96q-45 -55 -70.5 -97
t-25.5 -59q0 -12 8 -12q6 0 18 5.5t27.5 15.5t33 23t35.5 28q27 22 52 51t45 58.5t32 55t12 42.5q0 18 -17 18zM139 -25q-48 -29 -94 -66t-82 -73.5t-58 -68t-22 -49.5q0 -8 5 -13.5t12 -5.5q42 0 132 126z" />
    <glyph glyph-name="afii10070" unicode="&#x435;" horiz-adv-x="237" 
d="M356 184l-14 -16q-35 -39 -56 -62t-33.5 -36.5t-21 -21t-17.5 -14.5q-50 -38 -92 -38q-51 0 -51 64q0 30 5 53.5t16 44.5t28.5 40.5t43.5 40.5q18 15 40.5 28.5t44 24t40 17t29.5 6.5q12 0 19.5 -8t7.5 -19q0 -15 -8.5 -32.5t-22.5 -35t-32.5 -33.5t-39.5 -27
t-42.5 -15.5t-53.5 -5.5q-26 -37 -41 -66t-15 -43q0 -11 8 -18t22 -7q21 0 47.5 12.5t52.5 34.5q7 6 12.5 11t16 16.5t30.5 33.5t56 62l13 15zM151 148q18 2 32.5 6t28.5 11t28.5 17.5t32.5 25.5q29 25 45 45t16 34q0 8 -4.5 13.5t-10.5 5.5q-9 0 -30 -16t-46.5 -39.5
t-50.5 -51t-41 -51.5z" />
    <glyph glyph-name="afii10072" unicode="&#x436;" horiz-adv-x="597" 
d="M52 128l14 16q41 46 85 95t56 56q20 12 37 18t34 6q52 0 48 -79q-3 -57 -35 -103q56 60 94 89q61 65 87 73l2 -4q0 -2 -2 -6q-23 -33 -46 -88q-37 -86 -41 -92q30 35 79 78l5 5q15 19 37 39q20 18 44.5 34t48.5 28t46 19.5t37 7.5q26 0 26 -29q0 -15 -8.5 -32t-20.5 -32
t-26.5 -25t-26.5 -10q-16 0 -16 15q0 25 49 42l7 3q14 5 23 16t9 23q0 19 -16 19q-14 0 -37 -16t-49 -41.5t-52.5 -57.5t-47.5 -63.5t-34.5 -59t-13.5 -44.5q0 -23 31 -23q15 0 34 7t39 21q10 7 19 14t23 21.5t36.5 39.5t60.5 67l14 15l7 -6l-14 -16q-41 -46 -64.5 -72
t-38 -40.5t-24 -22t-21.5 -14.5q-20 -12 -37 -18t-34 -6q-52 0 -52 69q0 27 4 49t13 41l1 2q-140 -160 -169 -160q-6 0 -7 7l2 4q16 24 44 79q34 79 47 101q-24 -27 -83 -76q-12 -14 -28 -28q-20 -18 -44.5 -34t-48.5 -28t-46 -19.5t-37 -7.5q-26 0 -26 29q0 15 8.5 32
t20.5 32t26.5 25t26.5 10q16 0 16 -15q0 -25 -49 -42l-7 -3q-14 -5 -23 -16t-9 -23q0 -19 16 -19q14 0 37 16t49 41.5t52.5 57.5t47.5 63.5t34.5 59t13.5 44.5q0 23 -31 23q-15 0 -34 -7t-34 -17.5t-57 -58t-80 -89.5l-14 -15z" />
    <glyph glyph-name="afii10073" unicode="&#x437;" horiz-adv-x="285" 
d="M397 180q-60 -70 -129 -125q-4 -5 -13 -13q-15 -13 -32 -20h-2q-40 -21 -84 -21q-70 0 -70 64q0 45 38 45q32 0 32 -36q0 -35 -32 -35q-13 0 -24 9q2 -32 54 -32q29 0 69.5 49.5t40.5 81.5q0 25 -22 25q-6 0 -19.5 -1.5t-19.5 -1.5q-7 1 -7 4q0 6 6.5 7l19.5 3
q40 6 71 29q40 32 40 63q0 22 -22 22q-27 0 -64 -29q-50 -36 -78 -58t-65 -67l-3 12q43 53 148 130q53 29 79 25q56 1 56 -51q0 -60 -90 -80q-10 -1 -28 -4q12 -3 26 -8q22 -11 22 -50q0 -4 -1.5 -13t-1.5 -15v-2q40 33 95 95z" />
    <glyph glyph-name="afii10074" unicode="&#x438;" horiz-adv-x="352" 
d="M470 184l-14 -16q-41 -45 -63.5 -70t-36 -39t-23 -21t-23.5 -16q-18 -11 -34 -17.5t-25 -6.5q-23 0 -23 38q0 21 7 41t24 45q-56 -56 -101 -89.5t-64 -33.5q-10 0 -15.5 10.5t-5.5 28.5q0 17 2 30.5t8 27t16.5 27.5t27.5 33l81 94q8 9 11 13.5t3 6.5q0 4 -4 4
t-17.5 -10.5t-30.5 -27t-36 -36t-33 -36.5l-7 7q13 15 22.5 25.5t18.5 19.5t18.5 18t23.5 21q29 25 43 37.5t15 13.5q12 9 20 9q10 0 16.5 -8.5t6.5 -20.5q0 -5 -1 -10t-5 -11.5t-10.5 -15.5t-17.5 -22l-79 -98q-27 -34 -42.5 -53.5t-23 -30.5t-9 -16.5t-1.5 -11.5
q0 -9 7 -9q8 0 28.5 13t46 33.5t52 45t47.5 48.5l31 35q20 24 33 39t22.5 27.5t19.5 25t24 31.5q4 7 9 7q8 0 15 -10t7 -21q0 -8 -5.5 -18.5t-21.5 -30.5l-85 -111q-23 -29 -37.5 -48t-22.5 -31t-11 -19t-3 -11q0 -6 6 -6q13 0 36.5 13t45.5 32q8 7 14 12t17 16.5t30.5 33.5
t54.5 61l13 15z" />
    <glyph glyph-name="afii10075" unicode="&#x439;" horiz-adv-x="352" 
d="M470 184l-14 -16q-41 -45 -63.5 -70t-36 -39t-23 -21t-23.5 -16q-18 -11 -34 -17.5t-25 -6.5q-23 0 -23 38q0 21 7 41t24 45q-56 -56 -101 -89.5t-64 -33.5q-10 0 -15.5 10.5t-5.5 28.5q0 17 2 30.5t8 27t16.5 27.5t27.5 33l81 94q8 9 11 13.5t3 6.5q0 4 -4 4
t-17.5 -10.5t-30.5 -27t-36 -36t-33 -36.5l-7 7q13 15 22.5 25.5t18.5 19.5t18.5 18t23.5 21q29 25 43 37.5t15 13.5q12 9 20 9q10 0 16.5 -8.5t6.5 -20.5q0 -5 -1 -10t-5 -11.5t-10.5 -15.5t-17.5 -22l-79 -98q-27 -34 -42.5 -53.5t-23 -30.5t-9 -16.5t-1.5 -11.5
q0 -9 7 -9q8 0 28.5 13t46 33.5t52 45t47.5 48.5l31 35q20 24 33 39t22.5 27.5t19.5 25t24 31.5q4 7 9 7q8 0 15 -10t7 -21q0 -8 -5.5 -18.5t-21.5 -30.5l-85 -111q-23 -29 -37.5 -48t-22.5 -31t-11 -19t-3 -11q0 -6 6 -6q13 0 36.5 13t45.5 32q8 7 14 12t17 16.5t30.5 33.5
t54.5 61l13 15zM470 425q0 -32 -34 -51q-29 -17 -66 -17q-39 0 -66 18q-30 19 -30 54q0 20 15 36t36 16q31 2 34 -36q-2 -40 -51 -26q12 -29 33.5 -36.5t36.5 -7.5q78 0 78 52q0 14 -9 25t-22 11h-4h-4q-5 0 -5 3q0 7 18 7q17 0 29 -17q11 -15 11 -31z" />
    <glyph glyph-name="afii10076" unicode="&#x43a;" horiz-adv-x="334" 
d="M91 167l11 12q9 10 19.5 20t23.5 21.5t30.5 24.5t41.5 31q62 76 98 120.5t59 70.5t39.5 41.5t38.5 34.5q66 57 98 57q23 0 23 -25q0 -22 -23 -56t-62 -72t-90 -77t-107 -71q-19 -24 -32.5 -41t-25 -32t-23.5 -32t-29 -41q29 29 49.5 48.5t38 34.5t33 27t35.5 25
q24 17 37.5 23.5t22.5 6.5q13 0 21.5 -17t8.5 -41q0 -35 -32.5 -53.5t-113.5 -29.5q18 -24 18 -48q0 -18 -11.5 -38.5t-37.5 -49.5l-5 -5q-9 -10 -11.5 -14t-2.5 -9q0 -6 6 -6q4 0 12.5 4t19 10t22 14t22.5 16q10 8 16.5 14t18 18t30.5 33t54 59l13 15l8 -6l-14 -16
q-34 -38 -54 -60t-32.5 -35t-21 -20.5t-20.5 -16.5q-23 -17 -43.5 -27t-32.5 -10q-26 0 -26 46q0 27 14 44l42 55q11 14 11 22q0 7 -9 9l-6 1q-14 2 -17 2.5t-3 4.5q0 7 10 7l13 -1l6 -2q3 -1 6 -1q11 0 32 14.5t41.5 34t36 39t15.5 30.5q0 5 -5 5q-14 0 -44 -20t-68 -53
t-79.5 -74.5t-78.5 -84.5l-14 -17q-5 -5 -9 -10.5t-8 -10.5q-4 -6 -8 -11q-11 -17 -16.5 -22.5t-10.5 -5.5q-7 0 -13 10t-6 21q0 8 3 15t12 18q15 19 29 37l28 36q34 45 54 71.5t25 34.5q-48 -34 -83 -70l-11 -13zM305 318q53 38 100 77.5t82 74.5t55 63t20 43t-12 15
q-14 0 -38 -22q-17 -16 -30 -29.5t-31 -35t-44.5 -56.5t-71.5 -93q-2 -2 -10.5 -12.5t-19.5 -24.5z" />
    <glyph glyph-name="afii10077" unicode="&#x43b;" horiz-adv-x="326" 
d="M270 166q-113 -100 -158 -133.5t-64 -33.5q-10 0 -15.5 10.5t-5.5 28.5q0 17 2 30.5t20.5 52.5t51.5 59q37 5 14.5 -22.5t-45 -61t-25 -53.5t-2.5 -26q0 -9 7 -9q8 0 28.5 13t46 33.5t151.5 131.5q24 21 37 36t22.5 27.5t19.5 25t24 31.5q4 7 9 7q8 0 15 -10t7 -21
q0 -8 -5.5 -18.5t-21.5 -30.5l-85 -111q-23 -29 -37.5 -48t-22.5 -31t-11 -19t-3 -11q0 -6 6 -6q13 0 36.5 13t45.5 32q8 7 14 12t17 16.5t30.5 33.5t54.5 61l13 15l8 -6l-14 -16q-41 -45 -63.5 -70t-36 -39t-23 -21t-23.5 -16q-18 -11 -34 -17.5t-25 -6.5q-23 0 -23 38
q0 21 7 41t56 89z" />
    <glyph glyph-name="afii10078" unicode="&#x43c;" horiz-adv-x="456" 
d="M101 180q37 5 14.5 -22.5t-45 -61t-25 -53.5t-2.5 -26q0 -9 7 -9q8 0 28.5 13t46 33.5t109.5 100.5l81 97q28 37 39 46t29 10t16.5 -10t-13 -26t-18 -24t-17.5 -22l-79 -98q-27 -34 -42.5 -53.5t-23 -30.5t-9 -16.5t-1.5 -11.5q0 -9 7 -9q8 0 28.5 13t46 33.5t52 45
t47.5 48.5l33 36q20 24 33 39t22.5 27.5t19.5 25t24 31.5q4 7 9 7q8 0 15 -10t7 -21q0 -8 -5.5 -18.5t-21.5 -30.5l-85 -111q-23 -29 -37.5 -48t-22.5 -31t-11 -19t-3 -11q0 -6 6 -6q13 0 36.5 13t45.5 32q8 7 14 12t17 16.5t30.5 33.5t54.5 61l13 15l8 -6l-14 -16
q-41 -45 -63.5 -70t-36 -39t-23 -21t-23.5 -16q-18 -11 -34 -17.5t-25 -6.5q-23 0 -23 38q0 21 7 41t22 44q-56 -56 -101 -89.5t-64 -33.5q-10 0 -15.5 10.5t-5.5 28.5q0 17 2 30.5t9 25.5t26 35q-60 -62 -105 -95.5t-64 -33.5q-10 0 -15.5 10.5t-5.5 28.5q0 17 2 30.5
t20.5 52.5t51.5 59z" />
    <glyph glyph-name="afii10079" unicode="&#x43d;" horiz-adv-x="352" 
d="M192 237q24 22 27 26.5t3 6.5q0 4 -4 4t-17.5 -10.5t-30.5 -27t-36 -36t-33 -36.5l-7 7q13 15 22.5 25.5t18.5 19.5t18.5 18t23.5 21q29 25 43 37.5t15 13.5q12 9 20 9q10 0 16.5 -8.5t6.5 -20.5q0 -5 -1 -10t-5 -11.5t-10.5 -15.5t-17.5 -22l-48 -61l89 -3l16 20
q20 24 33 39t22.5 27.5t19.5 25t24 31.5q4 7 9 7q8 0 15 -10t7 -21q0 -8 -5.5 -18.5t-21.5 -30.5l-85 -111q-23 -29 -37.5 -48t-22.5 -31t-11 -19t-3 -11q0 -6 6 -6q13 0 36.5 13t45.5 32q8 7 14 12t17 16.5t30.5 33.5t54.5 61l13 15l8 -6l-14 -16q-41 -45 -63.5 -70
t-36 -39t-23 -21t-23.5 -16q-18 -11 -34 -17.5t-25 -6.5q-23 0 -23 38q0 21 7 41q7 19 39 72l-89 2l-40 -54q-27 -35 -39 -50.5t-23 -30.5t-17 -20.5t-11 -5.5q-8 0 -14.5 11t-6.5 24q0 10 18 34l102 130q4 6 7 9.5t5.5 7t6.5 8.5t19 23z" />
    <glyph glyph-name="afii10080" unicode="&#x43e;" horiz-adv-x="273" 
d="M391 184q-37 -42 -69 -66.5t-52 -24.5q-10 0 -17 6q-13 -14 -22 -23l-15 -15t-11 -10.5t-10 -8.5q-23 -20 -44.5 -33t-31.5 -13q-22 0 -37.5 24.5t-15.5 58.5q0 24 5 44t16 39t28.5 37.5t42.5 38.5q20 16 43 30t46 24.5t44 16.5t36 6q29 0 29 -25q0 -5 -0.5 -9t-3.5 -19
h-10q4 15 4 22q0 21 -15 21q-18 0 -47.5 -19.5t-68.5 -56.5q-27 -26 -44.5 -48t-33.5 -50q-13 -23 -21 -37t-12 -24t-5.5 -17t-1.5 -16q0 -13 7 -22.5t16 -9.5q6 0 26 12.5t39 28.5q14 11 26 24t34 39v12q0 18 9 42t21.5 45.5t26.5 37t24 15.5q8 0 13.5 -6t5.5 -14
q0 -9 -7.5 -24.5t-19.5 -34.5t-27.5 -38.5t-31.5 -36.5q8 -5 12 -5q8 0 17.5 4t22.5 14.5t31 27t42 42.5z" />
    <glyph glyph-name="afii10081" unicode="&#x43f;" horiz-adv-x="341" 
d="M459 184l-13 -16q-38 -42 -59.5 -65t-34 -36t-20.5 -20.5t-20 -17.5q-50 -41 -71 -41q-27 0 -27 37q0 53 40 101l54 66q34 42 49.5 64.5t15.5 32.5q0 8 -7 8q-5 0 -21 -11t-38 -30q-14 -13 -35 -33t-42 -41t-39.5 -40t-28.5 -31l-31 -34q-13 -15 -25 -30.5t-23 -30.5
t-17 -20.5t-11 -5.5q-8 0 -14.5 11t-6.5 24q0 10 18 34l102 130q4 6 7 9.5t5.5 7t6.5 8.5t10 13q25 32 34 46t9 20q0 4 -4 4q-3 0 -10 -7t-24 -27q-11 -12 -26 -29.5t-35 -39.5l-37 -41l-7 7l10 10q45 51 70 78.5t37 40.5t16 15t8 2q8 0 14 -13.5t6 -33.5t-13 -43.5
t-46 -64.5q29 30 47.5 48.5l30.5 30.5t21 20t20 17q49 39 62 39q11 0 18 -12.5t7 -33.5q0 -28 -9 -49.5t-33 -50.5l-93 -112q-14 -17 -19.5 -25.5t-5.5 -13.5q0 -11 10 -11q9 0 25.5 10t38 28t46 43.5t50.5 55.5l29 32l15 16l7 7z" />
    <glyph glyph-name="afii10082" unicode="&#x440;" horiz-adv-x="332" 
d="M80 158l16 16l70 70t48.5 50t43.5 47t55 61l20 23q6 6 9 6q5 0 11 -9.5t6 -17.5q0 -17 -23 -55t-74 -104l-30 -39q24 25 47.5 47t44 38t35.5 25t23 9q14 0 22.5 -20t8.5 -51q0 -106 -129 -199q-41 -29 -86 -46t-82 -17q-11 0 -18 2t-19 8l-206 -273q-6 -7 -12 -7
q-8 0 -14.5 8.5t-6.5 18.5q0 7 4.5 17t15.5 27.5t31 43.5t51 66l107 139q-2 7 -3 11t-1 10q0 15 8 31h10q-8 -20 -8 -30v-5.5t2 -7.5l123 155q8 11 16 20.5t16 20.5q11 14 22 27.5t22 27.5l42 54q5 8 11 14.5t11 13.5l4 6q1 1 1 3t-3 2q-2 0 -3 -1l-6 -7q-44 -48 -71 -77.5
t-49 -52t-43.5 -44t-53.5 -52.5l-11 -10zM85 10q12 -8 25 -8q23 0 54.5 17t64.5 45.5t63.5 65.5t53.5 77q5 11 11 21t12 21q19 28 19 51q0 15 -10 15q-4 0 -16 -8t-28 -21t-35 -30t-38 -36q-29 -29 -54.5 -57.5t-55.5 -67.5z" />
    <glyph glyph-name="afii10083" unicode="&#x441;" horiz-adv-x="238" 
d="M356 184l-14 -16q-41 -46 -64.5 -72t-38 -40.5t-24 -22t-21.5 -14.5q-20 -12 -37 -18t-34 -6q-52 0 -52 69q0 27 4 49t13.5 41.5t24.5 38t37 38.5q20 18 44.5 34t48.5 28t46 19.5t37 7.5q26 0 26 -29q0 -15 -8.5 -32t-20.5 -32t-26.5 -25t-26.5 -10q-16 0 -16 15
q0 25 49 42l7 3q14 5 23 16t9 23q0 19 -16 19q-14 0 -37 -16t-49 -41.5t-52.5 -57.5t-47.5 -63.5t-34.5 -59t-13.5 -44.5q0 -23 31 -23q15 0 34 7t39 21q10 7 19 14t23 21.5t36.5 39.5t60.5 67l14 15z" />
    <glyph glyph-name="afii10084" unicode="&#x442;" horiz-adv-x="491" 
d="M82 159l24 26q34 38 57.5 63t39 39.5t24 20.5t13.5 6q15 0 15 -33q0 -16 -1.5 -26.5t-7 -22.5t-17.5 -29t-33 -45q68 76 112.5 116t60.5 40q22 0 22 -54q0 -23 -8 -42.5t-31 -50.5q134 146 167 146q11 0 17 -14t6 -39t-8.5 -46t-28.5 -44l-87 -101q-20 -24 -27.5 -35.5
t-7.5 -19.5q0 -7 7 -7q13 0 35 12t45 32q9 7 15.5 13t17.5 17.5t30.5 33t54.5 60.5l13 15l8 -6l-14 -16q-33 -37 -52.5 -58.5t-32 -35t-21.5 -21.5t-21 -17q-47 -38 -77 -38q-24 0 -24 32q0 55 39 100l64 75q29 34 42 54.5t13 33.5q0 11 -9 11q-7 0 -31 -20.5t-57 -52.5
t-69 -71t-67 -76l-39 -47q-3 -4 -6 -7.5t-5 -7.5q-18 -22 -25 -22t-13.5 11t-6.5 23q0 3 0.5 4.5t2.5 5.5t7 11t14 19l108 141q24 32 35 50.5t11 28.5q0 9 -7 9q-10 0 -33 -19t-68 -65q-18 -18 -37 -37.5t-36 -38t-31 -34t-22 -24.5l-26 -30q-5 -7 -9.5 -13t-9.5 -11
q-18 -23 -22.5 -27.5t-8.5 -4.5q-5 0 -13 10.5t-8 18.5q0 12 20 38l160 207q16 22 16 28q0 4 -4 4q-3 0 -8.5 -4.5t-18 -17.5t-34.5 -36.5t-56 -61.5l-29 -32z" />
    <glyph glyph-name="afii10085" unicode="&#x443;" horiz-adv-x="327" 
d="M90 167l71 79q8 9 15 17t16 19q17 20 26.5 27.5t19.5 7.5q9 0 14.5 -10.5t5.5 -27.5q0 -16 -8.5 -36.5t-25.5 -41.5l-103 -136q-8 -11 -14 -23.5t-6 -20.5q0 -11 10 -11q15 0 43 21.5t62.5 58t72 83.5t72.5 98l19 29q7 11 10 13.5t8 2.5q8 0 13.5 -8t5.5 -19
q0 -9 -4.5 -19.5t-15.5 -27.5l-41 -61l-45 -69l-38 -56q-5 -8 -9.5 -15t-9.5 -14q22 12 40 23.5t36.5 28t40.5 39t53 57.5l14 15l7 -6l-14 -16q-32 -36 -55.5 -60.5t-44.5 -42.5t-42 -31.5t-49 -28.5q-2 -3 -4.5 -6t-4.5 -7q-8 -12 -16.5 -24t-16.5 -25
q-81 -121 -152 -186.5t-121 -65.5q-27 0 -27 27q0 23 25.5 59.5t69.5 76.5q16 15 34 29.5t39.5 30.5t47.5 34t60 40q10 17 19 31t18.5 29t21.5 33.5t29 44.5q-51 -60 -90.5 -92.5t-61.5 -32.5q-24 0 -24 40q0 65 61 140l39 48q54 66 54 76q0 4 -4 4q-5 0 -14.5 -9t-29.5 -34
q-5 -5 -9 -10l-8 -10l-78 -86zM162 -32q-11 -9 -19.5 -15t-14.5 -11q-32 -24 -53.5 -41t-38.5 -32.5t-34 -32t-40 -39.5q-28 -29 -40.5 -48.5t-12.5 -33.5q0 -15 13 -15q18 0 46.5 22t61.5 63q15 18 26 32t25 33t32.5 46.5t48.5 71.5z" />
    <glyph glyph-name="afii10086" unicode="&#x444;" horiz-adv-x="508" 
d="M233 10l-212 -281q-6 -7 -12 -7q-8 0 -14.5 8.5t-6.5 18.5q0 7 4.5 17t15.5 27.5t31 43.5t51 66l107 139l8 9l123 155q8 11 16 20.5t16 20.5q11 14 22 27.5t22 27.5q47 62 85 117l33 -7q-21 -34 -41 -67.5t-71 -99.5l-30 -39q-51 -72 -81 -111zM259 104q-19 -22 -28 -31
l-15 -15q-6 -6 -11 -10.5t-10 -8.5q-23 -20 -44.5 -33t-31.5 -13q-22 0 -37.5 24.5t-15.5 58.5q0 24 5 44t16 39t28.5 37.5t42.5 38.5q20 16 43 30t46 24.5t44 16.5t36 6q29 0 29 -25q0 -5 -1 -18t-13 -46l-24 -44q-12 -19 -27.5 -38.5t-31.5 -36.5zM346 274v7q0 21 -15 21
q-18 0 -47.5 -19.5t-68.5 -56.5q-27 -26 -44.5 -48t-33.5 -50q-13 -23 -21 -37t-12 -24t-5.5 -17t-1.5 -16q0 -13 7 -22.5t16 -9.5q6 0 26 12.5t39 28.5q14 11 26 24t34 39q6 8 27 32.5t40 53.5v2l4 5q11 17 18.5 33t7.5 27zM357 200q19 22 28 31l15 15q6 6 11 10.5t10 8.5
q23 20 44.5 33t31.5 13q22 0 37.5 -24.5t15.5 -58.5q0 -24 -5 -44t-16 -39t-28.5 -37.5t-42.5 -38.5q-20 -16 -43 -30t-46 -24.5t-44 -16.5t-36 -6q-29 0 -29 25q0 5 1 18t13 46l24 44q12 19 27.5 38.5t31.5 36.5zM270 30v-7q0 -21 15 -21q18 0 47.5 19.5t68.5 56.5
q27 26 44.5 48t33.5 50q13 23 21 37t12 24t5.5 17t1.5 16q0 12 -7 22t-16 10q-6 0 -26 -12.5t-39 -28.5q-14 -11 -26 -24t-34 -39q-6 -8 -27 -32.5t-40 -53.5v-2l-4 -5q-11 -17 -18.5 -33t-7.5 -27zM493 107q8 -5 12 -5q8 0 17.5 4t22.5 14.5t31 27t42 42.5l7 -6
q-37 -42 -69 -66.5t-52 -24.5q-10 0 -17 6z" />
    <glyph glyph-name="afii10087" unicode="&#x445;" horiz-adv-x="282" 
d="M91 167l18 20q57 63 98 97.5t60 34.5q12 0 19 -14t7 -37q0 -17 -3 -30.5t-10 -31.5q45 61 70.5 87t39.5 26q8 0 13.5 -6t5.5 -14q0 -12 -9.5 -34t-23.5 -44q-11 -15 -23 -24t-23 -9q-5 0 -9.5 4t-4.5 9q0 16 10 28.5t39 30.5l11 8q23 15 23 32q0 10 -8 10q-11 0 -36 -26
t-66 -83q-10 -14 -19.5 -27.5t-20.5 -29.5t-24 -36t-29 -46q-9 -15 -13 -23.5t-4 -16.5q0 -14 11 -14q10 0 31.5 13.5t46.5 34.5q8 7 13.5 12.5t16 16.5t29 31.5t52.5 58.5l14 15l7 -6l-14 -16q-35 -39 -54 -60.5t-31 -34t-20 -20t-21 -17.5q-46 -37 -71 -37q-31 0 -31 47
q0 18 3.5 33.5t11.5 34.5q-42 -57 -73.5 -86t-48.5 -29q-18 0 -18 20q0 16 9 35.5t21.5 37t27 29.5t26.5 12q15 0 15 -16q0 -14 -14.5 -29t-46.5 -35l-11 -8q-17 -9 -17 -28q0 -9 8 -9q13 0 40.5 26.5t64.5 74.5q25 32 47 62.5t38 56t25 44t9 26.5q0 12 -10 12
q-14 0 -51 -31.5t-86 -85.5l-30 -33z" />
    <glyph glyph-name="afii10088" unicode="&#x446;" horiz-adv-x="352" 
d="M470 184l-14 -16q-41 -45 -63.5 -70t-36 -39t-23 -21t-23.5 -16q-18 -11 -34 -17.5t-25 -6.5q-23 0 -23 38q0 21 7 41t24 45q-56 -56 -101 -89.5t-64 -33.5q-10 0 -15.5 10.5t-5.5 28.5q0 17 2 30.5t8 27t16.5 27.5t27.5 33l81 94q8 9 11 13.5t3 6.5q0 4 -4 4
t-17.5 -10.5t-30.5 -27t-36 -36t-33 -36.5l-7 7q13 15 22.5 25.5t18.5 19.5t18.5 18t23.5 21q29 25 43 37.5t15 13.5q12 9 20 9q10 0 16.5 -8.5t6.5 -20.5q0 -5 -1 -10t-5 -11.5t-10.5 -15.5t-17.5 -22l-79 -98q-27 -34 -42.5 -53.5t-23 -30.5t-9 -16.5t-1.5 -11.5
q0 -9 7 -9q8 0 28.5 13t46 33.5t52 45t47.5 48.5l31 35q20 24 33 39t22.5 27.5t19.5 25t24 31.5q4 7 9 7q8 0 15 -10t7 -21q0 -8 -5.5 -18.5t-21.5 -30.5l-85 -111q-23 -29 -37.5 -48t-22.5 -31t-11 -19t-3 -11q0 -6 6 -6q13 0 36.5 13t45.5 32q8 7 14 12t17 16.5t30.5 33.5
t54.5 61l13 15zM295 9l13 12q-8 -14 -10 -26q1 2 1 -20q0 -33 -8 -51q-14 -31 -42 -51.5t-59 -20.5q-8 0 -22.5 -2t-21.5 -2q-6 0 -7 5l3 4l-2 3l2 1q27 0 50 13q70 42 91 95q3 15 12 40z" />
    <glyph glyph-name="afii10089" unicode="&#x447;" horiz-adv-x="193" 
d="M91 167l94 105q-13 3 -13 16q0 9 5 20.5t13 21t16.5 16t16.5 6.5q5 0 9.5 -5t4.5 -10q0 -7 -3 -13t-16 -25q-2 -4 -4 -7l-4 -6q5 3 8.5 5t5.5 4q8 6 10.5 7.5t5.5 1.5q19 0 19 -31q0 -26 -10 -50.5t-33 -49.5l-73 -83q-18 -20 -29 -32.5t-16.5 -20.5t-7.5 -12.5t-2 -8.5
q0 -8 9 -8q11 0 33.5 13.5t47.5 34.5q9 8 15.5 13.5t17 17t29 31.5t51.5 57l14 15l7 -6l-14 -16q-39 -44 -64.5 -71t-37.5 -38q-65 -60 -100 -60q-11 0 -18 11t-7 28q0 28 11 51t40 55l70 77q16 18 26.5 29.5t15.5 19t7 12t2 9.5t-3 5q-2 0 -7 -4l-5 -5q-17 -15 -31 -15
l-99 -112z" />
    <glyph glyph-name="afii10090" unicode="&#x448;" horiz-adv-x="501" 
d="M218 274q-4 0 -17.5 -10.5t-30.5 -27t-36 -36t-33 -36.5l-7 7q13 15 22.5 25.5t18.5 19.5t18.5 18t23.5 21q29 25 43 37.5t15 13.5q12 9 20 9q10 0 16.5 -8.5t6.5 -20.5q0 -5 -1 -10t-5 -11.5t-10.5 -15.5t-17.5 -22l-79 -98q-27 -34 -42.5 -53.5t-23 -30.5t-9 -16.5
t-1.5 -11.5q0 -9 7 -9q8 0 28.5 13t46 33.5t109.5 100.5l81 97q28 37 39 46t29 10t16.5 -10t-13 -26t-18 -24t-17.5 -22l-79 -98q-27 -34 -42.5 -53.5t-23 -30.5t-9 -16.5t-1.5 -11.5q0 -9 7 -9q8 0 28.5 13t46 33.5t52 45t47.5 48.5l33 36q20 24 33 39t22.5 27.5t19.5 25
t24 31.5q4 7 9 7q8 0 15 -10t7 -21q0 -8 -5.5 -18.5t-21.5 -30.5l-85 -111q-23 -29 -37.5 -48t-22.5 -31t-11 -19t-3 -11q0 -6 6 -6q13 0 36.5 13t45.5 32q8 7 14 12t17 16.5t30.5 33.5t54.5 61l13 15l8 -6l-14 -16q-41 -45 -63.5 -70t-36 -39t-23 -21t-23.5 -16
q-18 -11 -34 -17.5t-25 -6.5q-23 0 -23 38q0 21 7 41t22 44q-56 -56 -101 -89.5t-64 -33.5q-10 0 -15.5 10.5t-5.5 28.5q0 17 2 30.5t9 25.5t26 35q-60 -62 -105 -95.5t-64 -33.5q-10 0 -15.5 10.5t-5.5 28.5q0 17 2 30.5t8 27t16.5 27.5t27.5 33l81 94q8 9 11 13.5t3 6.5
q0 4 -4 4z" />
    <glyph glyph-name="afii10091" unicode="&#x449;" horiz-adv-x="501" 
d="M218 274q-4 0 -17.5 -10.5t-30.5 -27t-36 -36t-33 -36.5l-7 7q13 15 22.5 25.5t18.5 19.5t18.5 18t23.5 21q29 25 43 37.5t15 13.5q12 9 20 9q10 0 16.5 -8.5t6.5 -20.5q0 -5 -1 -10t-5 -11.5t-10.5 -15.5t-17.5 -22l-79 -98q-27 -34 -42.5 -53.5t-23 -30.5t-9 -16.5
t-1.5 -11.5q0 -9 7 -9q8 0 28.5 13t46 33.5t109.5 100.5l81 97q28 37 39 46t29 10t16.5 -10t-13 -26t-18 -24t-17.5 -22l-79 -98q-27 -34 -42.5 -53.5t-23 -30.5t-9 -16.5t-1.5 -11.5q0 -9 7 -9q8 0 28.5 13t46 33.5t52 45t47.5 48.5l33 36q20 24 33 39t22.5 27.5t19.5 25
t24 31.5q4 7 9 7q8 0 15 -10t7 -21q0 -8 -5.5 -18.5t-21.5 -30.5l-85 -111q-23 -29 -37.5 -48t-22.5 -31t-11 -19t-3 -11q0 -6 6 -6q13 0 36.5 13t45.5 32q8 7 14 12t17 16.5t30.5 33.5t54.5 61l13 15l8 -6l-14 -16q-41 -45 -63.5 -70t-36 -39t-23 -21t-23.5 -16
q-18 -11 -34 -17.5t-25 -6.5q-23 0 -23 38q0 21 7 41t22 44q-56 -56 -101 -89.5t-64 -33.5q-10 0 -15.5 10.5t-5.5 28.5q0 17 2 30.5t9 25.5t26 35q-60 -62 -105 -95.5t-64 -33.5q-10 0 -15.5 10.5t-5.5 28.5q0 17 2 30.5t8 27t16.5 27.5t27.5 33l81 94q8 9 11 13.5t3 6.5
q0 4 -4 4zM444 9l13 12q-8 -14 -10 -26q1 2 1 -20q0 -33 -8 -51q-14 -31 -42 -51.5t-59 -20.5q-8 0 -22.5 -2t-21.5 -2q-6 0 -7 5l3 4l-2 3l2 1q27 0 50 13q70 42 91 95q3 15 12 40z" />
    <glyph glyph-name="afii10092" unicode="&#x44a;" horiz-adv-x="276" 
d="M250 72q17 -13 40.5 10.5t78.5 88.5h12q-61 -72 -81.5 -92t-32 -21.5t-22.5 9.5q-9 -10 -15.5 -16t-10.5 -10l-7 -7q-3 -3 -6 -5q-15 -14 -31 -22t-32.5 -8t-28 13t-14 36t12 58t55 84t51 60.5t15.5 19t7 12t2 9.5t-3 5q-2 0 -7 -4l-5 -5q-17 -15 -31 -15l-99 -112l-7 7
l94 105q-13 3 -13 16q0 9 5 20.5t13 21t16.5 16t16.5 6.5q5 0 9.5 -5t4.5 -10q0 -7 -3 -13t-16 -25q-2 -4 -4 -7l-4 -6q5 3 8.5 5t5.5 4q8 6 10.5 7.5t5.5 1.5q19 0 19 -31q0 -26 -46 -89q53 38 75 33q12 -3 14 -20q1 -3 1 -6v-13l-9 1q2 10 1 15q-2 15 -14 15
q-14 0 -34 -13.5t-32 -22t-32 -32.5t-35 -60.5t-3 -57t26.5 -12t27.5 19.5q8 7 16 15.5t23 26.5l-2 9q-1 13 2.5 29.5t11 31.5t16.5 24.5t18 10.5q5 -1 10 -5t6 -10q0 -6 -3.5 -16.5t-10.5 -23.5t-17 -26t-19 -25z" />
    <glyph glyph-name="afii10093" unicode="&#x44b;" horiz-adv-x="411" 
d="M235 72q-14 -15 -20.5 -21t-10.5 -10l-7 -7q-3 -3 -6 -5q-15 -14 -31 -22t-32.5 -8t-28 13t-14 36t12 58t38.5 64.5t35 41.5q2 7 11 18t14 18q5 5 5 8t-2 3t-11 -7.5t-20 -18t-23 -22t-20 -20.5l-28 -31l-7 7l18 19q11 12 20 22t18.5 19t20 19t24.5 23q19 17 29 26.5
t15.5 14t8 5t5.5 0.5q9 0 17.5 -8.5t8.5 -16.5t-16 -29l-61 -77q53 38 75 33q12 -3 14 -20q1 -3 1 -6v-13l-9 1q2 10 1 15q-2 15 -14 15q-14 0 -34 -13.5t-32 -22t-32 -32.5t-35 -60.5t-3 -57t26.5 -12t27.5 19.5q8 7 16 15.5t23 26.5l-2 9q-1 13 2.5 29.5t11 31.5
t16.5 24.5t18 10.5q5 -1 10 -5t6 -10q0 -6 -3.5 -16.5t-10.5 -23.5t-17 -26t-19 -25zM241 96l82 84q58 56 68.5 66t24.5 23q19 17 29 26.5t15.5 14t8 5t5.5 0.5q9 0 17.5 -8.5t8.5 -16.5t-16 -29l-136 -178q-15 -20 -23.5 -31t-12 -17.5t-4.5 -10t-1 -8.5q0 -9 8 -9
q4 0 13.5 4.5t21.5 11.5t25 16.5t24 18.5q7 6 12.5 11t15.5 16t29 31.5t53 58.5l14 15l7 -6l-14 -16q-38 -42 -58.5 -65t-33.5 -36t-22 -20t-22 -17q-47 -33 -66 -33q-11 0 -17.5 11.5t-6.5 30.5q0 15 2 27t8 24.5t16 27t27 34.5l27 34q14 17 30 36t21 26q5 5 5 8t-2 3
t-11 -7.5t-20 -18t-23 -22t-137 -135.5z" />
    <glyph glyph-name="afii10094" unicode="&#x44c;" horiz-adv-x="262" 
d="M198 184q53 38 75 33q12 -3 14 -20q1 -3 1 -6v-13l-9 1q2 10 1 15q-2 15 -14 15q-14 0 -34 -13.5t-32 -22t-32 -32.5t-35 -60.5t-3 -57t26.5 -12t27.5 19.5q8 7 16 15.5t23 26.5l-2 9q-1 13 2.5 29.5t11 31.5t16.5 24.5t18 10.5q5 -1 10 -5t6 -10q0 -6 -3.5 -16.5
t-10.5 -23.5t-17 -26t-19 -25q17 -13 40.5 10.5t78.5 88.5h12q-61 -72 -81.5 -92t-32 -21.5t-22.5 9.5q-9 -10 -15.5 -16t-10.5 -10l-7 -7q-3 -3 -6 -5q-15 -14 -31 -22t-32.5 -8t-28 13t-14 36t12 58t38.5 64.5t35 41.5q2 7 11 18t14 18q5 5 5 8t-2 3t-11 -7.5t-20 -18
t-23 -22t-20 -20.5l-28 -31l-7 7l18 19q11 12 20 22t18.5 19t20 19t24.5 23q19 17 29 26.5t15.5 14t8 5t5.5 0.5q9 0 17.5 -8.5t8.5 -16.5t-16 -29z" />
    <glyph glyph-name="afii10095" unicode="&#x44d;" horiz-adv-x="281" 
d="M254 169q-28 -15 -43 -15q-7 0 -14.5 4t-13.5 4q-5 0 -14 -4.5t-10 -4.5q-7 0 -7 5t20 13q18 7 27 7q3 1 16.5 -2.5t20.5 -3.5q1 0 28 10q-1 -2 -0.5 -1.5l1.5 1.5q21 32 34.5 59.5t13.5 44.5q0 23 -31 23q-15 0 -34 -7t-34 -17.5t-57 -58t-80 -89.5l-14 -15l-7 6l14 16
q41 46 85 95t56 56q20 12 37 18t34 6q52 0 48 -79q-3 -57 -23 -85q-36 -58 -52 -72l-6 -6q24 -16 45 5q24 24 79 89h12q-61 -72 -81.5 -92t-32.5 -22q-10 -1 -32 13q-13 -11 -29 -21q-24 -16 -48 -28t-46 -19.5t-37 -7.5q-26 0 -26 29q0 15 8.5 32t20.5 32t26.5 25t26.5 10
q16 0 16 -15q0 -25 -49 -42l-7 -3q-14 -5 -23 -16t-9 -23q0 -19 16 -19q14 0 37 16t49 41.5t52 57.5q23 28 43 55q-2 0 -2.5 2t-3.5 -7z" />
    <glyph glyph-name="afii10096" unicode="&#x44e;" horiz-adv-x="470" 
d="M185 151l-40 -54q-27 -35 -39 -50.5t-23 -30.5t-17 -20.5t-11 -5.5q-8 0 -14.5 11t-6.5 24q0 10 18 34l102 130q4 6 7 9.5t5.5 7t6.5 8.5t19 23q24 22 27 26.5t3 6.5q0 4 -4 4t-17.5 -10.5t-30.5 -27t-36 -36t-33 -36.5l-7 7q13 15 22.5 25.5t18.5 19.5t18.5 18t23.5 21
q29 25 43 37.5t15 13.5q12 9 20 9q10 0 16.5 -8.5t6.5 -20.5q0 -5 -1 -10t-5 -11.5t-10.5 -15.5t-17.5 -22l-48 -61l89 -3q12 -15 11.5 -15t-22.5 1zM582 184q-37 -42 -69 -66.5t-52 -24.5q-10 0 -17 6q-13 -14 -22 -23l-15 -15t-11 -10.5t-10 -8.5q-23 -20 -44.5 -33
t-31.5 -13q-22 0 -37.5 24.5t-15.5 58.5q0 24 5 44t16 39t28.5 37.5t42.5 38.5q20 16 43 30t46 24.5t44 16.5t36 6q29 0 29 -25q0 -5 -0.5 -9t-3.5 -19h-10q4 15 4 22q0 21 -15 21q-18 0 -47.5 -19.5t-68.5 -56.5q-27 -26 -44.5 -48t-33.5 -50q-13 -23 -21 -37t-12 -24
t-5.5 -17t-1.5 -16q0 -13 7 -22.5t16 -9.5q6 0 26 12.5t39 28.5q14 11 26 24t34 39v12q0 18 9 42t21.5 45.5t26.5 37t24 15.5q8 0 13.5 -6t5.5 -14q0 -9 -7.5 -24.5t-19.5 -34.5t-27.5 -38.5t-31.5 -36.5q8 -5 12 -5q8 0 17.5 4t22.5 14.5t31 27t42 42.5z" />
    <glyph glyph-name="afii10097" unicode="&#x44f;" horiz-adv-x="338" 
d="M361 274q10 13 24 32q4 7 9 7q8 0 15 -10t7 -21q0 -8 -5.5 -18.5t-21.5 -30.5l-85 -111q-23 -29 -37.5 -48t-22.5 -31t-11 -19t-3 -11q0 -6 6 -6q13 0 36.5 13t45.5 32q8 7 14 12t17 16.5t30.5 33.5t54.5 61l13 15l8 -6l-14 -16q-41 -45 -63.5 -70t-36 -39t-23 -21
t-23.5 -16q-18 -11 -34 -17.5t-25 -6.5q-23 0 -23 38q0 21 7 41q6 17 44 72q-5 -3 -10 -5q-12 -6 -18 -5h-1q-55 -23 -100.5 -76.5t-86.5 -63.5q-10 0 -15.5 10.5t-5.5 28.5q0 17 2 30.5t20.5 52.5t51.5 59q37 5 14.5 -22.5t-45 -61t-25 -53.5t-2.5 -26q0 -9 7 -9
q8 0 28.5 13t55.5 60.5t92 60.5q-10 4 -18 15q-12 17 -16 38q-3 16 -2 28.5t6.5 23.5t15 21.5t23.5 20.5q12 9 25.5 15.5t26.5 11.5t26 7t23 0q19 -2 22 -18q0 -3 0.5 -11t-2.5 -25zM353 298v4q-3 13 -13 14q-12 2 -29 -7.5t-39 -30.5q-14 -14 -23 -26.5t-17 -28.5
q-6 -13 -9.5 -21.5t-5 -14.5t-2 -10t0.5 -10q2 -8 6.5 -14t12.5 -8q4 -1 15 5t22 15l6 4q28 38 41 53q8 9 14 17q2 2 3 5t3 5v2l2 2q5 10 8.5 19t2.5 16z" />
    <glyph glyph-name="A" unicode="A" horiz-adv-x="877" 
d="M995 184l-4 -5q-9 -10 -18 -19.5t-17 -20.5q-26 -29 -47 -47.5t-41.5 -29.5t-42.5 -15.5t-49 -4.5l-18 -26q-10 -15 -18 -15q-9 0 -20.5 12.5t-11.5 22.5q0 6 4 13q-43 8 -80.5 25.5t-72.5 47.5q-94 -65 -178.5 -99.5t-152.5 -34.5q-32 0 -58.5 8t-46 22.5t-30.5 34.5
t-11 44q0 25 12.5 42t30.5 17q13 0 21 -8t8 -20q0 -22 -25 -38l-8 -4q-8 -5 -10 -8t-2 -8q0 -14 9.5 -27t26 -23t38.5 -16t46 -6q25 0 49 4t50 12t55.5 21.5t64.5 33.5q37 20 59 34t42 29q-43 44 -62 85.5t-19 92.5q0 29 9 54t25 43.5t37.5 29t47.5 10.5q54 0 96 -39
t68 -114q49 43 91.5 82t86.5 82.5t94 94.5t113 117l9 10q5 5 11 9.5t8 4.5q7 0 15 -12.5t8 -23.5q0 -6 -1 -11.5t-6 -14.5t-14.5 -24t-26.5 -41q-13 -20 -36 -53.5t-51.5 -75.5t-62 -91t-68.5 -99.5t-70 -100.5t-67 -95h10q20 0 37 4.5t34.5 15t36.5 28t43 43.5
q19 21 26.5 29.5t16.5 17.5zM1108 624q-44 -47 -85 -89t-83.5 -83.5t-87.5 -83.5t-96 -88q7 -29 9.5 -49.5t2.5 -43.5q0 -17 -1.5 -30t-4.5 -29l16 21l63 90q20 26 39.5 53t40.5 54q53 70 97.5 129.5t76.5 103.5t50 70t18 29q0 2 -2 2q-1 0 -4 -3l-6 -7l-6 -6t-6 -7z
M737 282q-23 71 -64.5 111.5t-93.5 40.5q-19 0 -35.5 -8t-29 -21.5t-19.5 -31.5t-7 -39q0 -49 21.5 -97t61.5 -90q20 14 44 32.5t47 37.5t43 36t32 29zM738 92q9 26 12.5 45.5t3.5 43.5q0 41 -13 87q-14 -14 -35 -31.5t-43.5 -35.5t-44.5 -34.5t-39 -28.5q35 -32 72 -53
t67 -25z" />
    <glyph glyph-name="B" unicode="B" horiz-adv-x="927" 
d="M1125 616q-61 -3 -104 -31q25 -31 35 -55t10 -53q0 -113 -153 -155q56 -38 56 -99q0 -57 -37.5 -108.5t-104.5 -87.5q-62 -33 -105 -33q-26 0 -40.5 12t-14.5 33q0 32 19 66.5t50.5 64.5t71.5 51.5t82 29.5v-9q-41 -9 -79.5 -31t-68.5 -50.5t-48 -60.5t-18 -61
q0 -16 9.5 -25t26.5 -9q49 0 123 83q95 107 95 181q0 37 -28 49q-26 -5 -36.5 -7t-18.5 -2q-11 0 -22.5 5.5t-11.5 10.5t11 10.5t22 5.5q8 0 17 -1.5t37 -8.5q26 14 49 36t40 48t26.5 54t9.5 54q0 29 -16 54q-35 -25 -78 -75t-88 -120q-39 -58 -71 -101t-61 -76t-57.5 -58
t-61.5 -47q-75 -50 -160.5 -78.5t-162.5 -28.5q-79 0 -122.5 28t-43.5 79q0 23 11.5 38.5t28.5 15.5q12 0 19.5 -7t7.5 -19q0 -20 -21 -35l-9 -6q-12 -8 -12 -20q0 -14 10.5 -25.5t28.5 -20.5t42.5 -14t52.5 -5q71 0 142.5 27t131.5 76q35 29 75.5 73.5t87.5 104.5
q48 64 86.5 110t73 80.5t69 61.5t75.5 53q-43 41 -95 59.5t-126 18.5q-85 0 -166.5 -23.5t-145 -62t-102.5 -88t-39 -100.5q0 -45 34 -73.5t89 -28.5q50 0 101.5 16t93 41.5t67.5 57.5t26 63q0 29 -25.5 48t-65.5 19q-20 0 -42 -3.5t-45 -10t-45 -15.5t-41 -20t-35.5 -24
t-36.5 -32l-6 5q20 25 47.5 46t59.5 35t66.5 22t69.5 8q48 0 78.5 -22.5t30.5 -58.5t-24.5 -70t-65 -61t-91.5 -43.5t-103 -16.5q-66 0 -107 32.5t-41 86.5q0 47 28 94t79 88q65 51 149.5 77.5t183.5 26.5q88 0 148.5 -20.5t106.5 -65.5q30 17 55 23.5t57 8.5v-9z" />
    <glyph glyph-name="C" unicode="C" horiz-adv-x="821" 
d="M781 687q-37 7 -65.5 10t-54.5 3q-70 0 -131 -16t-100 -45t-60 -63t-21 -71q0 -60 49.5 -95t144.5 -42q96 121 246 216q36 22 72 40.5t68.5 32t60.5 20.5t49 7q32 0 50.5 -15t18.5 -42q0 -43 -41.5 -87t-110 -81.5t-157 -64t-182.5 -35.5q-63 -77 -98.5 -148t-35.5 -118
q0 -39 24 -62.5t64 -23.5q51 0 106 23.5t100.5 60t74.5 81t29 85.5q0 31 -19 48.5t-51 17.5q-19 0 -41.5 -6.5t-45 -18t-43.5 -27t-39 -34.5q-30 -33 -47.5 -69t-20.5 -71h-8v16q0 39 22 78.5t57 72t78.5 52.5t85.5 20q38 0 61.5 -22t23.5 -57q0 -30 -13.5 -61.5
t-36.5 -60.5t-54 -54.5t-66.5 -44.5t-73.5 -30t-75 -11q-58 0 -89 37.5t-31 106.5q0 27 4 52.5t13.5 51.5t25 54t37.5 61q-209 21 -209 157q0 43 23.5 79t65.5 62t100 40.5t127 14.5q38 0 69.5 -3.5t71.5 -12.5zM625 370q129 13 258 71q106 49 160.5 96.5t54.5 92.5
q0 20 -15.5 32t-38.5 12q-45 0 -105 -28.5t-125 -82.5q-23 -19 -44.5 -38.5t-43.5 -42t-46.5 -49.5t-54.5 -63z" />
    <glyph glyph-name="D" unicode="D" horiz-adv-x="843" 
d="M1079 583q-33 -8 -61 -22t-60 -38q11 -33 15 -54t4 -48q0 -85 -35 -161.5t-94 -134.5t-137 -92t-164 -34q-23 0 -60 2.5t-103 8.5q-55 -8 -91 -11t-65 -3q-56 0 -91 11t-35 28q0 12 19 19t51 7q17 0 40.5 -2t50 -6t53 -9t49.5 -11l10 -2q13 -4 22 -4q14 0 35 7t44.5 18
t46.5 26t42 31q10 9 23 22.5t27 30t28 35.5t27 37l21 29q33 48 62 85t58.5 67.5t62 57.5t71.5 55q-30 64 -93 101t-141 37q-77 0 -152.5 -26.5t-135.5 -69.5t-97 -97.5t-37 -109.5q0 -23 10 -42t28 -32.5t42.5 -21.5t53.5 -8q92 0 182 69q47 35 73.5 74.5t26.5 73.5
q0 29 -25 48.5t-60 19.5q-42 0 -90 -17.5t-89 -46.5q-28 -20 -44 -38.5t-31 -49.5l-8 2q14 38 37.5 64.5t64.5 52.5q35 22 75.5 34t77.5 12q21 0 40 -7t33.5 -19t22.5 -28.5t8 -35.5q0 -40 -25.5 -79.5t-66 -71t-91.5 -51.5t-102 -20q-34 0 -63.5 10.5t-51 28.5t-33.5 42.5
t-12 53.5q0 59 38 119.5t102 105.5q56 39 121.5 59.5t136.5 20.5q101 0 174 -39t109 -112q71 49 125 60zM769 268q-57 -97 -140.5 -156t-204.5 -89q27 -4 46 -7t34 -4.5t27 -2t25 -0.5q40 0 82.5 11.5t83 32t77.5 50t67 65.5q22 28 41 60.5t32.5 66.5t21 67.5t7.5 62.5
q0 24 -4.5 46t-13.5 45q-9 -7 -25.5 -25.5t-36 -44t-40 -55.5t-38.5 -60zM348 15q-30 6 -61 12t-59.5 10.5t-51.5 7t-35 2.5q-28 0 -28 -11q0 -13 31.5 -21t78.5 -8q27 0 57 1.5t68 6.5z" />
    <glyph glyph-name="E" unicode="E" horiz-adv-x="686" 
d="M749 682q-30 11 -55.5 15t-60.5 4q-99 0 -166 -38q-41 -23 -65 -56.5t-24 -68.5q0 -45 41.5 -70.5t116.5 -25.5q13 0 22 0.5t19.5 1.5t25.5 3.5t39 7.5q-2 8 -2 12.5v11.5q0 100 114 161q16 9 35.5 16.5t39 13t37.5 8.5t33 3q35 0 35 -30q0 -22 -21.5 -52t-57.5 -59
q-35 -27 -81 -49.5t-100 -37.5q-4 -12 -5 -17t-1 -18q23 0 40 -9t17 -21q0 -10 -16 -10q-28 0 -49 30q-62 -2 -113 -21t-105 -60q-63 -49 -100.5 -112t-37.5 -122q0 -44 32 -71.5t82 -27.5q63 0 130 33.5t122 91.5q68 74 68 130q0 29 -21 47.5t-54 18.5q-47 0 -100.5 -28.5
t-95.5 -74.5q-28 -32 -41.5 -62.5t-15.5 -71.5h-8q-1 8 -1 13.5v9.5q0 40 23 80t59.5 72t82 52.5t90.5 20.5q41 0 67 -21.5t26 -54.5q0 -48 -28.5 -95t-74.5 -85t-103 -61.5t-115 -23.5q-38 0 -69.5 11.5t-54 32.5t-35 50t-12.5 65q0 57 30 106t83.5 85.5t126 58.5t157.5 24
q-4 9 -5.5 13t-4.5 14q-35 -7 -61.5 -10t-56.5 -3q-84 0 -125 34q-43 34 -43 80q0 36 20 67t55 53t83.5 34.5t105.5 12.5q72 0 129 -22zM677 465q46 13 90.5 35.5t80 49t57 54t21.5 50.5q0 18 -19 18q-14 0 -34.5 -8.5t-43.5 -23.5t-47 -35.5t-46 -44.5q-23 -26 -36.5 -47
t-22.5 -48z" />
    <glyph glyph-name="F" unicode="F" horiz-adv-x="709" 
d="M875 403q-2 14 5.5 25t18.5 11q10 0 17 -8t7 -20q0 -39 -41 -69.5t-120 -49.5q-37 -54 -73.5 -95t-77 -73t-88 -57t-106.5 -47q-1 -8 -1 -13v-9q0 -27 7.5 -50.5t20.5 -40.5t31 -27t38 -10q14 0 25.5 4t28.5 15l5 -9q-18 -12 -30.5 -16.5t-27.5 -4.5q-23 0 -43.5 10.5
t-35.5 29t-23.5 43.5t-8.5 54v8t1 12q-46 -13 -82.5 -18.5t-78.5 -5.5q-78 0 -124 30t-46 81q0 22 11 36.5t28 14.5q11 0 19 -8t8 -19q0 -20 -19 -33l-9 -7q-11 -8 -11 -18q0 -14 11 -26t30.5 -21t45 -14.5t55.5 -5.5q22 0 39 1t35 5t39 10t51 17q19 100 89.5 164.5
t190.5 92.5l59 79q28 38 67 76.5t80 70.5t80 55t68 29l4 -10q-33 -10 -60 -25t-53.5 -41t-56 -67t-68.5 -102l-30 -46q53 14 77 31t24 42v7zM672 272q-218 -59 -253 -231q29 12 61 33t63 48t59 58t50 64zM1364 665q-15 -14 -40.5 -26t-57 -20.5t-67.5 -13.5t-71 -5h-23
t-22.5 1.5t-35.5 4.5t-62 9l-86 11q-50 7 -94 10.5t-76 3.5q-84 0 -156 -16t-125 -45q-65 -35 -102.5 -83t-37.5 -95q0 -44 32.5 -73t81.5 -29t99.5 16.5t91.5 42t67 57.5t26 63q0 26 -21.5 43.5t-53.5 17.5q-59 0 -126 -27t-120 -72l-7 7q20 22 49 41t63 33t69 22.5t67 8.5
q41 0 66.5 -21t25.5 -54q0 -36 -24 -71t-63.5 -62t-89.5 -44t-102 -17q-31 0 -57 8.5t-44.5 23.5t-29 36t-10.5 47q0 51 37 100t106 89q72 42 164.5 64.5t197.5 22.5q15 0 33.5 -0.5t37 -2t36 -3t31.5 -2.5l114 -15q13 -2 25 -3.5t23 -3.5q34 -5 65.5 -8t57.5 -3
q44 0 75 9.5t57 31.5z" />
    <glyph glyph-name="G" unicode="G" horiz-adv-x="832" 
d="M815 678q-40 8 -71.5 11t-61.5 3q-67 0 -124 -14.5t-99 -39.5t-66 -59.5t-24 -74.5q0 -62 54.5 -100.5t146.5 -42.5q27 48 84 103t131 104q76 51 151.5 79.5t132.5 28.5q35 0 55.5 -15t20.5 -41q0 -27 -22 -56.5t-59.5 -58.5t-87.5 -55.5t-106 -47.5t-115.5 -34.5
t-115.5 -16.5q-65 -91 -65 -152q0 -25 17 -41.5t42 -16.5q41 0 94.5 36.5t124.5 113.5l25 27q10 12 16 12q8 0 16.5 -17t8.5 -33q0 -17 -13 -41t-46 -69q-51 -69 -108 -124t-116 -92.5t-120 -57.5t-119 -20q-45 0 -83.5 12t-66.5 34t-44 51.5t-16 64.5q0 41 20 69t49 28
q15 0 25 -8.5t10 -21.5q0 -25 -36 -31l-7 -1q-40 -6 -40 -55q0 -27 13.5 -50.5t37 -40.5t55.5 -27t69 -10q159 0 309 159q23 24 41.5 45.5t37 46t40 56t50.5 76.5l4 6q2 4 2 5q0 2 -2 2q-1 0 -1.5 -0.5l-3.5 -3.5l-4 -5q-23 -24 -37 -38t-24 -23.5t-19 -16.5t-23 -17
q-68 -52 -118 -52q-42 0 -68.5 33t-26.5 84q0 25 5 46t20 57q-37 2 -59.5 6.5t-48.5 13.5q-51 19 -80.5 57t-29.5 83q0 25 9.5 49.5t27.5 45.5t43 38.5t55 29.5q81 31 194 31q41 0 75 -4t70 -12zM646 362q80 8 166 35t158 67q75 42 119 84t44 73q0 20 -16 32t-42 12
q-57 0 -133 -40.5t-158 -113.5q-18 -17 -32.5 -30.5t-29.5 -29.5t-33 -37t-43 -52z" />
    <glyph glyph-name="H" unicode="H" horiz-adv-x="877" 
d="M995 184l-58 -66q-57 -64 -94.5 -91t-69.5 -27q-41 0 -41 41q0 25 13.5 60.5t37.5 76.5t57 86t72 88q-21 -4 -35 -6.5t-34 -4.5q-11 -2 -21.5 -3t-21.5 -3l-20 -3l-36 -49q-90 -126 -197.5 -195.5t-246.5 -91.5q-5 -23 -7 -41.5t-2 -38.5q0 -41 11.5 -76.5t31.5 -61.5
t47 -41t59 -15q30 0 61 17l6 -9q-20 -10 -36 -14t-34 -4q-32 0 -61 15.5t-50.5 42t-34 62t-12.5 74.5q0 21 2.5 41.5t7.5 47.5q-13 -1 -22 -1h-19q-81 0 -127 29t-46 80q0 23 11 37.5t29 14.5q11 0 19 -7t8 -18q0 -21 -26 -40l-7 -5q-10 -7 -10 -15q0 -12 12 -24t31 -21
t43.5 -14.5t50.5 -5.5q11 0 22.5 0.5t32.5 2.5q25 71 61 124.5t86 92.5t117 65t154 43l32 40q28 33 52 60t48.5 52t53 50.5t64.5 56.5q7 7 11 10q-38 -26 -61.5 -41.5t-39.5 -23.5t-27.5 -10.5t-25.5 -2.5q-25 0 -42 15t-17 37q0 13 6 27l4 10q5 12 5 14q0 15 -22 26t-51 11
q-59 0 -118.5 -20t-110.5 -58q-93 -69 -93 -132q0 -32 22.5 -52.5t57.5 -20.5t70 12t65 32t52 46.5t31 55.5l6 -2v-3q0 -30 -27 -64t-70 -58q-56 -31 -117 -31q-47 0 -74.5 24.5t-27.5 65.5q0 54 52 109q50 53 116 79.5t145 26.5q30 0 56.5 -5.5t45.5 -14.5t30 -22t11 -28
q0 -10 -8 -31l-5 -12q-3 -8 -3 -14q0 -12 15 -12q11 0 22.5 3t25.5 10t32.5 19t44.5 30q24 18 41 29.5t29.5 19.5t22.5 13t21 10l5 -7q-32 -23 -61 -49t-60.5 -63t-68.5 -87t-85 -119q39 5 61 8t34.5 5t20 3.5l17.5 3.5q40 46 66 75t44.5 48.5t33.5 34.5t35 34q62 58 101 83
t70 25t31 -34q0 -33 -30.5 -75.5t-85.5 -84.5q-19 -15 -38.5 -27.5t-41.5 -24t-48.5 -23t-59.5 -23.5l-78 -101q-91 -117 -132 -175.5t-41 -69.5q0 -8 6.5 -12.5t17.5 -4.5q37 0 93 48l10.5 10.5l13 13t17.5 18.5t24 26l58 65zM1011 388q62 23 110 53t93 73q38 35 58.5 67
t20.5 53q0 8 -5.5 13.5t-13.5 5.5q-26 0 -79.5 -51t-133.5 -151zM699 320q-147 -28 -247 -106.5t-148 -203.5q48 10 89 27t80.5 45t79.5 67.5t84 94.5z" />
    <glyph glyph-name="I" unicode="I" horiz-adv-x="675" 
d="M1087 670q-38 -29 -67.5 -55.5t-60 -63.5t-69 -90.5t-94.5 -137.5q-53 -76 -98 -128t-90 -87q-75 -60 -160.5 -90.5t-173.5 -30.5q-79 0 -125 31.5t-46 86.5q0 20 12 34.5t29 14.5q12 0 19.5 -7.5t7.5 -20.5q0 -22 -19 -31l-8 -5q-17 -10 -17 -20t11 -24t27 -24
q38 -25 106 -25q103 0 197 60.5t195 193.5q41 54 78.5 99.5t77 88t83 84.5t96.5 89q-4 -2 -7.5 -4.5t-6.5 -4.5l-36 -26q-33 -24 -58 -35t-46 -11q-29 0 -47 13.5t-18 34.5q0 6 1.5 12t5.5 17q6 15 6 26q0 14 -17.5 23.5t-42.5 9.5q-33 0 -69.5 -7.5t-72 -21t-67.5 -32
t-56 -39.5q-66 -60 -66 -118q0 -29 22 -47.5t58 -18.5q27 0 56 8t56 22.5t50 34.5t40 44q7 8 11 18.5t8 24.5l8 -1q-3 -67 -86 -121q-32 -22 -67.5 -33.5t-67.5 -11.5q-43 0 -71 23.5t-28 58.5q0 26 10.5 53t29.5 51.5t46 46.5t60 38q80 40 171 40q61 0 95 -20
q19 -11 29.5 -25t10.5 -28q0 -8 -8 -31l-4 -12t-1 -6q0 -6 7 -11t16 -5t20 3.5t25.5 11.5t35 22.5t49.5 35.5q18 13 31 22.5t24.5 16.5t22 13t22.5 12z" />
    <glyph glyph-name="J" unicode="J" horiz-adv-x="503" 
d="M621 184l-13 -15q-37 -43 -60 -67t-46.5 -38.5t-55 -24t-86.5 -22.5q-54 -72 -109 -130t-114 -106q-117 -94 -209 -94q-35 0 -56.5 18t-21.5 46q0 35 24.5 65.5t79.5 64.5q34 21 68 38t74 32.5t87.5 30t107.5 30.5q12 18 22 32t19.5 28.5t20.5 30t25 36.5
q74 111 148.5 204t143.5 161.5t129 109.5t106 48q-29 5 -55.5 7t-55.5 2q-99 0 -187 -21.5t-154.5 -58.5t-105 -85.5t-38.5 -103.5q0 -48 29.5 -77t86.5 -36l-3 -11q-60 8 -92.5 41t-32.5 89q0 35 15 70t41 63q137 143 419 143q53 0 92 -5t73 -16l-2 -6q-35 1 -78.5 -25
t-98.5 -83t-123.5 -147.5t-153.5 -217.5q-10 -13 -19.5 -26.5t-19.5 -29.5l-72 -98q35 9 64.5 18.5t49.5 18.5q10 4 19.5 10.5t22 18.5t30 30.5t44.5 48.5l14 16zM284 1q-46 -14 -75.5 -23.5t-51.5 -17.5t-40.5 -16t-42.5 -18q-102 -47 -157 -93.5t-55 -86.5q0 -20 17 -34
t43 -14q54 0 122.5 45t137.5 125q12 14 22.5 27t22 28t25.5 34t32 44z" />
    <glyph glyph-name="K" unicode="K" horiz-adv-x="914" 
d="M1032 184l-14 -16q-34 -38 -53.5 -59.5t-32 -34t-21.5 -20t-22 -17.5q-47 -37 -74 -37q-18 0 -28.5 17.5t-10.5 47.5q0 28 8.5 48t31.5 49l13 16l26 33q17 22 27.5 36.5t16 25t7.5 19t2 18.5q0 16 -10 32q-11 -2 -17 -2.5t-11 -0.5q-13 0 -22.5 6.5t-9.5 15.5q0 11 20 11
q11 0 19 -3t22 -14l3 -2q14 3 25.5 9t25.5 18.5t31.5 33t43.5 52.5l25 31q66 85 144.5 132t152.5 47q43 0 72 -15t29 -38q0 -8 -7 -15t-16 -7q-21 0 -24 26l-1 10q-2 12 -17 20t-36 8q-96 0 -212 -132l-29 -34q-30 -35 -55.5 -60.5t-49 -44t-46.5 -30.5t-49 -21
q14 -23 20.5 -42.5t6.5 -39.5q0 -12 -2 -23t-7.5 -22.5t-14.5 -25t-23 -31.5l-41 -53q-15 -19 -24.5 -32t-15 -22.5t-7.5 -16.5t-2 -13q0 -13 15 -13q16 0 41 15t52 41q14 13 40.5 41t62.5 69l14 15zM1092 669q-31 -23 -57.5 -46.5t-53.5 -54t-57 -70.5t-69 -95l-55 -78
q-55 -80 -113.5 -140.5t-116.5 -97.5q-36 -23 -75.5 -41.5t-79.5 -31.5t-79.5 -20t-75.5 -7q-70 0 -113 31.5t-43 82.5q0 23 12 37.5t29 14.5q13 0 20.5 -8t7.5 -21q0 -23 -19 -33l-9 -4q-16 -9 -16 -20q0 -14 10.5 -26.5t28.5 -22t41.5 -15.5t49.5 -6q66 0 134 25t126 71
q36 28 77.5 71.5t79.5 94.5l57 77q25 34 48.5 62t52.5 58t68 65.5t95 85.5q-37 -26 -60.5 -41t-39 -23t-26.5 -10.5t-23 -2.5q-26 0 -46 16.5t-20 37.5q0 7 1.5 14t8.5 25q2 8 2 11q0 14 -18.5 24t-47.5 10q-139 0 -249 -95q-36 -32 -53 -59t-17 -56q0 -32 25 -54t63 -22
q33 0 67.5 13.5t63.5 35.5t49 50t25 57l8 -2q-2 -28 -13 -51t-34 -46q-31 -30 -74 -49t-82 -19q-48 0 -78.5 24.5t-30.5 63.5q0 33 17.5 67t52.5 66q94 87 238 87q30 0 55 -5.5t43 -15t28.5 -23t10.5 -28.5q0 -8 -7 -30q-4 -11 -4.5 -13.5t-0.5 -6.5q0 -6 8.5 -11.5
t16.5 -5.5q10 0 18 2t24.5 11.5t45.5 28.5t80 54q17 11 31 20.5t31 20.5z" />
    <glyph glyph-name="L" unicode="L" horiz-adv-x="691" 
d="M809 184l-14 -16q-31 -35 -51.5 -57t-35.5 -36.5t-27 -23t-26 -15.5q-70 -38 -176 -38q-19 0 -30.5 0.5t-26 2t-36.5 5t-61 9.5q-32 -11 -66 -16t-72 -5q-137 0 -137 49q0 16 18.5 25.5t50.5 9.5q23 0 42 -1t43 -5t58.5 -11.5t88.5 -20.5l7 -1q42 16 77 38.5t68.5 56.5
t68 81t75.5 113q-26 -4 -47.5 -6t-44.5 -2q-53 0 -97 11.5t-75.5 32t-49 49.5t-17.5 64q0 48 30.5 91t82.5 75.5t121 51.5t146 19q46 0 84.5 -5.5t77.5 -16.5l-2 -9q-32 9 -70.5 14t-76.5 5q-77 0 -144 -18.5t-117 -50.5t-79 -75t-29 -92q0 -31 15 -56t42.5 -43t66 -27.5
t86.5 -9.5q26 0 51 2.5t52 7.5q33 46 57.5 79.5t46 59t42.5 47t45 43.5q54 50 104 78t84 28q41 0 41 -44q0 -19 -10 -42t-28 -48t-43 -50t-56 -48q-44 -32 -97 -57.5t-107 -38.5l-38 -62q-57 -91 -133.5 -151t-187.5 -100q42 -12 73 -17.5t60 -5.5q52 0 97 14.5t80 41.5
q8 6 16 13.5t19 19t27.5 29.5t41.5 46l14 15zM738 359q57 16 113.5 46.5t102.5 69.5q51 45 80 87.5t29 72.5t-31 30q-35 0 -82.5 -34.5t-91.5 -91.5q-17 -22 -29.5 -38.5t-25 -35.5t-28 -44t-37.5 -62zM303 20q-4 1 -7.5 2t-12.5 3.5t-25.5 7t-47.5 13.5q-29 8 -61 13t-52 5
q-16 0 -26.5 -6t-10.5 -16q0 -18 32 -27.5t90 -9.5q18 0 32 0.5t27.5 2.5t28.5 4.5t33 7.5z" />
    <glyph glyph-name="M" unicode="M" horiz-adv-x="980" 
d="M1098 184l-13 -16q-30 -34 -47 -52.5t-27.5 -29.5t-17.5 -17.5t-17 -15.5q-30 -26 -55 -40t-42 -14t-29.5 15t-12.5 37q0 15 5 32t16 39t28.5 49.5t42.5 62.5l270 377q7 9 13.5 19t11.5 18l4 7q4 5 4 11q0 4 -5 4q-1 0 -2 -0.5t-4 -4.5t-9.5 -12t-17.5 -23l-6 -8
q-52 -70 -111 -146t-116 -145.5t-107 -128t-84 -92.5q-23 -24 -45 -44.5t-40 -35t-30.5 -23t-18.5 -8.5q-11 0 -19.5 11.5t-8.5 25.5q0 39 69 128l292 368q48 60 72.5 95t24.5 43q0 5 -5 5q-2 0 -5 -3t-13 -15l-15 -18q-11 -14 -37 -43t-56 -62.5t-59 -66t-48 -52.5
q-50 -54 -104 -105.5t-106 -96.5t-99.5 -81.5t-85.5 -58.5q-66 -40 -126.5 -61t-109.5 -21q-57 0 -94 28.5t-37 73.5q0 23 12.5 38.5t31.5 15.5q12 0 20.5 -8t8.5 -19q0 -10 -5.5 -20t-15.5 -16l-12 -8q-10 -7 -10 -17q0 -24 29 -40.5t73 -16.5q127 0 313.5 140t440.5 426
l86 96q11 13 16 17t9 4q9 0 18 -13.5t9 -27.5q0 -19 -11 -41t-40 -63q-32 -44 -49.5 -69t-30.5 -42.5t-25 -32.5t-31 -40l-233 -293q-20 -25 -27.5 -36t-7.5 -14t3 -3q8 0 39.5 27t73.5 70q29 30 72.5 79t92.5 108t99.5 121.5t94.5 119.5l41 55l42 55q17 23 23.5 29.5
t12.5 6.5q8 0 18 -14t10 -26q0 -14 -7 -30.5t-28 -52.5q-15 -24 -32.5 -51t-31.5 -47l-184 -262q-108 -154 -108 -178q0 -5 3.5 -8.5t8.5 -3.5q18 0 50 21t65 54q8 8 14 14.5t14.5 15.5t21.5 23.5t34 38.5l14 15z" />
    <glyph glyph-name="N" unicode="N" horiz-adv-x="946" 
d="M881 98l26 40q20 31 55 77.5t77 97t86 100.5t82 90q51 52 92 88.5t75 60t63 34t56 10.5t44.5 -12t17.5 -32q0 -11 -8 -19.5t-20 -8.5q-11 0 -19.5 7.5t-8.5 18.5v5q1 5 1 12q0 16 -18 16q-42 0 -99.5 -39t-145.5 -126q-59 -59 -118 -126.5t-111.5 -135t-95.5 -131
t-70 -114.5q-7 -13 -16 -13q-11 0 -21 12.5t-10 26.5q0 9 1.5 16t7.5 20.5t19 38t37 68.5q10 18 17 31t15 26.5t18 30.5t25 43l50 86q2 3 11 19.5t21.5 39.5t27 50t28 51t23.5 42t13 24q8 16 13 27.5t5 16.5q0 2 -2 2t-8.5 -8t-23.5 -32q-75 -102 -152.5 -193.5
t-145.5 -160.5q-146 -147 -281.5 -218t-269.5 -71q-79 0 -125.5 29t-46.5 80q0 23 11 38t28 15q13 0 21 -7.5t8 -20.5q0 -12 -5.5 -20.5t-21.5 -19.5q-11 -8 -11 -16q0 -11 11.5 -24.5t29.5 -23.5q35 -19 91 -19q117 0 242 62.5t265 190.5q82 75 166 170t182 223
q18 23 26 31.5t13 8.5q10 0 17.5 -16.5t7.5 -36.5q0 -17 -5 -36t-19 -49t-39.5 -76.5t-66.5 -118.5l-102 -176q-10 -17 -22 -39t-24 -45z" />
    <glyph glyph-name="O" unicode="O" horiz-adv-x="746" 
d="M977 561q13 18 18.5 31.5t5.5 27.5q0 38 -32.5 58t-93.5 20q-63 0 -131 -23t-135.5 -65t-131.5 -102.5t-119 -135.5t-83.5 -139t-28.5 -115q0 -56 37 -88.5t100 -32.5q158 0 346 179q45 43 81.5 87t61.5 86.5t38.5 82t13.5 72.5q0 42 -26 67.5t-69 25.5q-36 0 -76.5 -13
t-80 -35t-75.5 -50.5t-63.5 -60t-44 -63.5t-16.5 -61q0 -32 22.5 -52.5t57.5 -20.5q48 0 101.5 34t94.5 89q10 13 17 25t14 25.5t13.5 30t14.5 39.5l6 -5q-4 -44 -29.5 -88t-64 -79.5t-83.5 -58t-88 -22.5q-20 0 -36.5 7t-29.5 19.5t-20 29.5t-7 36q0 52 31.5 103t82.5 91.5
t115.5 65.5t130.5 25q57 0 88 -29t31 -80q0 -39 -15.5 -85.5t-44 -94.5t-68 -95t-87.5 -88q-84 -72 -169 -110t-163 -38q-73 0 -115 33q-29 23 -46.5 62t-17.5 84q0 62 28.5 126t77 124t114 112.5t139.5 92t153.5 62.5t155.5 23q63 0 98.5 -22.5t35.5 -64.5q0 -31 -25 -66z
" />
    <glyph glyph-name="P" unicode="P" horiz-adv-x="777" 
d="M1154 623q-26 -1 -52.5 -10t-57.5 -26q17 -29 25 -51.5t8 -45.5q0 -33 -17.5 -63t-46.5 -53.5t-68 -37t-81 -13.5q-22 0 -40 6l-29 -44q-45 -67 -92 -114.5t-104 -84.5q-73 -48 -152 -72t-159 -24q-81 0 -129 30t-48 81q0 23 11.5 38.5t28.5 15.5q13 0 21 -7.5t8 -20.5
q0 -11 -6 -18.5t-23 -18.5q-12 -7 -12 -19q0 -15 11.5 -28t32 -22.5t48 -15t59.5 -5.5q98 0 180.5 41t158.5 129q20 23 57 71.5t91 122.5q-8 17 -8 32q0 35 23 69t58 52l3 -9q-34 -20 -54.5 -50.5t-20.5 -61.5q0 -7 1.5 -11.5t4.5 -10.5q30 37 55 64.5t52 51.5t59 47t75 51
q-60 74 -206 74q-92 0 -177 -23t-151 -60.5t-105.5 -87t-39.5 -101.5q0 -47 37 -75t98 -28q48 0 95 16.5t84.5 42.5t60.5 59.5t23 67.5q0 31 -23.5 49t-62.5 18q-43 0 -93 -18t-92 -47q-13 -10 -23.5 -20t-28.5 -30l-6 4q16 26 42.5 48t59 38.5t69 26t71.5 9.5
q45 0 71.5 -22t26.5 -57q0 -38 -23 -74t-61.5 -63.5t-88 -44.5t-101.5 -17q-66 0 -106 33.5t-40 88.5q0 47 27.5 93t79.5 84q67 51 159 77.5t197 26.5q166 0 238 -81q26 16 57 26.5t63 13.5zM829 337q11 -4 18 -4q33 0 67 19t62 49t45.5 67t17.5 73q0 18 -8 37
q-27 -20 -50 -42t-46 -49.5t-48.5 -64t-57.5 -85.5z" />
    <glyph glyph-name="Q" unicode="Q" horiz-adv-x="790" 
d="M908 184l-14 -16q-29 -32 -47 -52t-31.5 -33.5t-25 -22.5t-25.5 -19q-45 -32 -93 -49.5t-91 -17.5q-53 0 -87 25q-39 -12 -63 -16.5t-47 -4.5q-44 0 -79.5 14t-61.5 39.5t-40 61.5t-14 79q0 88 59.5 183t170.5 185q100 81 214 125t223 44q70 0 107 -22.5t37 -65.5
q0 -15 -5 -27.5t-21 -35.5l-8 9q23 29 23 56q0 35 -31.5 54.5t-86.5 19.5q-110 0 -226 -58.5t-225 -169.5q-44 -45 -80 -91.5t-61.5 -91.5t-39 -87t-13.5 -76q0 -29 11.5 -53.5t32.5 -42.5t49 -28t61 -10q28 0 54.5 5t49.5 14q-3 4 -6 7.5t-7 6.5q-15 17 -25 27.5t-18.5 16
t-17.5 7t-21 1.5q-21 0 -35 -9.5t-28 -31.5l-8 5q15 29 45.5 45.5t70.5 16.5q33 0 57 -21q2 -2 3.5 -3t5.5 -5.5t11.5 -13.5t21.5 -25l4 -4q37 20 69 40.5t60.5 43.5t55.5 50t54 60q66 79 99.5 150t33.5 129q0 45 -28 72.5t-73 27.5q-61 0 -128 -33.5t-128 -95.5
q-94 -96 -94 -162q0 -32 20 -50.5t53 -18.5q40 0 83 21.5t80.5 56t64 77.5t33.5 87l9 -3v-8q0 -21 -10.5 -46.5t-30.5 -53.5q-24 -33 -52 -59t-57.5 -44.5t-60 -28.5t-58.5 -10q-40 0 -66 25.5t-26 64.5q0 55 31 107.5t82 94t115.5 67t131.5 25.5q57 0 89.5 -32.5
t32.5 -88.5q0 -35 -11.5 -75t-33 -82t-51.5 -83.5t-67 -79.5q-51 -52 -102 -89t-113 -65q16 -14 30.5 -19.5t33.5 -5.5q43 0 89 20.5t91 58.5q10 8 18.5 16t19.5 19.5t25.5 27t35.5 39.5l14 15z" />
    <glyph glyph-name="R" unicode="R" horiz-adv-x="929" 
d="M1047 184l-14 -16q-34 -38 -52.5 -59t-30 -32.5t-18.5 -17.5t-18 -15q-26 -21 -52.5 -33.5t-43.5 -12.5t-29 16t-12 40q0 13 2 23.5t7 22t14.5 25t23.5 32.5l27 35q26 33 34 49t8 32q0 8 -7 25q-5 -1 -10 -1h-9q-19 0 -33 8t-14 19q0 5 5.5 9.5t12.5 4.5q14 0 26 -7
t27 -24q29 3 59.5 23.5t55 50.5t40 65.5t15.5 68.5q0 40 -25 68q-22 -10 -43 -26t-43.5 -41t-47.5 -59t-54 -80l-48 -76q-54 -85 -115 -143t-142 -99q-139 -71 -263 -71q-81 0 -128.5 31t-47.5 84q0 23 11 37.5t28 14.5q12 0 19.5 -7.5t7.5 -19.5q0 -18 -18 -33l-10 -7
q-13 -9 -13 -19q0 -15 12 -28t33 -22.5t48 -15.5t57 -6q72 0 145 28t137 81q20 16 34.5 29t29.5 30.5t33.5 43t46.5 66.5l33 45q41 57 77 100t70.5 75t69.5 54.5t74 40.5q-42 35 -94.5 52t-124.5 17q-88 0 -172 -22t-149.5 -58.5t-105.5 -83.5t-40 -96q0 -48 36.5 -76.5
t96.5 -28.5q49 0 97.5 16t87.5 41.5t63 57.5t24 64q0 30 -25 49t-63 19q-63 0 -128.5 -27.5t-115.5 -73.5l-6 7q21 24 48.5 43.5t59 33t65.5 21t68 7.5q50 0 79 -23t29 -61q0 -56 -65 -112q-44 -38 -96 -57.5t-109 -19.5q-71 0 -114 34t-43 91q0 48 35.5 97.5t98.5 88.5
q67 42 149.5 63t176.5 21q162 0 247 -79q16 7 28 11.5t23.5 8.5t24 7t29.5 6l1 -11q-52 -6 -99 -29q29 -33 42.5 -62.5t13.5 -61.5t-15 -59.5t-42 -49.5t-65 -37t-83 -20q23 -32 23 -67q0 -26 -7.5 -45t-29.5 -48l-23 -31q-20 -26 -31.5 -41t-17 -23.5t-7 -13t-1.5 -10.5
q0 -11 14 -11q19 0 49.5 16.5t57.5 39.5q6 6 10 10.5t14 15t27.5 30t50.5 55.5l14 15z" />
    <glyph glyph-name="S" unicode="S" horiz-adv-x="701" 
d="M903 690q-32 7 -59.5 9.5t-57.5 2.5q-80 0 -149.5 -18.5t-121.5 -51t-82 -75.5t-30 -92q0 -32 15.5 -57.5t44.5 -43.5t70 -27.5t91 -9.5q29 0 50 2.5t45 9.5q47 72 99 133.5t102.5 106.5t95.5 70.5t79 25.5q19 0 32 -13t13 -32q0 -38 -34.5 -87t-94.5 -94
q-45 -34 -94.5 -58.5t-118.5 -46.5q-34 -56 -61.5 -96.5t-53.5 -71.5t-52 -53.5t-56 -42.5q-33 -21 -70 -38.5t-75.5 -29.5t-76 -18.5t-71.5 -6.5q-40 0 -73 8t-56.5 23t-36.5 36t-13 47q0 21 11 35.5t28 14.5q13 0 21 -8t8 -21q0 -18 -21 -33l-10 -6q-10 -8 -10 -18
q0 -12 12.5 -24.5t32.5 -22t45 -15.5t51 -6q77 0 148.5 31.5t134.5 92.5q19 19 34 35t31.5 37.5t38 52.5t54.5 80q-28 -5 -51 -7t-46 -2q-53 0 -96 11.5t-74.5 32t-48.5 49t-17 63.5q0 50 31.5 94t86.5 76.5t128.5 51.5t157.5 19q35 0 66 -4t57 -12zM806 357q130 43 220 124
q103 94 103 150q0 35 -37 35q-23 0 -56 -21.5t-71 -60.5q-18 -18 -34 -37.5t-34 -45t-40 -60.5t-51 -84z" />
    <glyph glyph-name="T" unicode="T" horiz-adv-x="720" 
d="M1079 597q-37 -13 -67.5 -31.5t-60 -48.5t-61 -74t-69.5 -107q-28 -45 -52 -79.5t-48 -61.5t-50 -49.5t-58 -44.5q-78 -54 -162 -81.5t-171 -27.5q-85 0 -131.5 29t-46.5 83q0 23 10.5 37t27.5 14q12 0 19.5 -7.5t7.5 -20.5q0 -20 -25 -38q-8 -5 -11 -9.5t-3 -9.5
q0 -11 10.5 -23.5t27.5 -22.5q38 -22 111 -22q150 0 278 101q21 17 37.5 32t35 36t42.5 53.5t62 83.5q77 112 164.5 187.5t179.5 109.5zM1392 665q-20 -14 -46.5 -25.5t-57 -20t-63.5 -13t-65 -4.5q-14 0 -27 0.5t-31 2.5t-44.5 5.5t-67.5 9.5q-49 7 -86 11.5t-67 7.5
t-54.5 4t-48.5 1q-92 0 -163 -20.5t-130 -63.5q-50 -36 -77.5 -78.5t-27.5 -80.5q0 -45 35 -72.5t92 -27.5t112 21t105 62q32 26 46.5 49.5t14.5 49.5t-23 43t-59 17q-60 0 -126.5 -29.5t-117.5 -77.5l-6 8q49 54 111.5 82.5t130.5 28.5q47 0 74 -20.5t27 -55.5t-24.5 -70
t-64 -62.5t-89 -44.5t-99.5 -17q-33 0 -60 8.5t-47 24.5t-31 37t-11 47q0 53 44.5 107.5t121.5 96.5q133 72 327 72q27 0 50 -1t48 -3.5t55.5 -6.5t72.5 -11l73.5 -10.5t55.5 -7.5t42.5 -4t34.5 -1q38 0 69.5 9.5t66.5 32.5z" />
    <glyph glyph-name="U" unicode="U" horiz-adv-x="880" 
d="M998 184l-14 -16q-33 -36 -51.5 -56.5t-29.5 -32.5t-18.5 -18.5t-17.5 -15.5q-29 -23 -56 -37t-45 -14q-28 0 -28 40q0 22 3.5 42.5t13 42t25.5 47.5t41 60q-49 -50 -96.5 -92t-89.5 -72t-76 -47t-55 -17q-37 0 -37 57q0 61 43 122q7 11 14 19.5t24 28t50.5 55.5
t95.5 102q35 37 58.5 65.5t38 51.5t21 41.5t6.5 36.5q0 45 -41 73t-105 28q-72 0 -142 -23.5t-125.5 -62t-90 -87t-34.5 -97.5q0 -45 31.5 -73t82.5 -28q48 0 96.5 17.5t87.5 45.5t63.5 62.5t24.5 68.5q0 26 -22.5 42t-58.5 16q-28 0 -60 -9t-63.5 -24.5t-61 -37.5
t-52.5 -47l-6 5q18 26 46 48.5t61.5 39.5t69.5 26.5t69 9.5q41 0 66.5 -21t25.5 -53q0 -38 -23.5 -74.5t-62.5 -65t-88 -46t-100 -17.5q-63 0 -100.5 33t-37.5 87t33 104t87.5 88.5t125 62t146.5 23.5q87 0 133 -38.5t46 -111.5q0 -25 -7 -50t-22.5 -52.5t-41 -59
t-61.5 -70.5l-109 -118q-19 -20 -39 -44.5t-39 -49.5q-19 -27 -26 -41.5t-7 -28.5q0 -19 17 -19q13 0 34 9t48 25.5t58.5 39t63.5 49.5q121 103 245 266l192 254q10 14 13 16.5t8 2.5q9 0 16 -10t7 -24q0 -10 -4 -18.5t-16 -23.5l-242 -322q-33 -44 -54.5 -72t-35 -46.5
t-22 -29.5t-15.5 -21q-23 -34 -35.5 -56t-12.5 -32q0 -12 15 -12q12 0 33 10t44 27q10 8 22 19t28 27t36 37.5t46 51.5l14 15z" />
    <glyph glyph-name="V" unicode="V" horiz-adv-x="699" 
d="M603 524q0 -29 -18.5 -57t-48.5 -50t-68.5 -35.5t-78.5 -13.5q-44 0 -73 25t-29 62q0 45 26 85.5t70 71.5t101.5 49.5t120.5 18.5q59 0 97.5 -21t38.5 -53q0 -8 -1 -14t-6 -20q-1 -4 -1.5 -7t-0.5 -7q0 -8 5.5 -13t14.5 -5q14 0 31 7t40 23q4 3 7 5t11 8.5t23.5 18.5
t44.5 34q7 6 26 18t42 26l5 -10q-32 -26 -52.5 -44.5t-40 -41.5t-43.5 -57t-63 -92l-83 -124q-81 -119 -157 -197t-136 -102q147 39 390 307l66 76q42 49 70.5 81t49 54t36 36.5t33.5 28.5q106 86 207 86q33 0 52.5 -11.5t19.5 -31.5q0 -11 -8 -18t-20 -7q-26 0 -26 30
q-2 21 -30 21q-43 0 -90.5 -20.5t-96.5 -59.5q-18 -14 -30.5 -25t-29 -28.5t-42.5 -46t-69 -77.5l-84 -95q-139 -158 -250.5 -237t-194.5 -79l-2 9q21 6 43 22t49.5 46.5t62 77t80.5 114.5q39 56 73.5 101.5t72.5 88t82.5 85.5t102.5 95q-8 -5 -16 -11.5t-26 -20.5
q-29 -23 -49 -37.5t-35 -22.5t-27 -11t-26 -3q-25 0 -44 16.5t-19 38.5q0 5 1.5 12t6.5 21q3 10 3 16q0 14 -23 24.5t-56 10.5q-57 0 -113 -19t-100.5 -50t-72.5 -70t-28 -78q0 -29 22.5 -48t57.5 -19q38 0 75 12.5t67 32.5t49.5 46.5t23.5 55.5l8 1v-8z" />
    <glyph glyph-name="W" unicode="W" horiz-adv-x="889" 
d="M591 533q-2 -29 -10.5 -47.5t-28.5 -40.5q-33 -37 -77 -57.5t-92 -20.5t-77 24t-29 66q0 22 9.5 46t27 47.5t41.5 44t54 37.5q39 22 85 34t92 12q31 0 57.5 -5.5t46 -15.5t30.5 -23.5t11 -28.5q0 -5 -1 -11.5t-5 -17.5q-2 -8 -2.5 -10.5t-0.5 -5.5q0 -8 7 -14t18 -6
q9 0 18.5 3t24.5 12.5t37.5 26.5t58.5 45q38 31 86 51l5 -8q-22 -16 -40.5 -32t-35.5 -35.5t-34 -43.5t-35 -55l-114 -176q-29 -42 -51 -73.5t-41.5 -56t-38.5 -45.5t-41 -43q-24 -24 -42 -40.5t-32.5 -28t-26 -18.5t-22.5 -11q146 40 341 278l106 133q51 64 87.5 107
t66.5 71t57 45.5t60 31.5l4 -10q-15 -10 -27 -20.5t-24.5 -26t-27.5 -38.5t-36 -59l-97 -161q-172 -294 -306 -353q31 4 72 27.5t88.5 63.5t99.5 95t105 122l71 92q33 43 57 73.5t42.5 52.5t33.5 38t30 31q43 40 80 57.5t82 17.5q29 0 46 -10.5t17 -27.5q0 -11 -8.5 -19
t-19.5 -8q-25 0 -28 19v12q0 9 -8.5 14.5t-20.5 5.5q-25 0 -52 -12t-58.5 -38.5t-68.5 -68.5t-83 -101l-81 -106q-27 -36 -55.5 -70.5t-57 -65.5t-55.5 -57.5t-50 -45.5q-37 -31 -63.5 -50t-50 -30.5t-48 -17t-56.5 -8.5v9q20 9 36 20t35 32.5t44.5 58.5t65.5 98l89 139
q40 60 73 104.5t61 79t53.5 60.5t51.5 48q-38 -21 -88 -73.5t-124 -147.5l-105 -132q-115 -143 -216 -217t-187 -78v9q21 8 39.5 20.5t38 32.5t42 50t50.5 73l98 144q68 101 138 181.5t131 127.5q-9 -4 -20 -13q-30 -26 -60 -48q-29 -23 -51 -33.5t-45 -10.5q-29 0 -47.5 15
t-18.5 38q0 5 1 9.5t6 23.5q2 10 2 15q0 16 -22.5 26.5t-55.5 10.5q-20 0 -44 -4t-49 -11.5t-49.5 -17.5t-44.5 -21q-27 -16 -50 -36t-40.5 -41.5t-27 -43t-9.5 -39.5q0 -32 24 -51.5t64 -19.5q49 0 95.5 23.5t81.5 67.5q14 18 20.5 32t8.5 28h9z" />
    <glyph glyph-name="X" unicode="X" horiz-adv-x="798" 
d="M916 184l-14 -16q-29 -33 -48 -54t-32.5 -35t-25 -23.5t-25.5 -20.5q-51 -39 -86 -39q-24 0 -37 21.5t-13 61.5q0 26 5 49t21 64q-77 -84 -152 -131t-163 -66q-1 -7 -1 -12.5v-9.5q0 -31 8 -57.5t22.5 -45.5t34.5 -30t43 -11t46 13l4 -8q-22 -14 -49 -14
q-26 0 -48.5 11.5t-38.5 31.5t-25 48t-9 61v8.5t1 13.5q-21 -3 -38.5 -4.5t-35.5 -1.5q-76 0 -119 29.5t-43 82.5q0 20 11.5 34.5t28.5 14.5q11 0 18 -8.5t7 -20.5q0 -11 -4.5 -18t-21.5 -21q-5 -4 -8 -10.5t-3 -11.5q0 -26 39 -43.5t99 -17.5q37 0 70 6q34 244 398 302
l44 58q29 38 48.5 66t31 50.5t16.5 40.5t5 35q0 50 -35.5 78.5t-96.5 28.5q-78 0 -158 -31t-145 -85q-79 -67 -79 -132q0 -38 29.5 -62.5t77.5 -24.5q51 0 104.5 19.5t98.5 53.5q52 41 52 87q0 25 -23.5 41.5t-58.5 16.5q-50 0 -103.5 -23t-98.5 -64l-6 5q18 21 42.5 39
t51.5 30.5t56 19.5t57 7q42 0 68.5 -21t26.5 -53t-22.5 -63t-58.5 -55t-82 -39t-93 -15q-28 0 -51.5 7.5t-41 20.5t-27.5 31t-10 39q0 50 32.5 97.5t86.5 84t123 59t142 22.5q81 0 126 -38.5t45 -109.5q0 -31 -10 -65q21 24 40 44t39 37.5t41.5 33.5t47.5 32q55 35 96 50.5
t81 15.5q32 0 50.5 -12.5t18.5 -32.5q0 -11 -8.5 -19t-19.5 -8q-12 0 -20 8t-8 19q0 5 2 13q1 3 1 7q0 5 -7.5 9t-19.5 4q-45 0 -99.5 -27t-114.5 -80q-23 -20 -42.5 -40t-41 -45.5t-48.5 -60.5t-64 -86q40 11 67 22t43.5 23.5t24 29t9.5 38.5q2 13 11 13q4 0 7.5 -6
t3.5 -14q0 -22 -15.5 -42.5t-43.5 -35.5q-17 -9 -47.5 -19.5t-68.5 -20.5q-70 -84 -110 -155.5t-40 -115.5q0 -35 24 -35q35 0 97 51q11 9 18.5 16t18.5 18.5t28.5 30.5t47.5 53l14 15zM723 295q-164 -29 -260 -102.5t-116 -185.5q95 24 185.5 93.5t190.5 194.5z" />
    <glyph glyph-name="Y" unicode="Y" horiz-adv-x="897" 
d="M1015 183l-13 -15q-27 -30 -44.5 -49.5t-30 -31.5t-22 -18.5t-19.5 -12.5q-16 -8 -41 -16t-73 -22q-25 -33 -46.5 -60.5t-43 -51.5t-43.5 -46t-47 -46q-74 -68 -134 -98t-120 -30q-35 0 -57 17t-22 43q0 45 48.5 90.5t137.5 84.5q17 8 29.5 13t25.5 10t29 11t40 13.5
t58 18t83 26.5q8 11 15 21.5t15 21.5l29 46l30 44q36 55 75 111q6 9 10 14.5t6.5 10t5 8.5t7.5 11q-186 -196 -285 -196q-29 0 -45.5 20t-16.5 56q0 22 4.5 44.5t12.5 37.5q6 12 11 20t14 19t24.5 27.5t41.5 45.5l30 34q18 19 28.5 30.5t17.5 19.5t11.5 13.5t9.5 12.5
q21 28 30.5 49.5t9.5 43.5q0 18 -10 34t-27 27.5t-40.5 18t-50.5 6.5q-70 0 -139.5 -23t-125.5 -60t-91 -83.5t-35 -92.5q0 -40 30 -65.5t76 -25.5q43 0 89.5 16t84 41t62 55t24.5 59q0 25 -21 40.5t-55 15.5q-28 0 -57 -6.5t-56 -17.5t-51.5 -27t-42.5 -35l-7 6
q35 43 92 68.5t118 25.5q38 0 64.5 -19t26.5 -47q0 -38 -25.5 -74.5t-74.5 -66.5q-38 -23 -80.5 -35.5t-80.5 -12.5q-27 0 -50.5 8t-41 22.5t-27 34t-9.5 42.5q0 51 33.5 99t88 85.5t125.5 60.5t146 23q77 0 117 -33.5t40 -98.5q0 -67 -42 -124q-7 -10 -18 -23t-37 -40
l-42 -46q-33 -36 -54 -60t-32.5 -41.5t-16 -30.5t-4.5 -26q0 -17 12 -27.5t30 -10.5q40 0 102 39.5t134 108.5q47 46 96 106t98 132l60 86l32 46q16 24 20 29.5t9 5.5q6 0 14 -13.5t8 -23.5q0 -6 -3 -14t-13 -24t-29 -42.5t-50 -69.5q-5 -8 -11 -16t-11 -16l-12 -16
l-92 -134q-14 -21 -23 -33t-17 -24l-18 -27t-27 -40q-18 -27 -30 -44.5t-22.5 -32.5t-21.5 -30t-27 -36l39 13q22 7 37.5 12.5t27 11.5t20.5 13.5t19 17.5q6 7 11 12t12 12.5t17.5 19t28.5 31.5l14 16zM704 1q-72 -23 -126.5 -42.5t-97 -39t-75.5 -39.5t-63 -43t-50 -49.5
t-20 -43.5q0 -20 18.5 -33.5t47.5 -13.5q41 0 86.5 24t103.5 75q20 18 33.5 30.5t28 29t35 42.5t55.5 71q4 5 10 13t14 19z" />
    <glyph glyph-name="Z" unicode="Z" horiz-adv-x="743" 
d="M861 184l-14 -16q-32 -35 -49.5 -54.5t-28 -30.5t-17 -17.5l-15.5 -15.5q-30 -29 -47.5 -39.5t-33.5 -10.5q-19 0 -32.5 16t-13.5 38q0 9 1.5 16t5 15t10 17t16.5 22l13 17q24 31 24 51q0 17 -15 27.5t-38 10.5q-42 0 -74.5 -12.5t-67.5 -42.5q-19 -16 -38 -31.5
t-39 -30.5l-71 -56q-75 -57 -110 -57q-13 0 -24 9.5t-11 20.5q0 10 20 26.5t56.5 38t88 47t113.5 52.5q11 5 17.5 7.5t12 5t10.5 5t14 6.5l84 69q11 9 28 24.5t46 42.5l-86 -2q-2 1 -3 1t-3 2l19 17h95q16 14 30.5 26t31 25t36 28t46.5 36q-20 -5 -31.5 -7t-25.5 -2
q-32 0 -55.5 17.5t-23.5 40.5v7t1.5 8.5t4.5 14.5t9 25q10 26 10 35q0 20 -23.5 33.5t-59.5 13.5q-40 0 -82 -11t-81.5 -29.5t-75 -43.5t-61.5 -53.5t-41.5 -58.5t-15.5 -58q0 -31 20 -49.5t54 -18.5q41 0 83.5 16.5t78.5 43.5t61.5 61t32.5 70h7v-6q0 -35 -23 -70
t-59.5 -62.5t-82.5 -45t-91 -17.5t-69 22t-24 62q0 28 11.5 56.5t31.5 55.5t48.5 50.5t63.5 41.5q49 24 106 39t102 15q29 0 54.5 -7t44.5 -18.5t30 -27.5t11 -34q0 -11 -3.5 -23.5t-11.5 -32.5q-5 -12 -6.5 -18t-1.5 -11q0 -10 8 -17t19 -7q14 0 35.5 5.5t34.5 11.5
q4 3 8 5.5t9.5 7t13.5 12t22 20.5l35 33q6 5 10 8.5t11 9.5t19.5 16.5t35.5 29.5q21 18 32 25t19 7t13.5 -5.5t5.5 -13.5q0 -31 -81 -90q-15 -11 -24.5 -17.5t-21 -12.5t-27.5 -13.5t-43 -19.5q-8 -3 -16.5 -7t-16.5 -9q-12 -9 -19 -15t-14 -12.5t-17 -15.5t-27 -24
q-14 -13 -28 -25.5t-28 -24.5l87 -2l-5 -13h-8l-14 -1l-84 -4q-12 -11 -24 -21t-29 -23.5t-42 -32.5t-63 -49q28 10 50.5 14t45.5 4q38 0 61 -20t23 -52q0 -15 -6 -31t-18 -30l-34 -43q-13 -17 -18 -26t-5 -17q0 -6 3.5 -10t8.5 -4q17 0 59 38t119 125l14 15z" />
    <glyph glyph-name="a" unicode="a" horiz-adv-x="315" 
d="M433 184l-14 -16q-34 -38 -53.5 -59.5t-32 -34t-21 -20t-20.5 -17.5q-25 -21 -42 -30t-31 -9q-26 0 -26 30t29 78q-50 -55 -81 -81t-48 -26q-30 0 -30 64q0 26 3 46t11.5 37.5t22.5 34t36 35.5q24 22 49.5 40.5t49.5 32t44 21t34 7.5q11 0 19 -8t8 -19q0 -6 -1 -11.5
t-4 -16.5l18 24q14 17 20 22.5t11 5.5q7 0 12.5 -8.5t5.5 -18.5q0 -17 -22 -45l-82 -106q-33 -42 -50.5 -65t-25.5 -34t-9.5 -14.5t-1.5 -6.5q0 -8 11 -8q9 0 23.5 8t37.5 27q12 9 20 16t20 19.5t32.5 34.5t56.5 62l13 15zM313 307q-15 0 -53 -33.5t-87 -90.5
q-19 -22 -36 -45.5t-30 -45t-20.5 -38.5t-7.5 -27q0 -8 4 -13t10 -5q14 0 53.5 36t90.5 94q50 56 72.5 92t22.5 59q0 17 -19 17z" />
    <glyph glyph-name="b" unicode="b" horiz-adv-x="258" 
d="M376 184l-14 -16q-33 -37 -50.5 -57t-27 -29t-13.5 -10.5t-8 -1.5q-21 0 -23 34q-20 -21 -42 -40.5t-43.5 -34.5t-39.5 -23.5t-30 -8.5q-30 0 -30 45q0 35 10 66.5t32 62.5q9 13 24.5 33.5t34 43t37.5 45t34 39.5l45 50q43 48 83 87t73 67t57.5 43.5t38.5 15.5
q9 0 16.5 -7t7.5 -16q0 -12 -13 -36.5t-31 -45.5q-16 -20 -33 -37t-37.5 -34.5t-46.5 -37t-59 -42.5l-53 -37q-6 -4 -11 -8t-11 -11.5t-15 -18.5t-22 -28l-63 -82q-83 -107 -83 -136q0 -12 14 -12q10 0 27 8.5t37.5 23t43.5 35t46 44.5q1 26 5.5 46t15.5 42q40 81 67 81
q7 0 11.5 -6t4.5 -14q0 -47 -94 -153q2 -32 15 -32q11 0 63 62q14 14 29 32l14 15zM282 319q58 45 105.5 85.5t81 73.5t51.5 57t18 36q0 6 -4.5 10.5t-9.5 4.5q-15 0 -55 -37q-11 -11 -19.5 -20t-19 -21t-24.5 -29.5t-36 -45.5z" />
    <glyph glyph-name="c" unicode="c" horiz-adv-x="238" 
d="M356 184l-14 -16q-41 -46 -64.5 -72t-38 -40.5t-24 -22t-21.5 -14.5q-20 -12 -37 -18t-34 -6q-52 0 -52 69q0 27 4 49t13.5 41.5t24.5 38t37 38.5q20 18 44.5 34t48.5 28t46 19.5t37 7.5q26 0 26 -29q0 -15 -8.5 -32t-20.5 -32t-26.5 -25t-26.5 -10q-16 0 -16 15
q0 25 49 42l7 3q14 5 23 16t9 23q0 19 -16 19q-14 0 -37 -16t-49 -41.5t-52.5 -57.5t-47.5 -63.5t-34.5 -59t-13.5 -44.5q0 -23 31 -23q15 0 34 7t39 21q10 7 19 14t23 21.5t36.5 39.5t60.5 67l14 15z" />
    <glyph glyph-name="d" unicode="d" horiz-adv-x="323" 
d="M441 184l-14 -16q-36 -41 -56.5 -63.5t-32 -35t-19 -18.5t-18.5 -15q-22 -17 -41 -26.5t-31 -9.5q-19 0 -19 31q0 28 10 59l2 6q-17 -21 -35.5 -39.5t-35 -32t-30.5 -21t-23 -7.5q-28 0 -28 75q0 27 5.5 50t17.5 44t31.5 41.5t47.5 42.5q20 16 41.5 29t41 23t36.5 15.5
t29 5.5q30 0 30 -31q0 -9 -4 -21q11 16 24 33.5t31.5 42t44.5 59t65 84.5q8 9 14.5 18.5t13.5 18.5q4 6 6 8l3 3t2 2.5l3 4.5q8 11 13 15.5t10 4.5q8 0 14.5 -8.5t6.5 -18.5q0 -5 -3 -12t-12.5 -21t-27.5 -38.5t-49 -64.5q-68 -89 -110.5 -145t-61.5 -81l-10 -13
q-54 -71 -76 -103.5t-22 -42.5q0 -6 6 -6q8 0 29.5 12t41.5 29q9 7 15.5 12.5t17.5 17t30.5 33.5t54.5 61l14 15zM323 311q-14 0 -37 -16.5t-49 -43t-52.5 -59.5t-47.5 -65t-34.5 -60.5t-13.5 -46.5q0 -14 10 -14q16 0 48.5 28t74.5 77q60 72 88.5 115.5t28.5 66.5
q0 18 -16 18z" />
    <glyph glyph-name="e" unicode="e" horiz-adv-x="237" 
d="M356 184l-14 -16q-35 -39 -56 -62t-33.5 -36.5t-21 -21t-17.5 -14.5q-50 -38 -92 -38q-51 0 -51 64q0 30 5 53.5t16 44.5t28.5 40.5t43.5 40.5q18 15 40.5 28.5t44 24t40 17t29.5 6.5q12 0 19.5 -8t7.5 -19q0 -15 -8.5 -32.5t-22.5 -35t-32.5 -33.5t-39.5 -27
t-42.5 -15.5t-53.5 -5.5q-26 -37 -41 -66t-15 -43q0 -11 8 -18t22 -7q21 0 47.5 12.5t52.5 34.5q7 6 12.5 11t16 16.5t30.5 33.5t56 62l13 15zM151 148q18 2 32.5 6t28.5 11t28.5 17.5t32.5 25.5q29 25 45 45t16 34q0 8 -4.5 13.5t-10.5 5.5q-9 0 -30 -16t-46.5 -39.5
t-50.5 -51t-41 -51.5z" />
    <glyph glyph-name="f" unicode="f" horiz-adv-x="205" 
d="M323 184l-13 -16q-26 -28 -40 -43.5t-21.5 -23.5t-11 -12t-8.5 -8q-18 -17 -41.5 -27t-43.5 -10q-9 0 -27 3l-224 -313q-6 -8 -9 -11t-7 -3q-10 0 -18 7.5t-8 17.5q0 8 5.5 18t19.5 30l200 277q-5 8 -7 15t-2 16q0 30 24 74q25 45 48 45q17 0 17 -18q10 7 14 9.5t14 7.5
l105 145q34 48 72 90t73 74t64.5 50.5t47.5 18.5q10 0 17 -6.5t7 -16.5q0 -24 -25 -63t-70 -87q-18 -20 -34.5 -35.5t-35.5 -31.5t-43.5 -34.5t-59.5 -44.5l-30 -22l-17 -14q-10 -8 -16 -21q-9 -16 -19 -28l-96 -136q8 -1 12.5 -1.5t9.5 -0.5q41 0 76 33l10 10t11.5 12
t21 23t37.5 42l14 15zM148 186q-7 -8 -11 -11.5t-9 -7.5l-17 -12q-33 -23 -33 -56q0 -9 5 -19l86 119zM269 267q35 27 60.5 47.5t46.5 39t40 37t42 42.5q49 51 74.5 87.5t25.5 55.5q0 13 -12 13q-11 0 -26.5 -10t-37 -33.5t-51.5 -61t-70 -91.5z" />
    <glyph glyph-name="g" unicode="g" horiz-adv-x="327" 
d="M445 184l-14 -16q-41 -46 -65.5 -72t-46 -42.5t-45.5 -28t-64 -26.5l-68 -94q-34 -46 -69 -85.5t-67.5 -68t-60.5 -45t-46 -16.5q-12 0 -20 8.5t-8 21.5q0 33 32 74.5t102 98.5q40 34 73.5 57t71.5 44l42 58q5 6 8.5 11t8.5 13l6 7l1 2q-45 -41 -80.5 -63.5t-54.5 -22.5
q-27 0 -27 55q0 52 24 93.5t79 85.5q22 17 45.5 32t45 26t40.5 17t32 6q25 0 25 -25q0 -10 -2.5 -19t-7.5 -23l44 63q5 5 10 5q8 0 15 -10t7 -21t-10 -25l-183 -245q34 14 56.5 25t43 27t44.5 41t62 68l13 15zM319 304q-22 0 -60.5 -33t-89.5 -96q-45 -55 -70.5 -97
t-25.5 -59q0 -12 8 -12q6 0 18 5.5t27.5 15.5t33 23t35.5 28q27 22 52 51t45 58.5t32 55t12 42.5q0 18 -17 18zM139 -25q-48 -29 -94 -66t-82 -73.5t-58 -68t-22 -49.5q0 -8 5 -13.5t12 -5.5q42 0 132 126z" />
    <glyph glyph-name="h" unicode="h" horiz-adv-x="352" 
d="M91 167l11 13q11 11 19 19.5t20 18.5t30.5 24t50.5 38l58 74q71 90 149 163q46 43 74.5 61.5t48.5 18.5q25 0 25 -25q0 -38 -69 -110q-14 -15 -24.5 -25.5t-24 -21.5t-32 -24.5t-47.5 -33.5l-63 -44q-14 -10 -20.5 -16t-14.5 -14q-14 -17 -26.5 -34t-26.5 -34l-47 -61
q6 4 10 8t10 9t14.5 13t22.5 21q59 55 99 83.5t60 28.5q21 0 21 -40q0 -43 -42 -91l-85 -97q-49 -55 -49 -72q0 -8 9 -8q22 0 60.5 28.5t80.5 75.5q29 31 56 62l14 15l7 -6l-14 -16q-37 -41 -57.5 -64t-32.5 -35t-19.5 -18.5t-18.5 -14.5q-25 -17 -45.5 -27t-33.5 -10
q-23 0 -23 38q0 29 14 57t46 63l47 53q31 33 48.5 57t17.5 31q0 9 -10 9q-9 0 -37 -19.5t-66 -51.5q-30 -26 -54 -48t-45 -44t-41 -44.5t-42 -50.5l-31 -40q-5 -5 -6 -6.5t-3 -1.5q-8 0 -16.5 11t-8.5 20q0 8 19.5 37t56.5 75l23 28l13 17q4 5 7.5 9.5t7.5 9.5l30 38
q-54 -37 -87 -73l-11 -13zM308 320q7 6 12 9.5t10 7.5t12.5 9.5t18.5 13.5q32 22 56.5 40.5t43.5 36t35 34.5t31 37q39 49 39 69q0 11 -11 11q-20 0 -57 -36.5t-104 -121.5z" />
    <glyph glyph-name="i" unicode="i" horiz-adv-x="187" 
d="M90 167l18 19q11 12 20 22t18.5 19t20 19t24.5 23q19 17 29 26.5t15.5 14t8 5t5.5 0.5q9 0 17.5 -8.5t8.5 -16.5t-16 -29l-136 -178q-15 -20 -23.5 -31t-12 -17.5t-4.5 -10t-1 -8.5q0 -9 8 -9q4 0 13.5 4.5t21.5 11.5t25 16.5t24 18.5q7 6 12.5 11t15.5 16t29 31.5
t53 58.5l14 15l7 -6l-14 -16q-38 -42 -58.5 -65t-33.5 -36t-22 -20t-22 -17q-47 -33 -66 -33q-11 0 -17.5 11.5t-6.5 30.5q0 15 2 27t8 24.5t16 27t27 34.5l27 34q14 17 30 36t21 26q5 5 5 8t-2 3t-11 -7.5t-20 -18t-23 -22t-20 -20.5l-28 -31zM355 439q11 0 18 -6.5
t7 -16.5q0 -15 -14.5 -30t-29.5 -15q-11 0 -17.5 6.5t-6.5 16.5q0 17 13.5 31t29.5 14z" />
    <glyph glyph-name="j" unicode="j" horiz-adv-x="179" 
d="M84 160l28 31q4 5 5.5 6.5l3 3l4.5 4.5l11 11l47 50l26 26l6 6q18 19 26 19t15 -8.5t7 -18.5q0 -6 -8 -21t-28 -46t-54 -81t-85 -124q9 4 18.5 8t11.5 5q24 10 41 22t39 35q18 20 37 41t41 45l13 16l8 -7l-14 -15q-16 -18 -31.5 -36t-31.5 -35q-18 -19 -30.5 -31.5
t-26 -22t-30 -17.5t-41.5 -18l-16 -7q-30 -44 -51 -75t-35.5 -52t-24.5 -34.5t-18 -24t-16 -19t-18 -20.5q-45 -49 -76 -70t-60 -21q-31 0 -31 28q0 58 105 151q42 36 81 65.5t79 55.5q19 29 32.5 50t24.5 38t21.5 32.5t23 34.5t29.5 43t41 59l5 5l5 9q1 1 1 2q0 3 -2 3
q-1 0 -3 -2q-7 -7 -13 -13.5t-13 -12.5q-8 -8 -16.5 -18t-27.5 -30l-28 -31zM-2 -36q-27 -21 -45.5 -35.5t-32.5 -26t-25.5 -21.5t-24.5 -21q-113 -102 -113 -148q0 -18 20 -18q13 0 27 7.5t33 29.5t46 61t68 101q7 10 11 16.5t8.5 13t10.5 16t17 25.5zM331 447
q11 0 19 -7.5t8 -17.5q0 -15 -15 -29.5t-30 -14.5q-11 0 -17.5 6.5t-6.5 16.5q0 17 13.5 31.5t28.5 14.5z" />
    <glyph glyph-name="k" unicode="k" horiz-adv-x="334" 
d="M91 167l11 12q9 10 19.5 20t23.5 21.5t30.5 24.5t41.5 31q62 76 98 120.5t59 70.5t39.5 41.5t38.5 34.5q66 57 98 57q23 0 23 -25q0 -22 -23 -56t-62 -72t-90 -77t-107 -71q-19 -24 -32.5 -41t-25 -32t-23.5 -32t-29 -41q29 29 49.5 48.5t38 34.5t33 27t35.5 25
q24 17 37.5 23.5t22.5 6.5q13 0 21.5 -17t8.5 -41q0 -35 -32.5 -53.5t-113.5 -29.5q18 -24 18 -48q0 -18 -11.5 -38.5t-37.5 -49.5l-5 -5q-9 -10 -11.5 -14t-2.5 -9q0 -6 6 -6q4 0 12.5 4t19 10t22 14t22.5 16q10 8 16.5 14t18 18t30.5 33t54 59l13 15l8 -6l-14 -16
q-34 -38 -54 -60t-32.5 -35t-21 -20.5t-20.5 -16.5q-23 -17 -43.5 -27t-32.5 -10q-26 0 -26 46q0 27 14 44l42 55q11 14 11 22q0 7 -9 9l-6 1q-14 2 -17 2.5t-3 4.5q0 7 10 7l13 -1l6 -2q3 -1 6 -1q11 0 32 14.5t41.5 34t36 39t15.5 30.5q0 5 -5 5q-14 0 -44 -20t-68 -53
t-79.5 -74.5t-78.5 -84.5l-14 -17q-5 -5 -9 -10.5t-8 -10.5q-4 -6 -8 -11q-11 -17 -16.5 -22.5t-10.5 -5.5q-7 0 -13 10t-6 21q0 8 3 15t12 18q15 19 29 37l28 36q34 45 54 71.5t25 34.5q-48 -34 -83 -70l-11 -13zM305 318q53 38 100 77.5t82 74.5t55 63t20 43t-12 15
q-14 0 -38 -22q-17 -16 -30 -29.5t-31 -35t-44.5 -56.5t-71.5 -93q-2 -2 -10.5 -12.5t-19.5 -24.5z" />
    <glyph glyph-name="l" unicode="l" horiz-adv-x="183" 
d="M302 184l-14 -16q-33 -37 -51 -57t-28.5 -31t-17 -17t-15.5 -13q-60 -52 -96 -52q-33 0 -33 45q0 55 42 117q16 23 42 56t58 70t67.5 75.5t69 73.5t63.5 63.5t52 46.5q59 47 84 47q11 0 18 -7.5t7 -19.5q0 -31 -44 -84.5t-119 -113.5q-8 -6 -20.5 -16l-25 -20t-23 -17.5
t-14.5 -10.5q-31 -20 -48.5 -32t-22.5 -15t-8.5 -5.5t-6.5 -5.5t-6 -7.5t-9 -12.5l-64 -84q-22 -30 -36.5 -50t-23 -33.5t-12 -22t-3.5 -14.5q0 -14 14 -14q17 0 41.5 13.5t51.5 37.5q8 7 13.5 12.5t16 16.5t29 31t51.5 57l13 15zM243 275q59 39 112.5 83t94 84.5t64.5 74.5
t24 54q0 12 -10 12q-16 0 -46 -27q-8 -7 -22 -22t-30 -32.5t-31.5 -35.5t-25.5 -31z" />
    <glyph glyph-name="m" unicode="m" horiz-adv-x="491" 
d="M82 159l24 26q34 38 57.5 63t39 39.5t24 20.5t13.5 6q15 0 15 -33q0 -16 -1.5 -26.5t-7 -22.5t-17.5 -29t-33 -45q68 76 112.5 116t60.5 40q22 0 22 -54q0 -23 -8 -42.5t-31 -50.5q134 146 167 146q11 0 17 -14t6 -39t-8.5 -46t-28.5 -44l-87 -101q-20 -24 -27.5 -35.5
t-7.5 -19.5q0 -7 7 -7q13 0 35 12t45 32q9 7 15.5 13t17.5 17.5t30.5 33t54.5 60.5l13 15l8 -6l-14 -16q-33 -37 -52.5 -58.5t-32 -35t-21.5 -21.5t-21 -17q-47 -38 -77 -38q-24 0 -24 32q0 55 39 100l64 75q29 34 42 54.5t13 33.5q0 11 -9 11q-7 0 -31 -20.5t-57 -52.5
t-69 -71t-67 -76l-39 -47q-3 -4 -6 -7.5t-5 -7.5q-18 -22 -25 -22t-13.5 11t-6.5 23q0 3 0.5 4.5t2.5 5.5t7 11t14 19l108 141q24 32 35 50.5t11 28.5q0 9 -7 9q-10 0 -33 -19t-68 -65q-18 -18 -37 -37.5t-36 -38t-31 -34t-22 -24.5l-26 -30q-5 -7 -9.5 -13t-9.5 -11
q-18 -23 -22.5 -27.5t-8.5 -4.5q-5 0 -13 10.5t-8 18.5q0 12 20 38l160 207q16 22 16 28q0 4 -4 4q-3 0 -8.5 -4.5t-18 -17.5t-34.5 -36.5t-56 -61.5l-29 -32z" />
    <glyph glyph-name="n" unicode="n" horiz-adv-x="341" 
d="M459 184l-13 -16q-38 -42 -59.5 -65t-34 -36t-20.5 -20.5t-20 -17.5q-50 -41 -71 -41q-27 0 -27 37q0 53 40 101l54 66q34 42 49.5 64.5t15.5 32.5q0 8 -7 8q-5 0 -21 -11t-38 -30q-14 -13 -35 -33t-42 -41t-39.5 -40t-28.5 -31l-31 -34q-13 -15 -25 -30.5t-23 -30.5
t-17 -20.5t-11 -5.5q-8 0 -14.5 11t-6.5 24q0 10 18 34l102 130q4 6 7 9.5t5.5 7t6.5 8.5t10 13q25 32 34 46t9 20q0 4 -4 4q-3 0 -10 -7t-24 -27q-11 -12 -26 -29.5t-35 -39.5l-37 -41l-7 7l10 10q45 51 70 78.5t37 40.5t16 15t8 2q8 0 14 -13.5t6 -33.5t-13 -43.5
t-46 -64.5q29 30 47.5 48.5l30.5 30.5t21 20t20 17q49 39 62 39q11 0 18 -12.5t7 -33.5q0 -28 -9 -49.5t-33 -50.5l-93 -112q-14 -17 -19.5 -25.5t-5.5 -13.5q0 -11 10 -11q9 0 25.5 10t38 28t46 43.5t50.5 55.5l29 32l15 16l7 7z" />
    <glyph glyph-name="o" unicode="o" horiz-adv-x="273" 
d="M391 184q-37 -42 -69 -66.5t-52 -24.5q-10 0 -17 6q-13 -14 -22 -23l-15 -15t-11 -10.5t-10 -8.5q-23 -20 -44.5 -33t-31.5 -13q-22 0 -37.5 24.5t-15.5 58.5q0 24 5 44t16 39t28.5 37.5t42.5 38.5q20 16 43 30t46 24.5t44 16.5t36 6q29 0 29 -25q0 -5 -0.5 -9t-3.5 -19
h-10q4 15 4 22q0 21 -15 21q-18 0 -47.5 -19.5t-68.5 -56.5q-27 -26 -44.5 -48t-33.5 -50q-13 -23 -21 -37t-12 -24t-5.5 -17t-1.5 -16q0 -13 7 -22.5t16 -9.5q6 0 26 12.5t39 28.5q14 11 26 24t34 39v12q0 18 9 42t21.5 45.5t26.5 37t24 15.5q8 0 13.5 -6t5.5 -14
q0 -9 -7.5 -24.5t-19.5 -34.5t-27.5 -38.5t-31.5 -36.5q8 -5 12 -5q8 0 17.5 4t22.5 14.5t31 27t42 42.5z" />
    <glyph glyph-name="p" unicode="p" horiz-adv-x="332" 
d="M80 158l16 16l70 70t48.5 50t43.5 47t55 61l20 23q6 6 9 6q5 0 11 -9.5t6 -17.5q0 -17 -23 -55t-74 -104l-30 -39q24 25 47.5 47t44 38t35.5 25t23 9q14 0 22.5 -20t8.5 -51q0 -106 -129 -199q-41 -29 -86 -46t-82 -17q-11 0 -18 2t-19 8l-206 -273q-6 -7 -12 -7
q-8 0 -14.5 8.5t-6.5 18.5q0 7 4.5 17t15.5 27.5t31 43.5t51 66l107 139q-2 7 -3 11t-1 10q0 15 8 31h10q-8 -20 -8 -30v-5.5t2 -7.5l123 155q8 11 16 20.5t16 20.5q11 14 22 27.5t22 27.5l42 54q5 8 11 14.5t11 13.5l4 6q1 1 1 3t-3 2q-2 0 -3 -1l-6 -7q-44 -48 -71 -77.5
t-49 -52t-43.5 -44t-53.5 -52.5l-11 -10zM85 10q12 -8 25 -8q23 0 54.5 17t64.5 45.5t63.5 65.5t53.5 77q5 11 11 21t12 21q19 28 19 51q0 15 -10 15q-4 0 -16 -8t-28 -21t-35 -30t-38 -36q-29 -29 -54.5 -57.5t-55.5 -67.5z" />
    <glyph glyph-name="q" unicode="q" horiz-adv-x="325" 
d="M443 184l-13 -16q-30 -33 -50 -55.5t-31 -33.5q-3 -4 -4.5 -5.5t-2.5 -2t-2.5 -2l-5.5 -5.5q-11 -9 -37 -30t-68 -53q-60 -45 -120.5 -107t-114.5 -131l-9 -12q-11 -12 -18 -12t-11 7t-4 18q0 7 7 20t29.5 44t65.5 85.5t115 145.5l16 21q-23 -18 -38 -29.5t-25.5 -18.5
t-18 -9.5t-13.5 -2.5q-14 0 -23.5 18.5t-9.5 47.5q0 91 94 166q22 18 47 34t48 27.5t43.5 18.5t33.5 7q11 0 17.5 -7.5t6.5 -19.5q0 -7 -1 -13t-5 -17q6 8 11.5 16t11.5 17q15 23 24 23q8 0 14 -9t6 -22q0 -6 -1 -10.5t-7 -13.5t-18.5 -25.5t-34.5 -44.5q-19 -24 -33.5 -43
t-28.5 -37t-28.5 -36.5t-32.5 -41.5t-42 -53l-56 -70q11 10 21.5 19.5t21.5 17.5q11 10 25.5 21t45.5 34q40 29 63.5 48t40.5 36l78 87l14 15zM322 309q-14 0 -37 -16.5t-50 -43t-54 -59t-49 -64t-36 -59.5t-14 -44q0 -13 10 -13q7 0 22 9t33.5 23.5t38 32.5t35.5 36
q59 64 87 109t28 74q0 15 -14 15z" />
    <glyph glyph-name="r" unicode="r" horiz-adv-x="193" 
d="M91 167l94 105q-13 3 -13 16q0 9 5 20.5t13 21t16.5 16t16.5 6.5q5 0 9.5 -5t4.5 -10q0 -7 -3 -13t-16 -25q-2 -4 -4 -7l-4 -6q5 3 8.5 5t5.5 4q8 6 10.5 7.5t5.5 1.5q19 0 19 -31q0 -26 -10 -50.5t-33 -49.5l-73 -83q-18 -20 -29 -32.5t-16.5 -20.5t-7.5 -12.5t-2 -8.5
q0 -8 9 -8q11 0 33.5 13.5t47.5 34.5q9 8 15.5 13.5t17 17t29 31.5t51.5 57l14 15l7 -6l-14 -16q-39 -44 -64.5 -71t-37.5 -38q-65 -60 -100 -60q-11 0 -18 11t-7 28q0 28 11 51t40 55l70 77q16 18 26.5 29.5t15.5 19t7 12t2 9.5t-3 5q-2 0 -7 -4l-5 -5q-17 -15 -31 -15
l-99 -112z" />
    <glyph glyph-name="s" unicode="s" horiz-adv-x="230" 
d="M80 156l21 23q14 15 34.5 32.5t40.5 30.5l67 43q0 27 14.5 48.5t31.5 21.5q7 0 12 -4.5t5 -11.5q0 -9 -8 -19.5t-26 -24.5l-19 -15l4 -12l6 -14l10 -24q4 -9 6 -21.5t2 -23.5q0 -56 -74 -121q-32 -29 -66.5 -47.5t-56.5 -18.5q-14 0 -24 9t-10 23q0 19 11 44t26.5 47.5
t33 38t31.5 15.5q8 0 13 -5t5 -13q0 -28 -47 -54l-14 -7q-23 -14 -36.5 -31.5t-13.5 -36.5q0 -18 15 -18q21 0 51 26t57 63.5t46 78.5t19 71q0 8 -3 25l-45 -29q-15 -9 -26.5 -17t-21 -15.5t-19 -16t-21.5 -20.5l-23 -25z" />
    <glyph glyph-name="t" unicode="t" horiz-adv-x="190" 
d="M309 184l-14 -16q-23 -26 -36.5 -40.5t-21 -23t-12 -13l-10.5 -10.5q-14 -13 -31 -21t-31 -8q-5 0 -9 0.5t-12 2.5l-41 -49l-6.5 -6.5t-4.5 -1.5q-8 0 -16 11t-8 22q0 5 6 14l31 37q-5 9 -7 17t-2 19q0 19 5 38t13.5 34t18.5 24.5t20 9.5q3 0 5 -1l164 170q20 21 43 45
t41 43l50 53l22 21l8 8q3 4 6 4q5 0 8.5 -5t3.5 -10q0 -15 -34.5 -66t-112.5 -152l-207 -270q5 -2 8.5 -2h7.5q31 0 57 28q1 1 4 4.5t11 12.5t23 25t39 43l13 15zM355 406q12 14 23.5 28.5t22.5 28.5q14 17 23.5 28.5t15.5 18.5l4 5q1 1 0 3t-3 2t-2 -1l-6 -6l-8.5 -8.5
t-8 -9t-12 -13.5t-20.5 -23q-16 -17 -38 -40.5t-53 -55.5l-13.5 -13.5t-12.5 -13.5l-113 -119q3 -8 3 -11q0 -8 -4.5 -14t-20.5 -18l-12 -10q-15 -11 -20.5 -21.5t-5.5 -27.5q0 -8 1 -12.5t4 -12.5z" />
    <glyph glyph-name="u" unicode="u" horiz-adv-x="352" 
d="M470 184l-14 -16q-41 -45 -63.5 -70t-36 -39t-23 -21t-23.5 -16q-18 -11 -34 -17.5t-25 -6.5q-23 0 -23 38q0 21 7 41t24 45q-56 -56 -101 -89.5t-64 -33.5q-10 0 -15.5 10.5t-5.5 28.5q0 17 2 30.5t8 27t16.5 27.5t27.5 33l81 94q8 9 11 13.5t3 6.5q0 4 -4 4
t-17.5 -10.5t-30.5 -27t-36 -36t-33 -36.5l-7 7q13 15 22.5 25.5t18.5 19.5t18.5 18t23.5 21q29 25 43 37.5t15 13.5q12 9 20 9q10 0 16.5 -8.5t6.5 -20.5q0 -5 -1 -10t-5 -11.5t-10.5 -15.5t-17.5 -22l-79 -98q-27 -34 -42.5 -53.5t-23 -30.5t-9 -16.5t-1.5 -11.5
q0 -9 7 -9q8 0 28.5 13t46 33.5t52 45t47.5 48.5l31 35q20 24 33 39t22.5 27.5t19.5 25t24 31.5q4 7 9 7q8 0 15 -10t7 -21q0 -8 -5.5 -18.5t-21.5 -30.5l-85 -111q-23 -29 -37.5 -48t-22.5 -31t-11 -19t-3 -11q0 -6 6 -6q13 0 36.5 13t45.5 32q8 7 14 12t17 16.5t30.5 33.5
t54.5 61l13 15z" />
    <glyph glyph-name="v" unicode="v" horiz-adv-x="289" 
d="M90 167l89 99q26 29 39.5 40.5t21.5 11.5q9 0 15 -13t6 -32q0 -21 -9 -39t-34 -49l-61 -74q-52 -64 -52 -83q0 -8 5.5 -13.5t13.5 -5.5q10 0 28.5 10.5t40.5 28.5q19 15 37.5 33.5t50.5 55.5q-1 5 -1 8.5v5.5q0 18 9.5 46.5t22.5 55t27 45.5t23 19q6 0 11.5 -7t5.5 -15
q0 -26 -24 -70.5t-63 -91.5q2 -21 18 -21q11 0 28.5 15t54.5 56l6 7l7 -6l-18 -21q-31 -35 -48.5 -48t-34.5 -13q-16 0 -22 20q-59 -65 -97 -94t-65 -29q-17 0 -27 13.5t-10 36.5q0 15 3.5 29t11 29.5t20 33.5t31.5 41l70 85q10 12 16 22.5t6 15.5q0 4 -4 4q-3 0 -6.5 -3
t-17.5 -17l-117 -129z" />
    <glyph glyph-name="w" unicode="w" horiz-adv-x="435" 
d="M90 167l81 90q29 32 46 45.5t28 13.5q9 0 14 -11t5 -30q0 -11 -2 -20.5t-6.5 -19t-12 -20.5t-19.5 -26l-25 -31l-10 -13l-22 -26q-32 -38 -48.5 -64t-16.5 -37q0 -8 6 -8q1 0 8 4t16 10t17.5 12t12.5 9q22 18 39.5 34t38 40t49 60t72.5 93q6 8 11.5 15t11.5 15l7 8
q4 6 11 6q8 0 14.5 -10t6.5 -21q0 -9 -9.5 -24.5t-38.5 -50.5l-8 -11q-32 -39 -53 -68t-34.5 -49.5t-19 -35t-5.5 -24.5q0 -16 16 -16q11 0 29 11t39.5 29t44 42t42.5 50q1 14 2.5 25.5t5 23t9.5 25t15 31.5q17 35 32 54.5t25 19.5q6 0 11 -7t5 -15q0 -26 -21.5 -63.5
t-71.5 -98.5q2 -21 17 -21q13 0 28 12t43 44q3 4 6.5 7.5l6.5 6.5l7 8l7 -6l-14 -16q-34 -39 -51.5 -52.5t-33.5 -13.5q-20 0 -25 23q-17 -22 -37 -42.5t-43 -41.5q-27 -25 -45.5 -35t-35.5 -10t-26.5 14t-9.5 39q0 17 3.5 31.5t13.5 34.5q-51 -55 -87.5 -84.5t-55.5 -29.5
q-20 0 -20 38q0 18 3.5 34.5t11.5 33.5t20.5 35t31.5 41l9 10l8 10l8 10q9 11 17.5 21t16.5 20q5 7 10 13t10 13l4 4q10 13 10 19q0 4 -5 4q-7 0 -20 -12t-43 -45l-80 -90z" />
    <glyph glyph-name="x" unicode="x" horiz-adv-x="282" 
d="M91 167l18 20q57 63 98 97.5t60 34.5q12 0 19 -14t7 -37q0 -17 -3 -30.5t-10 -31.5q45 61 70.5 87t39.5 26q8 0 13.5 -6t5.5 -14q0 -12 -9.5 -34t-23.5 -44q-11 -15 -23 -24t-23 -9q-5 0 -9.5 4t-4.5 9q0 16 10 28.5t39 30.5l11 8q23 15 23 32q0 10 -8 10q-11 0 -36 -26
t-66 -83q-10 -14 -19.5 -27.5t-20.5 -29.5t-24 -36t-29 -46q-9 -15 -13 -23.5t-4 -16.5q0 -14 11 -14q10 0 31.5 13.5t46.5 34.5q8 7 13.5 12.5t16 16.5t29 31.5t52.5 58.5l14 15l7 -6l-14 -16q-35 -39 -54 -60.5t-31 -34t-20 -20t-21 -17.5q-46 -37 -71 -37q-31 0 -31 47
q0 18 3.5 33.5t11.5 34.5q-42 -57 -73.5 -86t-48.5 -29q-18 0 -18 20q0 16 9 35.5t21.5 37t27 29.5t26.5 12q15 0 15 -16q0 -14 -14.5 -29t-46.5 -35l-11 -8q-17 -9 -17 -28q0 -9 8 -9q13 0 40.5 26.5t64.5 74.5q25 32 47 62.5t38 56t25 44t9 26.5q0 12 -10 12
q-14 0 -51 -31.5t-86 -85.5l-30 -33z" />
    <glyph glyph-name="y" unicode="y" horiz-adv-x="327" 
d="M90 167l71 79q8 9 15 17t16 19q17 20 26.5 27.5t19.5 7.5q9 0 14.5 -10.5t5.5 -27.5q0 -16 -8.5 -36.5t-25.5 -41.5l-103 -136q-8 -11 -14 -23.5t-6 -20.5q0 -11 10 -11q15 0 43 21.5t62.5 58t72 83.5t72.5 98l19 29q7 11 10 13.5t8 2.5q8 0 13.5 -8t5.5 -19
q0 -9 -4.5 -19.5t-15.5 -27.5l-41 -61l-45 -69l-38 -56q-5 -8 -9.5 -15t-9.5 -14q22 12 40 23.5t36.5 28t40.5 39t53 57.5l14 15l7 -6l-14 -16q-32 -36 -55.5 -60.5t-44.5 -42.5t-42 -31.5t-49 -28.5q-2 -3 -4.5 -6t-4.5 -7q-8 -12 -16.5 -24t-16.5 -25
q-81 -121 -152 -186.5t-121 -65.5q-27 0 -27 27q0 23 25.5 59.5t69.5 76.5q16 15 34 29.5t39.5 30.5t47.5 34t60 40q10 17 19 31t18.5 29t21.5 33.5t29 44.5q-51 -60 -90.5 -92.5t-61.5 -32.5q-24 0 -24 40q0 65 61 140l39 48q54 66 54 76q0 4 -4 4q-5 0 -14.5 -9t-29.5 -34
q-5 -5 -9 -10l-8 -10l-78 -86zM162 -32q-11 -9 -19.5 -15t-14.5 -11q-32 -24 -53.5 -41t-38.5 -32.5t-34 -32t-40 -39.5q-28 -29 -40.5 -48.5t-12.5 -33.5q0 -15 13 -15q18 0 46.5 22t61.5 63q15 18 26 32t25 33t32.5 46.5t48.5 71.5z" />
    <glyph glyph-name="z" unicode="z" horiz-adv-x="262" 
d="M90 167l73 81q1 1 6.5 7.5t12 15t13.5 17.5t12 16q11 14 21 14q5 0 11.5 -5t12 -12t9 -15.5t3.5 -15.5q0 -11 -13 -29l-15 -20q-4 -6 -8 -10q-3 -5 -3 -7q0 -4 4 -4q8 0 18 6t18 17q7 9 15.5 19.5t16.5 22t15 22t12 18.5q5 9 8 12t7 3q7 0 13.5 -8t6.5 -18
q0 -23 -26.5 -48t-75.5 -48q-17 -20 -35 -38t-32 -31q17 -2 29.5 -14t12.5 -26q0 -17 -20 -42l-17 -20q-8 -10 -9.5 -12t-1.5 -4q0 -4 4 -4q3 0 9.5 4.5t20.5 15.5q12 10 20.5 18t22 22t36 39t61.5 69l14 15l8 -6l-14 -16q-48 -54 -79.5 -87.5t-51.5 -52.5t-31.5 -25.5
t-20.5 -6.5q-13 0 -23 12.5t-10 28.5q0 4 0.5 7t3.5 7.5t9 12.5t17 22q8 8 10.5 13.5t2.5 10.5q0 11 -10 12l-129 -115q-8 -6 -12 -6q-6 0 -10 5t-4 12q0 15 13.5 33t34.5 34t47 28.5t52 16.5q6 5 10 8.5t7.5 7t8 7.5t11.5 11q12 13 16.5 17.5l11.5 11.5q-7 -1 -9.5 -1h-4.5
q-14 0 -25 12t-11 28q0 15 15 33l8 9l5 5t5 7q9 9 9 16q0 6 -6 6q-3 0 -7 -3.5t-11 -14.5q-11 -12 -18 -24l-21 -26l-72 -80z" />
    <glyph glyph-name="exclam" unicode="!" horiz-adv-x="348" 
d="M379 467q0 -22 -12 -41q-28 -40 -92.5 -118.5t-92.5 -119.5q-7 -9 -23 -19q0 11 10 28q28 45 82 137q19 42 65 120q19 30 37 30q21 0 26 -17zM121 44q0 -47 -43 -47q-25 0 -25 16q0 45 44 45q20 0 24 -14z" />
    <glyph glyph-name="quotedbl" unicode="&#x22;" horiz-adv-x="224" 
d="M415 607q0 -52 -61 -99q-53 -41 -108 -52l-4 12q35 8 74 35q48 31 48 60q0 8 -6.5 16t-6.5 21q0 40 34 40q30 0 30 -33zM555 613q0 -52 -61 -99q-53 -41 -108 -52l-4 12q35 8 74 35q48 31 48 60q0 8 -6.5 16t-6.5 21q0 40 34 40q30 0 30 -33z" />
    <glyph glyph-name="numbersign" unicode="#" horiz-adv-x="890" 
d="M793 348l-17 -28h-159l-67 -117h159l-18 -28h-158l-91 -160h-29l91 160h-115l-90 -160h-29l91 160h-159l15 28h161l67 117h-160l17 28h160l91 159h29l-91 -159h114l92 159h28l-91 -159h159zM589 320h-116l-66 -117h114z" />
    <glyph glyph-name="percent" unicode="%" horiz-adv-x="604" 
d="M426 487q0 -64 -49 -129q-52 -69 -115 -69q-51 0 -51 75q0 66 54 118.5t119 52.5q42 0 42 -48zM621 576q-10 -55 -305 -448q-34 -47 -101 -141q-6 -7 -19 -14q-1 31 320 466q16 22 88 127q3 7 15 14zM591 192q0 -63 -50 -129q-54 -68 -115 -68q-50 0 -50 76q0 37 26 79
q24 38 58.5 64.5t87.5 26.5q43 0 43 -49zM419 487q0 42 -35 42q-43 0 -94 -80q-48 -73 -48 -120q0 -26 27 -26q53 0 103 67q47 63 47 117zM583 191q0 42 -35 42q-42 0 -94 -78q-48 -74 -48 -120q0 -26 28 -26q50 0 101 66q48 62 48 116z" />
    <glyph glyph-name="parenleft" unicode="(" horiz-adv-x="381" 
d="M678 673q-227 -143 -394 -368q-195 -259 -195 -491q0 -62 8 -132l-13 -4q-22 86 -22 174q0 258 192 490q154 188 417 343z" />
    <glyph glyph-name="parenright" unicode=")" horiz-adv-x="519" 
d="M615 513q0 -469 -608 -835l-7 12q231 144 398 372q191 261 191 500q0 44 -8 120l12 3q22 -75 22 -172z" />
    <glyph glyph-name="plus" unicode="+" horiz-adv-x="660" 
d="M644 238h-220v-222h-28v222h-222v28h222v220h28v-220h220v-28z" />
    <glyph glyph-name="comma" unicode="," horiz-adv-x="167" 
d="M137 37q0 -46 -56 -90q-49 -37 -99 -47l-4 11q32 7 68 31q44 29 44 56q0 7 -6 14t-6 19q0 37 31 37q28 0 28 -31z" />
    <glyph glyph-name="hyphen" unicode="-" horiz-adv-x="277" 
d="M282 169l-26 -34h-139l27 34h138z" />
    <glyph glyph-name="period" unicode="." horiz-adv-x="167" 
d="M114 69q12 0 20.5 -8.5t8.5 -21.5q0 -15 -13 -28t-29 -13q-13 0 -21 8t-8 21q0 17 12.5 29.5t29.5 12.5z" />
    <glyph glyph-name="zero" unicode="0" horiz-adv-x="397" 
d="M514 498q23 0 35.5 -14.5t12.5 -39.5q0 -24 -12.5 -58t-33.5 -73t-49 -79t-60 -75q-72 -79 -130 -120t-100 -41q-25 0 -39.5 20t-14.5 54q0 69 40.5 144t116.5 147q31 29 64.5 54t64.5 43t58 28t47 10zM517 487q-29 0 -85 -48.5t-125 -129.5q-29 -35 -56 -73.5t-49 -74.5
q-31 -52 -43 -79t-12 -44q0 -13 8.5 -22t19.5 -9q27 0 65.5 24t80 62.5t82.5 87.5t73.5 98t53 94.5t20.5 77.5q0 17 -9 26.5t-24 9.5z" />
    <glyph glyph-name="one" unicode="1" horiz-adv-x="310" 
d="M161 2q-3 -3 -7 -3q-10 0 -18.5 13.5t-8.5 30.5q0 8 2 12.5t13 17.5l8 10q69 85 145 173.5t159 179.5l19 19t10 12q-2 -1 -7.5 -4.5t-14.5 -10.5q-17 -12 -43 -28t-56.5 -33t-61.5 -33.5t-56 -28.5l-8 -3q-1 -1 -2 -1q-5 0 -5 7q0 2 5 5l5 3l23 12q36 19 63.5 33.5
t51 28.5t46.5 28.5t51 33.5q8 5 15.5 10.5t15.5 11.5l5 3q1 1 4 1q5 0 9 -5t4 -10q0 -23 -99 -147z" />
    <glyph glyph-name="two" unicode="2" horiz-adv-x="391" 
d="M396 96q-37 -46 -69.5 -71t-55.5 -25q-19 0 -31.5 12.5t-12.5 32.5q0 17 11 34l4 6q14 21 14 33q0 11 -8 17.5t-21 6.5q-15 0 -32 -7.5t-33.5 -20t-31 -29t-23.5 -34.5l-7 -13q-8 -14 -12 -22t-7 -11.5t-6 -4.5t-7 -1q-11 0 -18 9.5t-7 23.5q0 44 56 74q11 6 19 10.5
t19.5 9t29.5 11t49 17.5l18 6q42 16 90 47.5t90 70.5q19 18 35.5 40.5t29 46t19.5 45t7 38.5q0 38 -35 38q-25 0 -55.5 -16t-59.5 -43q-16 -15 -29.5 -32.5t-24 -35.5t-16.5 -34.5t-6 -28.5t8 -20t21 -8q27 0 58 23t49 56l2 5q3 6 4 7t3 1q4 0 4 -6q0 -3 -1 -5l-1 -4
q-5 -17 -17.5 -32.5t-28.5 -27.5t-34 -19.5t-34 -7.5q-23 0 -37 14t-14 38q0 31 19.5 64t50.5 60t68 44.5t73 17.5q35 0 55 -23t20 -64q0 -51 -27.5 -96.5t-78.5 -78.5q-17 -11 -31 -19t-33 -15.5t-46.5 -17t-72.5 -24.5q-14 -3 -22 -7q30 -2 49 -16t19 -37q0 -17 -15 -39
l-5 -7q-12 -17 -12 -27q0 -12 11 -12q6 0 18 7.5t26.5 19.5t30.5 28.5t30 34.5z" />
    <glyph glyph-name="three" unicode="3" horiz-adv-x="380" 
d="M419 379q2 2 3 2q4 0 4 -5q0 -7 -13 -23q-17 -21 -43 -34t-51 -13q-17 0 -29.5 12.5t-12.5 30.5q0 25 16.5 53t45.5 52q56 47 120 47q38 0 60.5 -20.5t22.5 -55.5q0 -29 -20 -59.5t-55 -53.5q-6 -4 -12.5 -7.5t-16 -8t-23.5 -10t-36 -13.5q8 -1 15.5 -8t13.5 -17.5
t10 -23t4 -25.5q0 -36 -24 -72t-61.5 -65t-84 -47.5t-92.5 -18.5q-32 0 -50 16.5t-18 45.5q0 21 8 42.5t20.5 38.5t28.5 27.5t32 10.5q23 0 23 -21q0 -14 -14 -28t-40 -25l-11 -4q-32 -14 -32 -45q0 -21 10.5 -33t30.5 -12q13 0 30.5 7t37.5 19t40.5 28.5t39.5 35.5t36 40
t29.5 41t20 37t7.5 28q0 10 -7.5 16t-18.5 6q-12 0 -25 -9l-5 -4q-22 -14 -34 -14q-14 0 -14 10q0 5 10 11t24 8l17 3l10 2q25 5 75 50q37 33 59 70t22 64q0 14 -10 24t-25 10q-26 0 -56 -15.5t-56.5 -39t-44 -50.5t-17.5 -49t24 -22q10 0 24 5t28.5 13.5t26.5 19t20 21.5z
" />
    <glyph glyph-name="four" unicode="4" horiz-adv-x="381" 
d="M452 171q-15 -9 -27 -11.5t-36 -2.5h-21q-12 -16 -20.5 -28t-15.5 -21.5l-14 -19t-16 -21.5q-5 -7 -10 -13.5t-10 -14.5q-7 -8 -11 -14q-4 -8 -9 -12l-6 -8q-5 -6 -9 -6q-8 0 -16 10.5t-8 20.5q0 7 3.5 16.5t13 24.5t26 36.5t41.5 53.5l-27 2l-24 2q-14 2 -30 3t-32 1
q-42 0 -73 -9l-8 -2q-1 -1 -5 -1q-7 0 -8 6l-2 9q0 7 6 11l7 6q39 29 88 69.5t98.5 84.5t94 87.5t74.5 77.5l7 7q1 3 6 3q7 0 11.5 -8t4.5 -19q0 -28 -31 -64.5t-106 -96.5q-29 -23 -52.5 -41t-47.5 -34.5t-49.5 -32.5t-57.5 -34l-12 -7q17 2 32 3t23 1q12 0 25 -1t32 -3
l35 -4l30 -3q57 72 88 110.5t45 56.5t16.5 21.5t8.5 10.5q3 5 7 5t8 -6t4 -12t-5 -17.5t-18 -32.5t-35 -54t-56 -83q14 0 23.5 0.5t17 1.5t14 3.5t14.5 6.5z" />
    <glyph glyph-name="five" unicode="5" horiz-adv-x="358" 
d="M599 496q-18 -23 -32 -37.5t-26.5 -22.5t-25 -11.5t-27.5 -3.5q-10 0 -19 1t-20 3t-25 6t-34 10q-26 -31 -50 -59.5t-47 -55.5q20 11 35 15t33 4q32 0 51.5 -23t19.5 -61t-19.5 -80t-53.5 -77q-21 -22 -48 -41t-55.5 -33.5t-56.5 -22.5t-52 -8q-54 0 -54 62q0 20 7 39.5
t19 34.5t26.5 24.5t29.5 9.5q8 0 14 -5.5t6 -13.5q0 -13 -11.5 -26t-31.5 -24l-14 -7q-34 -18 -34 -45q0 -17 9 -26.5t25 -9.5q20 0 46.5 15t55 39t56.5 55t49.5 62.5t35 61.5t13.5 52q0 18 -9.5 28.5t-26.5 10.5q-24 0 -50.5 -14t-47.5 -39l-5 -5l-8 -9q-6 -8 -9.5 -11
t-7.5 -3q-10 0 -10 11q0 8 8 17t22 18l9 5l7.5 6t7.5 8l7 8q39 48 72.5 87.5t60.5 73.5l3 3q3 3 5 3t4 -2l6 -3q19 -11 41 -16.5t43 -5.5q27 0 44 8t33 28z" />
    <glyph glyph-name="six" unicode="6" horiz-adv-x="371" 
d="M225 101q-1 -4 -4 -4q-4 0 -4 6l1 7q4 36 23.5 74t47.5 68.5t60.5 50t62.5 19.5q22 0 35 -14.5t13 -38.5q0 -26 -13 -56.5t-35 -60.5t-50.5 -58t-59 -49.5t-61.5 -34.5t-57 -13q-29 0 -44.5 21.5t-15.5 59.5q0 72 49.5 153t137.5 151q33 26 66.5 48t65.5 37.5t59.5 24
t48.5 8.5q20 0 30.5 -12.5t10.5 -33.5q0 -18 -5.5 -35.5t-14.5 -31.5t-20 -22.5t-23 -8.5q-8 0 -14 5.5t-6 13.5q0 12 11 26t30 26l9 6q10 6 16 15t6 18q0 25 -28 25q-39 0 -100 -44t-139 -130q-36 -39 -66.5 -79t-52 -76.5t-33.5 -67.5t-12 -53q0 -15 9 -24.5t23 -9.5
q19 0 46 15t56 39t57.5 55t50.5 62t36 60t14 50q0 12 -7.5 19t-19.5 7q-22 0 -52.5 -20.5t-62.5 -55.5q-52 -58 -74 -131z" />
    <glyph glyph-name="seven" unicode="7" horiz-adv-x="328" 
d="M259 407q8 13 13 20.5l8 12t4.5 7.5t4.5 7q13 22 24.5 29.5t31.5 7.5q11 0 19 -0.5t17 -2t20.5 -5t28.5 -8.5l10 -3q18 -5 43 -5q20 0 45 7.5t42 18.5l5 3q4 2 6 2q7 0 7 -6q0 -4 -5 -8l-7 -7q-41 -38 -95.5 -93t-113 -118t-116.5 -129t-106 -125l-7 -9q-1 -4 -7 -4
q-11 0 -18 10t-7 24q0 13 8 28.5t26.5 37t49 51.5t75.5 72q39 36 75.5 68.5t66.5 59t51.5 44.5t31.5 25l10 7.5t6 5.5q-3 -2 -7 -4q-13 -6 -23.5 -8.5t-24.5 -2.5q-12 0 -24 1.5t-32 5.5l-13 3q-15 4 -23.5 6.5t-14 3.5t-10 1h-11.5q-19 0 -29 -6.5t-24 -28.5z" />
    <glyph glyph-name="eight" unicode="8" horiz-adv-x="355" 
d="M299 308q0 42 12 77t34 61t51.5 40.5t64.5 14.5t55.5 -16.5t20.5 -44.5q0 -48 -46 -88.5t-131 -68.5q2 -20 2.5 -35.5t0.5 -34.5q0 -32 -3.5 -56t-11 -43.5t-20 -36t-30.5 -32.5q-28 -23 -62 -36.5t-69 -13.5q-39 0 -63.5 19t-24.5 49q0 42 33 84.5t93 77.5
q20 13 41.5 22.5t53.5 22.5zM360 294q43 19 65.5 32t40.5 30q20 20 31 42.5t11 44.5t-14 35.5t-37 13.5q-21 0 -39 -11.5t-31.5 -31.5t-21 -47.5t-7.5 -59.5v-7v-7.5t0.5 -12.5t1.5 -21zM300 259q-90 -37 -141 -89t-51 -106q0 -25 16 -41.5t41 -16.5q32 0 63 22.5t51 57.5
q12 23 17.5 49.5t5.5 65.5q0 8 -0.5 24.5t-1.5 33.5z" />
    <glyph glyph-name="nine" unicode="9" horiz-adv-x="375" 
d="M123 88q-20 -11 -28.5 -22t-8.5 -28q0 -34 32 -34q96 0 271 231q-80 -68 -128 -68q-25 0 -40.5 20.5t-15.5 54.5q0 42 22.5 84t64.5 82q46 43 98.5 68.5t94.5 25.5q51 0 51 -71q0 -69 -44 -148.5t-125 -156.5q-30 -29 -63.5 -53t-66 -41.5t-62 -27.5t-52.5 -10
q-51 0 -51 55q0 20 7.5 39.5t19.5 35.5t27 25.5t30 9.5q8 0 14 -5.5t6 -13.5q0 -14 -10.5 -25t-33.5 -22zM486 493q-19 0 -44.5 -15t-53.5 -40t-55 -56t-48.5 -63t-35 -61.5t-13.5 -51.5q0 -29 24 -29q30 0 72 26.5t80 70.5q48 54 75 104t27 85q0 30 -28 30z" />
    <glyph glyph-name="colon" unicode=":" horiz-adv-x="277" 
d="M255 292q0 -37 -33 -37q-29 0 -29 26q0 16 11 28t26 12q25 0 25 -29zM118 29q0 -36 -33 -36q-29 0 -29 26q0 15 10 27t26 12q26 0 26 -29z" />
    <glyph glyph-name="semicolon" unicode=";" horiz-adv-x="346" 
d="M273 292q0 -37 -32 -37q-31 0 -31 26q0 16 11 28t27 12q25 0 25 -29zM173 40q0 -50 -61 -98q-53 -40 -108 -51l-4 12q35 8 74 34q48 31 48 61q0 7 -6.5 15t-6.5 21q0 40 34 40q30 0 30 -34z" />
    <glyph glyph-name="less" unicode="&#x3c;" horiz-adv-x="744" 
d="M688 91l-6 -28l-508 175v27l508 174l6 -27l-472 -161z" />
    <glyph glyph-name="equal" unicode="=" horiz-adv-x="660" 
d="M644 282h-470v29h470v-29zM644 181h-470v28h470v-28z" />
    <glyph glyph-name="greater" unicode="&#x3e;" horiz-adv-x="973" 
d="M837 238l-507 -175l-7 28l472 160l-472 161l7 27l507 -174v-27z" />
    <glyph glyph-name="afii10062" unicode="&#x40e;" horiz-adv-x="897" 
d="M1015 183l-13 -15q-27 -30 -44.5 -49.5t-30 -31.5t-22 -18.5t-19.5 -12.5q-16 -8 -41 -16t-73 -22q-25 -33 -46.5 -60.5t-43 -51.5t-43.5 -46t-47 -46q-74 -68 -134 -98t-120 -30q-35 0 -57 17t-22 43q0 45 48.5 90.5t137.5 84.5q17 8 29.5 13t25.5 10t29 11t40 13.5
t58 18t83 26.5q8 11 15 21.5t15 21.5l29 46l30 44q36 55 75 111q6 9 10 14.5t6.5 10t5 8.5t7.5 11q-186 -196 -285 -196q-29 0 -45.5 20t-16.5 56q0 22 4.5 44.5t12.5 37.5q6 12 11 20t14 19t24.5 27.5t41.5 45.5l30 34q18 19 28.5 30.5t17.5 19.5t11.5 13.5t9.5 12.5
q21 28 30.5 49.5t9.5 43.5q0 18 -10 34t-27 27.5t-40.5 18t-50.5 6.5q-70 0 -139.5 -23t-125.5 -60t-91 -83.5t-35 -92.5q0 -40 30 -65.5t76 -25.5q43 0 89.5 16t84 41t62 55t24.5 59q0 25 -21 40.5t-55 15.5q-28 0 -57 -6.5t-56 -17.5t-51.5 -27t-42.5 -35l-7 6
q35 43 92 68.5t118 25.5q38 0 64.5 -19t26.5 -47q0 -38 -25.5 -74.5t-74.5 -66.5q-38 -23 -80.5 -35.5t-80.5 -12.5q-27 0 -50.5 8t-41 22.5t-27 34t-9.5 42.5q0 51 33.5 99t88 85.5t125.5 60.5t146 23q77 0 117 -33.5t40 -98.5q0 -67 -42 -124q-7 -10 -18 -23t-37 -40
l-42 -46q-33 -36 -54 -60t-32.5 -41.5t-16 -30.5t-4.5 -26q0 -17 12 -27.5t30 -10.5q40 0 102 39.5t134 108.5q47 46 96 106t98 132l60 86l32 46q16 24 20 29.5t9 5.5q6 0 14 -13.5t8 -23.5q0 -6 -3 -14t-13 -24t-29 -42.5t-50 -69.5q-5 -8 -11 -16t-11 -16l-12 -16
l-92 -134q-14 -21 -23 -33t-17 -24l-18 -27t-27 -40q-18 -27 -30 -44.5t-22.5 -32.5t-21.5 -30t-27 -36l39 13q22 7 37.5 12.5t27 11.5t20.5 13.5t19 17.5q6 7 11 12t12 12.5t17.5 19t28.5 31.5l14 16zM704 1q-72 -23 -126.5 -42.5t-97 -39t-75.5 -39.5t-63 -43t-50 -49.5
t-20 -43.5q0 -20 18.5 -33.5t47.5 -13.5q41 0 86.5 24t103.5 75q20 18 33.5 30.5t28 29t35 42.5t55.5 71q4 5 10 13t14 19zM1078 716q0 -32 -34 -51q-29 -17 -66 -17q-39 0 -66 18q-30 19 -30 54q0 20 15 36t36 16q31 2 34 -36q-2 -40 -51 -26q12 -29 33.5 -36.5t36.5 -7.5
q78 0 78 52q0 14 -9 25t-22 11h-4h-4q-5 0 -5 3q0 7 18 7q17 0 29 -17q11 -15 11 -31z" />
    <glyph glyph-name="afii10110" unicode="&#x45e;" horiz-adv-x="327" 
d="M90 167l71 79q8 9 15 17t16 19q17 20 26.5 27.5t19.5 7.5q9 0 14.5 -10.5t5.5 -27.5q0 -16 -8.5 -36.5t-25.5 -41.5l-103 -136q-8 -11 -14 -23.5t-6 -20.5q0 -11 10 -11q15 0 43 21.5t62.5 58t72 83.5t72.5 98l19 29q7 11 10 13.5t8 2.5q8 0 13.5 -8t5.5 -19
q0 -9 -4.5 -19.5t-15.5 -27.5l-41 -61l-45 -69l-38 -56q-5 -8 -9.5 -15t-9.5 -14q22 12 40 23.5t36.5 28t40.5 39t53 57.5l14 15l7 -6l-14 -16q-32 -36 -55.5 -60.5t-44.5 -42.5t-42 -31.5t-49 -28.5q-2 -3 -4.5 -6t-4.5 -7q-8 -12 -16.5 -24t-16.5 -25
q-81 -121 -152 -186.5t-121 -65.5q-27 0 -27 27q0 23 25.5 59.5t69.5 76.5q16 15 34 29.5t39.5 30.5t47.5 34t60 40q10 17 19 31t18.5 29t21.5 33.5t29 44.5q-51 -60 -90.5 -92.5t-61.5 -32.5q-24 0 -24 40q0 65 61 140l39 48q54 66 54 76q0 4 -4 4q-5 0 -14.5 -9t-29.5 -34
q-5 -5 -9 -10l-8 -10l-78 -86zM162 -32q-11 -9 -19.5 -15t-14.5 -11q-32 -24 -53.5 -41t-38.5 -32.5t-34 -32t-40 -39.5q-28 -29 -40.5 -48.5t-12.5 -33.5q0 -15 13 -15q18 0 46.5 22t61.5 63q15 18 26 32t25 33t32.5 46.5t48.5 71.5zM470 425q0 -32 -34 -51
q-29 -17 -66 -17q-39 0 -66 18q-30 19 -30 54q0 20 15 36t36 16q31 2 34 -36q-2 -40 -51 -26q12 -29 33.5 -36.5t36.5 -7.5q78 0 78 52q0 14 -9 25t-22 11h-4h-4q-5 0 -5 3q0 7 18 7q17 0 29 -17q11 -15 11 -31z" />
    <glyph glyph-name="afii10057" unicode="&#x408;" horiz-adv-x="503" 
d="M621 184l-13 -15q-37 -43 -60 -67t-46.5 -38.5t-55 -24t-86.5 -22.5q-54 -72 -109 -130t-114 -106q-117 -94 -209 -94q-35 0 -56.5 18t-21.5 46q0 35 24.5 65.5t79.5 64.5q34 21 68 38t74 32.5t87.5 30t107.5 30.5q12 18 22 32t19.5 28.5t20.5 30t25 36.5
q74 111 148.5 204t143.5 161.5t129 109.5t106 48q-29 5 -55.5 7t-55.5 2q-99 0 -187 -21.5t-154.5 -58.5t-105 -85.5t-38.5 -103.5q0 -48 29.5 -77t86.5 -36l-3 -11q-60 8 -92.5 41t-32.5 89q0 35 15 70t41 63q137 143 419 143q53 0 92 -5t73 -16l-2 -6q-35 1 -78.5 -25
t-98.5 -83t-123.5 -147.5t-153.5 -217.5q-10 -13 -19.5 -26.5t-19.5 -29.5l-72 -98q35 9 64.5 18.5t49.5 18.5q10 4 19.5 10.5t22 18.5t30 30.5t44.5 48.5l14 16zM284 1q-46 -14 -75.5 -23.5t-51.5 -17.5t-40.5 -16t-42.5 -18q-102 -47 -157 -93.5t-55 -86.5q0 -20 17 -34
t43 -14q54 0 122.5 45t137.5 125q12 14 22.5 27t22 28t25.5 34t32 44z" />
    <glyph glyph-name="afii10071" unicode="&#x451;" horiz-adv-x="237" 
d="M356 184l-14 -16q-35 -39 -56 -62t-33.5 -36.5t-21 -21t-17.5 -14.5q-50 -38 -92 -38q-51 0 -51 64q0 30 5 53.5t16 44.5t28.5 40.5t43.5 40.5q18 15 40.5 28.5t44 24t40 17t29.5 6.5q12 0 19.5 -8t7.5 -19q0 -15 -8.5 -32.5t-22.5 -35t-32.5 -33.5t-39.5 -27
t-42.5 -15.5t-53.5 -5.5q-26 -37 -41 -66t-15 -43q0 -11 8 -18t22 -7q21 0 47.5 12.5t52.5 34.5q7 6 12.5 11t16 16.5t30.5 33.5t56 62l13 15zM151 148q18 2 32.5 6t28.5 11t28.5 17.5t32.5 25.5q29 25 45 45t16 34q0 8 -4.5 13.5t-10.5 5.5q-9 0 -30 -16t-46.5 -39.5
t-50.5 -51t-41 -51.5zM292 440q12 0 20.5 -8.5t8.5 -21.5q0 -15 -13 -28t-29 -13q-13 0 -21 8t-8 21q0 17 12.5 29.5t29.5 12.5zM430 445q12 0 20.5 -8.5t8.5 -21.5q0 -15 -13 -28t-29 -13q-13 0 -21 8t-8 21q0 17 12.5 29.5t29.5 12.5z" />
    <glyph glyph-name="afii61352" unicode="&#x2116;" horiz-adv-x="1559" 
d="M881 98l26 40q20 31 55 77.5t77 97t86 100.5t82 90q51 52 92 88.5t75 60t63 34t56 10.5t44.5 -12t17.5 -32q0 -11 -8 -19.5t-20 -8.5q-11 0 -19.5 7.5t-8.5 18.5v5q1 5 1 12q0 16 -18 16q-42 0 -99.5 -39t-145.5 -126q-59 -59 -118 -126.5t-111.5 -135t-95.5 -131
t-70 -114.5q-7 -13 -16 -13q-11 0 -21 12.5t-10 26.5q0 9 1.5 16t7.5 20.5t19 38t37 68.5q10 18 17 31t15 26.5t18 30.5t25 43l50 86q2 3 11 19.5t21.5 39.5t27 50t28 51t23.5 42t13 24q8 16 13 27.5t5 16.5q0 2 -2 2t-8.5 -8t-23.5 -32q-75 -102 -152.5 -193.5
t-145.5 -160.5q-146 -147 -281.5 -218t-269.5 -71q-79 0 -125.5 29t-46.5 80q0 23 11 38t28 15q13 0 21 -7.5t8 -20.5q0 -12 -5.5 -20.5t-21.5 -19.5q-11 -8 -11 -16q0 -11 11.5 -24.5t29.5 -23.5q35 -19 91 -19q117 0 242 62.5t265 190.5q82 75 166 170t182 223
q18 23 26 31.5t13 8.5q10 0 17.5 -16.5t7.5 -36.5q0 -17 -5 -36t-19 -49t-39.5 -76.5t-66.5 -118.5l-102 -176q-10 -17 -22 -39t-24 -45zM1441 544q16 -3 30 -15t22 -28q7 -15 7.5 -35t-3 -42.5t-12 -44t-21.5 -40.5q-29 -40 -58.5 -57t-59.5 -11q-18 4 -34 18.5t-26 37.5
q-20 44 -13 87t39 79q16 12 32.5 23.5t33 18.5t33 10t30.5 -1zM1448 536q-21 5 -47.5 -18t-51.5 -65q-12 -19 -20 -39.5t-13 -40.5q-6 -30 -7.5 -45.5t4.5 -26.5q3 -8 11.5 -15t17.5 -8q19 -4 39.5 5t39.5 27.5t34 44.5t24 52.5t11 53t-8 46.5q-4 11 -14 19t-20 10z
M1478 213h-235v22h235v-22z" />
    <glyph glyph-name="afii10101" unicode="&#x454;" horiz-adv-x="238" 
d="M245 149q-28 -15 -43 -15q-7 0 -14.5 4t-13.5 4q-5 0 -14 -4.5t-10 -4.5q-6 0 -7 3q-2 -3 -3 -5q-21 -31 -34.5 -58.5t-13.5 -44.5q0 -23 31 -23q15 0 34 7t39 21q10 7 19 14t23 21.5t36.5 39.5t60.5 67l14 15l7 -6l-14 -16q-41 -46 -64.5 -72t-38 -40.5t-24 -22
t-21.5 -14.5q-20 -12 -37 -18t-34 -6q-52 0 -52 69q0 27 4 49t13.5 41.5t24.5 38t37 38.5q20 18 44.5 34t48.5 28t46 19.5t37 7.5q26 0 26 -29q0 -15 -8.5 -32t-20.5 -32t-26.5 -25t-26.5 -10q-16 0 -16 15q0 25 49 42l7 3q14 5 23 16t9 23q0 19 -16 19q-14 0 -37 -16
t-49 -41.5t-53 -57.5q-21 -26 -39 -51q5 3 15 7q18 7 27 7q3 1 16.5 -2.5t20.5 -3.5q1 0 28 10q-2 -7 -3 -7t-2 0.5t-2 0.5t-3 -7z" />
    <glyph glyph-name="afii10023" unicode="&#x401;" horiz-adv-x="686" 
d="M749 682q-30 11 -55.5 15t-60.5 4q-99 0 -166 -38q-41 -23 -65 -56.5t-24 -68.5q0 -45 41.5 -70.5t116.5 -25.5q13 0 22 0.5t19.5 1.5t25.5 3.5t39 7.5q-2 8 -2 12.5v11.5q0 100 114 161q16 9 35.5 16.5t39 13t37.5 8.5t33 3q35 0 35 -30q0 -22 -21.5 -52t-57.5 -59
q-35 -27 -81 -49.5t-100 -37.5q-4 -12 -5 -17t-1 -18q23 0 40 -9t17 -21q0 -10 -16 -10q-28 0 -49 30q-62 -2 -113 -21t-105 -60q-63 -49 -100.5 -112t-37.5 -122q0 -44 32 -71.5t82 -27.5q63 0 130 33.5t122 91.5q68 74 68 130q0 29 -21 47.5t-54 18.5q-47 0 -100.5 -28.5
t-95.5 -74.5q-28 -32 -41.5 -62.5t-15.5 -71.5h-8q-1 8 -1 13.5v9.5q0 40 23 80t59.5 72t82 52.5t90.5 20.5q41 0 67 -21.5t26 -54.5q0 -48 -28.5 -95t-74.5 -85t-103 -61.5t-115 -23.5q-38 0 -69.5 11.5t-54 32.5t-35 50t-12.5 65q0 57 30 106t83.5 85.5t126 58.5t157.5 24
q-4 9 -5.5 13t-4.5 14q-35 -7 -61.5 -10t-56.5 -3q-84 0 -125 34q-43 34 -43 80q0 36 20 67t55 53t83.5 34.5t105.5 12.5q72 0 129 -22zM677 465q46 13 90.5 35.5t80 49t57 54t21.5 50.5q0 18 -19 18q-14 0 -34.5 -8.5t-43.5 -23.5t-47 -35.5t-46 -44.5q-23 -26 -36.5 -47
t-22.5 -48zM858 779q11 0 18 -7t7 -18q0 -12 -11 -22.5t-25 -10.5q-11 0 -18 6.5t-7 17.5q0 14 11 24t25 10zM978 783q10 0 17.5 -7t7.5 -17q0 -13 -11.5 -23.5t-24.5 -10.5q-12 0 -18.5 6.5t-6.5 17.5q0 14 10.5 24t25.5 10z" />
    <glyph glyph-name="afii10053" unicode="&#x404;" horiz-adv-x="652" 
d="M859 703q-144 0 -257 -75q-111 -71 -200 -165q-102 -107 -150 -211q-32 -73 -32 -124q0 -79 46 -107q35 -23 82 -23q76 0 158 51q79 53 115 122q20 42 20 89q0 32 -20.5 56t-52.5 24q-25 0 -59 -17q-51 -22 -97 -76q-45 -51 -66 -107q-5 -15 -5 -31q0 -12 8 -32t8 -18
q0 -6 -6 -6q-3 0 -5 3q-19 31 -19 73q0 80 76 152t157 72q41 0 66.5 -24t25.5 -66q0 -55 -23 -98q-33 -69 -117 -123q-86 -57 -159 -57q-80 0 -128 44q-46 45 -46 124q0 130 105 264q96 125 240 210q156 94 301 92q91 -4 137.5 -33t46.5 -83q0 -23 -10.5 -37t-27.5 -14
q-12 0 -19.5 7.5t-7.5 20.5q0 20 25 38q8 5 11 9.5t3 9.5q0 11 -10.5 23.5t-27.5 22.5q-38 22 -86 20zM337 386q0 1 12 10q52 38 111 33q6 -1 15 -2t13 -1q38 -4 60 -2q9 1 20 6q19 6 20 7q3 -1 3 -4q0 -1 -2 -2q-49 -39 -125 -31q-3 0 -11 1q-6 1 -10 1q-41 4 -65 0
q-11 -3 -21 -9q-12 -8 -18 -10q-1 0 -2 2v1z" />
    <glyph glyph-name="afii10056" unicode="&#x407;" horiz-adv-x="675" 
d="M1087 670q-38 -29 -67.5 -55.5t-60 -63.5t-69 -90.5t-94.5 -137.5q-53 -76 -98 -128t-90 -87q-75 -60 -160.5 -90.5t-173.5 -30.5q-79 0 -125 31.5t-46 86.5q0 20 12 34.5t29 14.5q12 0 19.5 -7.5t7.5 -20.5q0 -22 -19 -31l-8 -5q-17 -10 -17 -20t11 -24t27 -24
q38 -25 106 -25q103 0 197 60.5t195 193.5q41 54 78.5 99.5t77 88t83 84.5t96.5 89q-4 -2 -7.5 -4.5t-6.5 -4.5l-36 -26q-33 -24 -58 -35t-46 -11q-29 0 -47 13.5t-18 34.5q0 6 1.5 12t5.5 17q6 15 6 26q0 14 -17.5 23.5t-42.5 9.5q-33 0 -69.5 -7.5t-72 -21t-67.5 -32
t-56 -39.5q-66 -60 -66 -118q0 -29 22 -47.5t58 -18.5q27 0 56 8t56 22.5t50 34.5t40 44q7 8 11 18.5t8 24.5l8 -1q-3 -67 -86 -121q-32 -22 -67.5 -33.5t-67.5 -11.5q-43 0 -71 23.5t-28 58.5q0 26 10.5 53t29.5 51.5t46 46.5t60 38q80 40 171 40q61 0 95 -20
q19 -11 29.5 -25t10.5 -28q0 -8 -8 -31l-4 -12t-1 -6q0 -6 7 -11t16 -5t20 3.5t25.5 11.5t35 22.5t49.5 35.5q18 13 31 22.5t24.5 16.5t22 13t22.5 12zM1041 782q11 0 18 -7t7 -18q0 -12 -11 -22.5t-25 -10.5q-11 0 -18 6.5t-7 17.5q0 14 11 24t25 10zM1161 786
q10 0 17.5 -7t7.5 -17q0 -13 -11.5 -23.5t-24.5 -10.5q-12 0 -18.5 6.5t-6.5 17.5q0 14 10.5 24t25.5 10z" />
    <glyph glyph-name="uni0406" unicode="&#x406;" horiz-adv-x="675" 
d="M1087 670q-38 -29 -67.5 -55.5t-60 -63.5t-69 -90.5t-94.5 -137.5q-53 -76 -98 -128t-90 -87q-75 -60 -160.5 -90.5t-173.5 -30.5q-79 0 -125 31.5t-46 86.5q0 20 12 34.5t29 14.5q12 0 19.5 -7.5t7.5 -20.5q0 -22 -19 -31l-8 -5q-17 -10 -17 -20t11 -24t27 -24
q38 -25 106 -25q103 0 197 60.5t195 193.5q41 54 78.5 99.5t77 88t83 84.5t96.5 89q-4 -2 -7.5 -4.5t-6.5 -4.5l-36 -26q-33 -24 -58 -35t-46 -11q-29 0 -47 13.5t-18 34.5q0 6 1.5 12t5.5 17q6 15 6 26q0 14 -17.5 23.5t-42.5 9.5q-33 0 -69.5 -7.5t-72 -21t-67.5 -32
t-56 -39.5q-66 -60 -66 -118q0 -29 22 -47.5t58 -18.5q27 0 56 8t56 22.5t50 34.5t40 44q7 8 11 18.5t8 24.5l8 -1q-3 -67 -86 -121q-32 -22 -67.5 -33.5t-67.5 -11.5q-43 0 -71 23.5t-28 58.5q0 26 10.5 53t29.5 51.5t46 46.5t60 38q80 40 171 40q61 0 95 -20
q19 -11 29.5 -25t10.5 -28q0 -8 -8 -31l-4 -12t-1 -6q0 -6 7 -11t16 -5t20 3.5t25.5 11.5t35 22.5t49.5 35.5q18 13 31 22.5t24.5 16.5t22 13t22.5 12z" />
    <glyph glyph-name="afii10103" unicode="&#x456;" horiz-adv-x="187" 
d="M90 167l18 19q11 12 20 22t18.5 19t20 19t24.5 23q19 17 29 26.5t15.5 14t8 5t5.5 0.5q9 0 17.5 -8.5t8.5 -16.5t-16 -29l-136 -178q-15 -20 -23.5 -31t-12 -17.5t-4.5 -10t-1 -8.5q0 -9 8 -9q4 0 13.5 4.5t21.5 11.5t25 16.5t24 18.5q7 6 12.5 11t15.5 16t29 31.5
t53 58.5l14 15l7 -6l-14 -16q-38 -42 -58.5 -65t-33.5 -36t-22 -20t-22 -17q-47 -33 -66 -33q-11 0 -17.5 11.5t-6.5 30.5q0 15 2 27t8 24.5t16 27t27 34.5l27 34q14 17 30 36t21 26q5 5 5 8t-2 3t-11 -7.5t-20 -18t-23 -22t-20 -20.5l-28 -31zM355 439q11 0 18 -6.5
t7 -16.5q0 -15 -14.5 -30t-29.5 -15q-11 0 -17.5 6.5t-6.5 16.5q0 17 13.5 31t29.5 14z" />
    <glyph glyph-name="afii10104" unicode="&#x457;" horiz-adv-x="187" 
d="M90 167l18 19q11 12 20 22t18.5 19t20 19t24.5 23q19 17 29 26.5t15.5 14t8 5t5.5 0.5q9 0 17.5 -8.5t8.5 -16.5t-16 -29l-136 -178q-15 -20 -23.5 -31t-12 -17.5t-4.5 -10t-1 -8.5q0 -9 8 -9q4 0 13.5 4.5t21.5 11.5t25 16.5t24 18.5q7 6 12.5 11t15.5 16t29 31.5
t53 58.5l14 15l7 -6l-14 -16q-38 -42 -58.5 -65t-33.5 -36t-22 -20t-22 -17q-47 -33 -66 -33q-11 0 -17.5 11.5t-6.5 30.5q0 15 2 27t8 24.5t16 27t27 34.5l27 34q14 17 30 36t21 26q5 5 5 8t-2 3t-11 -7.5t-20 -18t-23 -22t-20 -20.5l-28 -31zM357 439q11 0 18 -6.5
t7 -16.5q0 -15 -14.5 -30t-29.5 -15q-11 0 -17.5 6.5t-6.5 16.5q0 17 13.5 31t29.5 14zM243 439q11 0 18 -6.5t7 -16.5q0 -15 -14.5 -30t-29.5 -15q-11 0 -17.5 6.5t-6.5 16.5q0 17 13.5 31t29.5 14z" />
    <glyph glyph-name="guillemotleft" unicode="&#xab;" horiz-adv-x="424" 
d="M322 72q0 52 61 99q53 41 108 52l4 -12q-35 -8 -74 -35q-48 -31 -48 -60q0 -8 6.5 -16t6.5 -21q0 -40 -34 -40q-30 0 -30 33zM182 66q0 52 61 99q53 41 108 52l4 -12q-35 -8 -74 -35q-48 -31 -48 -60q0 -8 6.5 -16t6.5 -21q0 -40 -34 -40q-30 0 -30 33z" />
    </font>
</defs>
</svg>
